<?xml version="1.0" encoding="utf-8"?>
<!-- Generator: Adobe Illustrator 26.1.0, SVG Export Plug-In . SVG Version: 6.00 Build 0)  -->
<svg version="1.1" id="Layer_1" xmlns="http://www.w3.org/2000/svg" xmlns:xlink="http://www.w3.org/1999/xlink" x="0px" y="0px"
	 viewBox="0 0 2000 1079" style="enable-background:new 0 0 2000 1079;" xml:space="preserve">
<style type="text/css">
	.st0{fill:#333333;}
</style>
<path class="st0" d="M1994.8,42.3c-8.6,17.3-14.4,40.9-14.8,59.9c-0.3,15.4,5.4,30.5,17,44.9v5.5c-13.8-16-20.5-33-20.2-50.5
	c0.4-19.7,6.4-44,15.3-61.9c1.5-3,3.1-5.9,4.9-8.6v6.5C1996.2,39.4,1995.5,40.8,1994.8,42.3z M1939.5,161.7
	c-14.4-41-0.3-86,12.2-125.6c0.6-1.9,1.2-3.8,1.8-5.7c3.2-10.1,6.6-19.9,10.3-29.3h-3.5c-3.5,9-6.7,18.3-9.7,27.9
	c-0.6,1.9-1.2,3.8-1.8,5.7c-12.7,40.4-27.2,86.2-12.2,128.7c12,34,36.7,55,60.3,67.8v-4.4C1974.3,214.2,1950.9,194,1939.5,161.7z
	 M1923.3,214.3c-24.7-27.9-33.8-61.1-27.8-101.7c4-27.6,12.1-54.3,19.8-80.2c3.1-10.3,6.2-20.8,9.2-31.4h-3.3
	c-2.8,10.1-5.8,20.2-8.8,30c-7.8,26-15.9,52.9-20,80.9c-6.2,42,3.3,76.5,28.8,105.4c22.4,25.2,48.4,42.4,75.8,55.5v-4.3
	C1970.2,255.5,1945,238.8,1923.3,214.3z M1935.7,293.8c-12.8-7.9-26-16.1-39.2-23.6c-13.9-7.9-31-12.5-43.5-11.8
	c-8,0.5-15.8,3.5-23.3,6.5c-7.8,3.1-15.8,6.2-24.1,6.5c-13.8,0.5-26.6-0.6-31-18.7c-5.5-22.3,0.2-38.5,7.5-59l0.1-0.2
	c12.5-35.5,30.4-64.2,49.4-94.6c3.7-5.9,7.5-12,11.2-18.1c10.3-16.8,27.9-50.5,37.9-79.7h-3.4c-9.8,28.3-27,60.9-37,77.2
	c-3.7,6.1-7.5,12.2-11.2,18.1c-19.1,30.6-37.2,59.6-49.8,95.5l-0.1,0.2c-7.5,21.3-13.4,38-7.6,61.8c5.1,20.7,19.6,22,34.1,21.5
	c8.8-0.3,17-3.5,25-6.7c7.6-3,14.9-5.9,22.5-6.3c12.1-0.7,28.6,3.8,42.1,11.5c13.1,7.5,26.3,15.6,39.1,23.5
	c20.2,12.5,41,25.4,62.3,36c0.1,0.1,0.2,0.1,0.4,0.2v-4.3C1976.1,318.8,1955.6,306.1,1935.7,293.8z M1985.5,387.6
	c-9.6-3.9-19-8.6-28.1-13.1c-24-12-46.7-23.2-74-21.5c-11,0.7-22.1,2.7-32.9,4.6c-19.4,3.5-39.6,7.1-59.3,3.1
	c-32.7-6.5-58.6-28.9-71-61.3c-15-39.3,1.7-83.2,18.3-113.2c15.9-28.8,28.1-45.9,41-64.1c7.5-10.5,15.2-21.4,23.9-34.9
	c8-12.5,13.8-38.7,17.9-57.9c0.7-3.1,1.3-6,1.9-8.6c1.3-5.7,3.9-12.4,6.9-19.8h-3.5c-2.8,6.8-5.1,13.1-6.4,18.6
	c-0.6,2.6-1.2,5.5-1.9,8.6c-3.9,17.7-9.7,44.6-17.3,56.4c-8.6,13.4-16.3,24.3-23.8,34.8c-13,18.3-25.2,35.5-41.3,64.5
	c-10.8,19.4-18.2,38.3-21.9,55.9c-4.8,22.5-3.6,43.1,3.3,61.3c6.6,17.4,16.8,31.9,30.3,43.1c12.4,10.2,27.2,17.3,43,20.5
	c20.2,4.1,40.6,0.4,60.3-3.1c10.7-1.9,21.7-3.9,32.6-4.6c26.6-1.7,49,9.4,72.7,21.2c9.1,4.5,18.5,9.2,28.3,13.2
	c4.2,1.7,8.3,3.3,12.5,4.8v-4.2C1993.2,390.7,1989.3,389.2,1985.5,387.6z M1994.1,433.3c-11.1-3-22.6-6.1-33.9-9
	c-11.7-3-23.4-6.8-34.7-10.4c-21.3-6.8-43.3-13.9-66.1-16.2c-16.2-1.7-28.9,0.3-44.1,4.1c-16.3,4-32.4,4.5-44.1,1.3
	c-29.4-8.1-57.6-54.7-68.4-74.4c-7.3-13.3-18.3-33.4-18-52.1c0.3-18.6,8.4-39.3,15-56l1.1-2.8c8.5-21.7,19.6-40.5,30.3-58.7
	c8.6-14.7,17.6-30,25.4-46.9c2.5-5.4,5-10.7,7.6-16.4c14.2-30.3,28.9-61.5,35.3-94.7h-3.2c-6.4,32.3-20.8,63-34.7,92.7
	c-2.7,5.7-5.2,11-7.6,16.4c-7.7,16.7-16.6,31.9-25.2,46.5c-10.8,18.3-21.9,37.3-30.6,59.3l-1.1,2.8c-6.7,17-15,38.2-15.3,57.7
	c-0.3,20,11.1,40.8,18.6,54.5c11,20.1,39.8,67.7,70.3,76c17.1,4.7,37.4,0.7,45.3-1.3c15.3-3.8,27.3-5.6,43.3-4
	c22.6,2.3,44.4,9.3,65.6,16.1c11.3,3.6,23.1,7.4,34.9,10.4c11.3,2.9,22.8,6,33.9,9c1.2,0.3,2.4,0.6,3.6,1v-4.1
	C1996,433.8,1995,433.5,1994.1,433.3z M1942.7,459.1c-9.8-2.4-20-4.8-29.9-7.6c-1.9-0.5-3.8-1.1-5.7-1.6c-29-8.2-61.9-17.6-91.2-5.6
	c-2.9,1.2-5.8,2.4-8.6,3.6c-25.4,10.9-47.3,20.3-67.7-7.9c-8.7-12-15.6-26.3-22.2-40.1c-2.1-4.3-4.3-8.8-6.5-13.2
	c-4.9-9.8-10.4-19.3-15.6-28.6c-6.6-11.5-13.4-23.5-19.2-35.9c-28.8-61.5,1.5-112.4,30.8-161.5c8.8-14.8,18-30.1,25.3-45.4
	c14.5-30.3,33-73.5,43.4-114.3h-3.3c-10.4,40.1-28.6,82.4-42.8,112.3c-7.2,15.1-16.3,30.4-25.1,45.1c-29.9,50.2-60.9,102.1-31,166
	c5.9,12.6,12.7,24.6,19.3,36.2c5.2,9.2,10.6,18.7,15.5,28.4c2.2,4.3,4.3,8.8,6.4,13.1c6.7,13.9,13.7,28.4,22.6,40.7
	c21.7,30.1,45.7,19.9,71,9c2.8-1.2,5.7-2.4,8.6-3.6c28.5-11.7,61-2.5,89.6,5.7c1.9,0.5,3.8,1.1,5.7,1.6c10,2.8,20.2,5.3,30,7.6
	c18.2,4.4,36.8,8.9,54.9,15.7v-4.1C1979.1,467.9,1960.6,463.4,1942.7,459.1z M1985,502c-40-16.9-73.7-23.8-109.4-22.3l-2.2,0.1
	c-17,0.7-33.1,1.3-47.2,15.3c-6.9,6.9-12.7,15.6-18.3,23.9c-6.5,9.6-13.2,19.6-21.6,26.7l-1.7,1.4c-11.9,10.1-21.3,18-30.6,3
	c-7.1-11.4-10.6-24.1-14.4-37.6c-2.5-8.9-5.1-18.1-8.8-26.8c-3.8-9.1-8.2-17.8-12.4-26.2c-5.1-10.1-10.3-20.6-14.6-31.6l-1.6-4.2
	c-8.2-21.2-16-41.2-25.5-61.1c-0.7-1.5-1.4-3-2.2-4.5c-13.4-27.8-28.5-59.3-27.1-93c1.9-44.1,29.2-88.3,47.3-117.6
	c29.6-47.8,42-78.2,53-130c1.2-5.5,2.4-11,3.7-16.5h-3.3c-1.2,5.2-2.4,10.3-3.4,15.4c-11,51.3-23.2,81.3-52.5,128.6
	c-18.3,29.6-46.1,74.4-48,119.8c-1.5,34.9,13.9,67,27.5,95.3c0.7,1.5,1.4,3,2.2,4.5c9.4,19.7,17.2,39.6,25.4,60.8l1.6,4.2
	c4.4,11.2,9.6,21.8,14.8,32c4.2,8.4,8.6,17,12.3,26c3.6,8.5,6.1,17.5,8.6,26.3c3.7,13.2,7.5,26.8,14.9,38.7
	c4.1,6.6,8.3,9.4,12.6,9.8c7.3,0.7,14.8-5.7,22.2-11.9l1.7-1.4c8.7-7.4,15.6-17.6,22.2-27.4c5.5-8.2,11.2-16.7,17.9-23.4
	c13.2-13.2,28.8-13.8,45.3-14.5l2.2-0.1c35.3-1.5,68.7,5.3,108.3,22.1c4.5,1.9,8.8,3.8,13,5.7v-4.2
	C1993,505.4,1988.9,503.6,1985,502z M1966,545c-3.1-0.9-6.2-1.9-9.3-2.8c-12.6-3.8-25.5-7.8-38.4-10.2c-15.5-2.9-31.9-1.5-47.7-0.1
	c-2.6,0.2-5.2,0.4-7.7,0.7c-25.1,2-40,26-54.4,49.2c-5.3,8.6-10.9,17.5-16.7,24.9c-3.7,4.7-4.9,8.1-6.3,12c-0.7,1.8-1.3,3.7-2.4,6
	c-1,2.3-2.1,4.6-2.8,4.8c-0.8,0.2-2.7-1.2-4.5-2.5c-2.5-1.8-4.5-3.9-6.6-6.1c-3.1-3.2-6.2-6.5-11.1-8.8c-4.1-1.9-8.2-3.7-12.2-5.5
	c-3.8-1.7-7.7-3.4-11.6-5.2c-13.7-6.4-29-14.8-37.1-32.8c-5.9-13.1-5.2-26.6-4.5-41c0.3-6.2,0.6-12.5,0.4-18.9
	c-1.3-36.7-16.4-75.1-29.7-109.1c-3.5-8.9-6.8-17.4-9.8-25.6l-0.4-1.2c-13.2-36-28.1-76.8-23.7-116.8c4.4-40.2,28.1-78.8,45.4-107.1
	c2.8-4.6,5.7-9.1,8.5-13.6c7.1-11.1,14.4-22.6,20.5-35c9.4-19.1,15-40.9,19.9-61.7c2.5-10.6,4.5-21.5,6.4-32.1
	c0.3-1.8,0.7-3.7,1-5.5h-3.2c-0.3,1.6-0.6,3.1-0.8,4.6c-1.9,10.5-3.8,21.3-6.3,31.8c-4.9,20.5-10.4,42-19.6,60.7
	c-6,12.2-13.3,23.6-20.3,34.6c-2.8,4.4-5.8,9-8.6,13.6c-17.5,28.6-41.5,67.7-46,109c-4.5,41.2,10.6,82.5,23.9,119l0.4,1.2
	c3,8.3,6.3,16.8,9.9,25.7c13.1,33.6,28.1,71.6,29.4,107.5c0.2,6.2-0.1,12.4-0.4,18.5c-0.7,14.3-1.4,29.1,4.9,43.2
	c8.6,19.2,24.5,27.9,38.7,34.5c3.9,1.8,7.8,3.6,11.6,5.2c4,1.8,8.1,3.6,12.1,5.5c4.4,2.1,7.2,5,10.2,8.2c2.1,2.2,4.3,4.5,7.1,6.5
	c3.1,2.2,4.9,3.4,6.8,2.9c2-0.6,3.2-3,4.8-6.7c1.1-2.4,1.8-4.5,2.5-6.3c1.3-3.7,2.4-6.7,5.7-10.8c6-7.6,11.6-16.6,17-25.3
	c14-22.5,28.5-45.8,52.1-47.7c2.6-0.2,5.2-0.4,7.8-0.6c15.6-1.3,31.8-2.7,47,0.1c12.7,2.4,25.6,6.3,38.1,10.1
	c3.1,0.9,6.2,1.9,9.3,2.8c10.5,3.1,21.6,7.2,31.7,13.5V558C1988.5,552.9,1978.3,548.7,1966,545z M1997,754.2
	c-2.6-4.3-5.2-8.7-7.7-13.2c-5.4-9.8-10.1-20.5-14.7-30.9c-3.9-8.9-7.9-18-12.4-26.7c-1.8-3.5-3.7-7.5-5.6-11.7
	c-6.9-15-14.6-31.9-26.9-37.3c-31.8-14-53.5,7.3-76.4,29.9c-2.8,2.8-5.7,5.6-8.7,8.4l-2.4,2.3c-13.6,13-27.6,26.4-44.3,31.1
	c-12.9,3.6-30.3,5.9-40.4-3.9c-7.9-7.7-15.3-18.3-22.4-28.6c-3.4-5-6.7-9.6-10-14c-2.3-3-4.6-6.6-7.1-10.4
	c-7.3-11.2-15.6-23.8-25.7-27.5c-7.7-2.8-15.8-3.5-23.6-4.1c-7.7-0.6-15.6-1.3-23-4c-19-6.9-35.3-17.7-45.9-30.6
	c-5.2-6.3-7.6-12.6-7.4-19.2c0.4-15.1,14.2-29.4,26.3-42c5-5.2,9.6-10.1,13-14.6c10.1-13.8,10.6-27,7.9-45.2
	c-3.2-22.1-6.6-44.9-11.7-67.3c-0.6-2.8-1.3-5.5-1.9-8.3c-8.4-36.6-17.8-78.1-16.1-116.3c1.7-37.8,13.6-73.3,36.5-108.7
	c3.6-5.6,8.1-11.9,12.9-18.6c9.3-12.9,19.7-27.6,25.7-40.1c7.7-16.2,11.8-35.4,15.7-54c0.5-2.4,1-4.8,1.5-7.1
	c1.9-8.8,3.6-17.9,5.3-26.6c0.9-4.6,1.8-9.3,2.7-14h-3.2c-0.9,4.4-1.7,8.8-2.6,13.1c-1.7,8.7-3.4,17.7-5.3,26.5
	c-0.5,2.4-1,4.7-1.5,7.1c-3.9,18.3-7.9,37.3-15.4,53c-5.8,12.2-16.2,26.7-25.4,39.5c-4.8,6.7-9.3,13.1-13,18.7
	c-23.3,36-35.5,72.3-37.2,111c-1.7,38.8,7.8,80.7,16.2,117.6c0.6,2.8,1.3,5.6,1.9,8.3c5,22.2,8.4,45,11.6,67
	c2.6,17.4,2.2,29.2-7.1,41.8c-3.2,4.3-7.8,9.1-12.7,14.2c-12.6,13.1-26.9,28-27.4,44.9c-0.2,7.8,2.6,15.3,8.4,22.3
	c14.1,17,33.5,26.6,47.2,31.5c7.7,2.8,15.8,3.5,23.6,4.1c7.7,0.6,15.6,1.3,22.9,4c9.2,3.4,17.1,15.5,24.2,26.2
	c2.5,3.9,4.9,7.5,7.3,10.6c3.3,4.3,6.5,9,9.9,13.9c7.2,10.4,14.7,21.2,22.9,29.1c11,10.7,29.4,8.4,42.9,4.6
	c17.3-4.9,31.6-18.6,45.5-31.8l2.4-2.3c2.9-2.8,5.9-5.7,8.7-8.5c22.2-21.9,43.2-42.6,73.4-29.3c11.2,4.9,18.7,21.2,25.3,35.6
	c1.9,4.2,3.8,8.2,5.7,11.9c4.4,8.6,8.4,17.7,12.3,26.5c4.6,10.4,9.3,21.2,14.8,31.2c2.5,4.5,5.2,9,7.7,13.3c0.8,1.4,1.7,2.8,2.5,4.2
	L1997,754.2C1997,754.2,1997,754.2,1997,754.2z M1982.2,907.8c-29.5-80.2-84.3-128.5-150.5-132.5c-8-0.5-16.2-0.6-24.2-0.8
	c-29.6-0.6-60.1-1.2-86.7-17.5c-14.3-8.8-27-21.1-39.3-33c-15.4-14.9-31.4-30.3-50.6-39.1c-9.4-4.2-22.6-8.1-36.6-12.1
	c-38.8-11.2-87.1-25.2-97.9-58.7c-4.6-14.3-1.9-31.5,8.1-51.1c8.3-16.4,22-36.3,33-52.3c2-2.9,3.9-5.7,5.7-8.3
	c13.1-19.3,17.6-40.8,22.1-66.8c4.4-25.7,5.2-52.1,5.9-77.7c0.6-21.4,1.3-43.6,4.1-65.1c5.4-41,21.6-74.4,38.8-109.8
	c2.8-5.8,5.7-11.8,8.6-17.7c7.3-15.5,14.4-27.7,21.3-39.5c13.1-22.4,24.4-41.8,32.2-75c3.4-14.4,6.6-31.7,9.7-49.9h-3.2
	c-3,17.8-6.2,34.7-9.5,48.8c-7.7,32.5-18.8,51.6-31.7,73.8c-6.9,11.9-14.1,24.2-21.5,39.8c-2.8,5.9-5.7,11.9-8.5,17.7
	c-16.6,34.1-33.7,69.4-39.2,111.2c-2.8,21.8-3.5,44-4.1,65.6c-0.7,25.4-1.5,51.6-5.9,77c-4.5,26.4-8.7,46.5-21.4,65.1
	c-1.8,2.6-3.7,5.4-5.7,8.3c-11.1,16.1-24.9,36.2-33.3,52.8c-10.5,20.8-13.3,39.2-8.3,54.8c11.4,35.4,60.6,49.6,100.1,61.1
	c13.9,4,27.1,7.8,36.3,12c18.8,8.5,34.6,23.8,49.8,38.5c12.4,12,25.2,24.4,39.8,33.4c27.2,16.7,58.1,17.3,88,17.9
	c8,0.2,16.2,0.3,24.1,0.8c65,3.9,118.9,51.4,147.8,130.2c8.3,22.7,14.2,47.9,17.6,74.6v-21C1993.4,943.5,1988.5,924.9,1982.2,907.8z
	"/>
<path class="st0" d="M238.4,772.5c-5.3,18.2-14,33.7-21.7,46.6c-20.1,33.2-45.6,56.9-82.9,76.8c-0.1,0-0.1,0-0.2,0.1
	c-44.1,16.6-76.5,34.9-105,59.3C15.6,966.4,0.9,979-16.2,986c-1.5,0.6-3.1,1.2-4.6,1.7c-3.3,1.1-6.7,2-10.1,2.6v-3.2
	c5-1,9.6-2.4,13.6-4c16.7-6.9,31.2-19.3,44-30.3c28.8-24.7,61.4-43.1,105.8-59.8c37.3-19.9,61.7-42.5,81.8-75.7
	c7.7-12.7,16.2-28,21.4-45.9c4.6-15.8,1.7-30.9-1.3-46.8c-3.2-16.6-11.4-31.7-19.4-46.3c-0.6-1.2-1.3-2.3-1.9-3.5
	c-12.2-22.4-23.3-39.8-34.9-54.9c-11-14.2-22.8-27.9-34.3-41.2c-13.7-15.8-27.9-32.2-40.7-49.6c-11.2-15.2-22.2-28.8-32.9-42
	c-12.7-15.6-25.7-31.7-38.8-50.3c-20-28.3-33.5-53.7-39.3-93.5c-4.9-33.2-7.5-79-6.7-119.7c0.3-15.1-1.1-30.5-4.2-45.6
	c-1.3-6.6-4.6-22.8-12.1-33.7v-4.8c9.7,11.4,13.5,30.5,15,37.9c3.1,15.4,4.5,31,4.2,46.3c-0.7,40.5,1.8,86.1,6.7,119.1
	c5.8,39.3,18.6,63.5,38.8,92.1c13,18.5,26.1,34.5,38.7,50.1c10.7,13.2,21.7,26.8,33,42.1c12.7,17.3,26.8,33.6,40.5,49.4
	c11.5,13.3,23.4,27,34.4,41.3c11.7,15.2,22.9,32.7,35.2,55.3c0.6,1.2,1.3,2.3,1.9,3.5c8.1,14.8,16.5,30.1,19.8,47.2
	C240.3,740.5,243.3,756,238.4,772.5z M302,765.2c-2.1-19.3-9.2-39.3-20.1-56.4c0-0.1-0.1-0.1-0.1-0.2c-3.9-4.8-8-9.6-11.9-14.3
	c-10.3-12.2-21-24.9-30.3-38.3c-4-5.7-7.8-11.6-11.6-17.4c-8.5-12.9-17.2-26.2-27.5-38.2c-9.1-10.6-19.1-20.6-28.8-30.3
	c-5.9-5.9-12.1-12.1-17.9-18.3c-13.2-14-25.7-29-37.8-43.6c-2.2-2.7-4.4-5.3-6.6-8c-4.5-5.4-9-10.6-13.4-15.8
	c-23.4-27.4-45.5-53.2-58.5-88.8c-18-49.4-25.1-91.6-21.5-128.8c0.6-6,1.2-12.2,1.8-18.1c3.8-37.8,7.8-77,4.7-116.1
	c-1.8-22.6-10.6-52.1-30-67.1c-7.1-5.5-15-8.5-23.5-9v3.1c7.9,0.5,15.2,3.3,21.8,8.4C9.4,82.5,17.9,111,19.6,132.9
	c3,38.8-0.9,77.8-4.7,115.5c-0.6,5.9-1.2,12.1-1.8,18.1c-3.6,37.7,3.4,80.3,21.7,130.2c13.2,36.1,35.5,62.2,59.1,89.8
	c4.4,5.1,8.9,10.4,13.3,15.7c2.2,2.7,4.4,5.3,6.6,8c12.1,14.6,24.7,29.7,37.9,43.7c5.9,6.2,12,12.4,18,18.4
	c9.6,9.6,19.6,19.6,28.6,30.1c10.1,11.8,18.8,25,27.2,37.8c3.8,5.7,7.7,11.7,11.7,17.4c9.4,13.6,20.1,26.3,30.5,38.6
	c3.9,4.6,7.9,9.4,11.9,14.2c10.6,16.7,17.6,36.2,19.6,54.9c3.2,30.2-24.3,60.3-44.5,82.2c-2.2,2.4-4.2,4.6-6.1,6.7
	c-1.8,2-3.6,4.1-5.5,6.1c-12.4,14-25.3,28.4-40.3,39.6c-16.4,12.2-35.5,19.1-56.9,26.2c-4.9,1.7-10,3.3-14.9,4.8
	c-14.3,4.5-29.1,9.2-42.9,15.5c-18.8,8.5-33.5,21.7-49.1,35.6l-2.8,2.5C22.3,997,8,1009.8-9.6,1014.8c-7.1,2-14.3,3.6-21.4,4.6v3.1
	c7.4-1.1,14.9-2.6,22.3-4.8c0.8-0.2,1.7-0.5,2.5-0.8c17-5.6,30.9-18,44.3-30l2.8-2.5c15.4-13.8,30-26.8,48.4-35.1
	c13.7-6.2,28.4-10.9,42.6-15.4c4.9-1.6,10-3.2,15-4.8c21.7-7.2,41-14.2,57.7-26.6c15.2-11.3,28.2-25.9,40.7-39.9
	c1.8-2,3.6-4.1,5.4-6.1c1.9-2.1,3.9-4.3,6.1-6.7C277.2,827.5,305.3,796.8,302,765.2z M183.1,697.1c-3.3-13.3-9.2-33.3-14.8-45.9
	c-10.4-23.6-24.3-42.2-39.1-61.9c-6.5-8.6-13.2-17.6-19.6-27c-20-29.5-45.4-60.5-69.9-89.6C8,434.8-15.4,407-31,359v9
	c15.7,43.7,38.4,70.7,68.7,106.8c24.4,29,49.7,59.9,69.7,89.3c6.4,9.5,13.1,18.4,19.7,27.1c14.7,19.5,28.5,38,38.7,61.2
	c5.5,12.4,11.3,32.2,14.6,45.4c3.1,12.4,3.2,28.6,0.3,43.4c-2.2,11.3-5.8,22.6-9.3,33.5c-1.5,4.6-3,9.4-4.3,14.1
	c-13.2,44.9-50.2,65.9-85.9,86.3c-17.5,10-35.6,20.3-50.7,33.2c-1.5,1.3-3.1,2.6-4.6,4c-17.9,15.4-35,30.1-56.8,37.6v3.3
	c22.8-7.5,40.3-22.6,58.7-38.5c1.5-1.3,3.1-2.6,4.6-4c14.9-12.8,32.9-23,50.3-32.9c36.3-20.6,73.8-42,87.3-88
	c1.4-4.6,2.9-9.4,4.3-14c3.5-11,7.1-22.4,9.3-33.9C186.5,726.7,186.4,709.9,183.1,697.1z M144.8,668.9
	c-6.6-25.1-20.6-47.2-35.6-69.5c-4.3-6.4-8.7-13.1-12.9-19.4c-12.8-19.4-26-39.4-40.6-57.9c-13.3-16.9-28-33.3-42.2-49.1
	c-15-16.7-30.4-33.8-44.4-51.9v4.7c13.5,17.1,28.1,33.4,42.4,49.3c14.2,15.8,28.8,32.1,42.1,48.9c14.5,18.4,27.7,38.4,40.4,57.7
	c4.2,6.4,8.6,13,12.9,19.5c14.8,22,28.7,43.9,35.2,68.5c7.1,27,7.2,51,0.2,78c-3.7,14.1-8.3,28.6-14.6,45.3
	c-7.7,20.7-27.9,36.2-46.2,49.2c-7.4,5.2-15.1,10.3-22.5,15.3c-14.1,9.3-28.6,19-42,30c-1.7,1.4-3.4,2.8-5.1,4.2
	c-13.4,11.1-27.1,22.5-42.8,29.9v3.4c16.5-7.5,30.7-19.3,44.6-30.9c1.7-1.4,3.4-2.8,5.1-4.2c13.3-11,27.8-20.6,41.8-29.9
	c7.4-4.9,15.1-10,22.6-15.3c18.6-13.2,39.2-29,47.2-50.5c6.3-16.9,11-31.4,14.7-45.6C152.1,721,152.1,696.4,144.8,668.9z M81.4,600
	c-24.5-44.2-53.8-84.6-89.6-123.5c-7.1-7.7-14.7-15.4-22.8-23.1v4.1c7.4,7,14.2,14.1,20.8,21.1c35.6,38.7,64.8,78.9,89.1,122.9
	c25,45.1,33.8,84.7,27.8,124.8c-3.8,25.2-12.5,46-25.9,61.9c-13.4,15.9-30.4,28.2-46.9,40.1c-2.5,1.8-4.9,3.6-7.4,5.4
	c0,0-0.1,0-0.1,0.1c-6.6,5.7-13.2,11.9-19.5,18c-11.9,11.3-24.2,23-37.9,31.9v3.7c0.2-0.1,0.5-0.3,0.7-0.4
	c14.2-9.1,26.9-21.1,39.2-32.8c6.3-6,12.8-12.2,19.4-17.8c2.4-1.8,4.9-3.5,7.3-5.3c16.6-12,33.7-24.4,47.4-40.6
	c13.8-16.3,22.7-37.7,26.6-63.4C115.7,686.1,106.7,645.8,81.4,600z M76.5,687.1c-1.1-36.8-17-82.4-43.6-125.2
	C14.2,532-7.6,504.8-31,482.3v4.1c22.5,21.9,43.5,48.2,61.5,77.2c26.3,42.3,42.1,87.3,43.1,123.5c0.5,18.4-0.2,39.8-10.1,59
	c-9.3,18.2-24.9,31.3-39.8,43.9l-1.7,1.4c0,0-0.1,0.1-0.1,0.1c-6.5,6.7-12.9,13.9-19.2,20.9C-8.1,824.4-19,836.7-31,847.1v4.1
	c12.8-10.9,24.4-23.9,35.9-36.7c6.2-6.9,12.6-14.1,19-20.7l1.6-1.4c15.2-12.8,30.9-26,40.6-44.8C76.3,727.8,77.1,705.9,76.5,687.1z
	 M2.9,766.3c-2.1,2.6-4.3,5.2-6.4,7.9c-4.5,5.6-8.8,11.4-12.9,17c-4.8,6.5-9.6,12.9-14.6,19v-4.8c4.2-5.2,8.2-10.6,12.3-16.1
	c4.2-5.6,8.5-11.4,13-17.1c2.1-2.7,4.3-5.3,6.4-7.9c22.1-27,41.1-50.3,36.2-89.6C29.1,611.2,5,556-31,516.8v-4.3
	c37.6,39.8,62.7,96.5,70.8,161.8C44.8,714.9,24.5,739.9,2.9,766.3z M6.9,680.6C1,726.7-12.4,746.3-31,769v-4.8
	c17.1-21.1,29.4-40.7,35-84.1c4.7-36.6-7.4-87.9-35-128.3v-5.1C-1.4,588.3,11.7,642.4,6.9,680.6z M-31,696.1v-13.6
	c2.8-15.5,3.6-31.4,2.9-43.9c-0.4-7.5-1.4-14.9-2.9-22v-11.9c3.2,10.8,5.1,22.2,5.8,33.8C-24.3,654.7-25.9,676.7-31,696.1z"/>
</svg>
