<?xml version="1.0" encoding="utf-8"?>
<!-- Generator: Adobe Illustrator 26.1.0, SVG Export Plug-In . SVG Version: 6.00 Build 0)  -->
<svg version="1.1" id="Layer_1" xmlns="http://www.w3.org/2000/svg" xmlns:xlink="http://www.w3.org/1999/xlink" x="0px" y="0px"
	 viewBox="0 0 348 1008" style="enable-background:new 0 0 348 1008;" xml:space="preserve">
<style type="text/css">
	.st0{fill:#333333;}
</style>
<path class="st0" d="M272.4,744.5c-5.3,18.2-14,33.7-21.7,46.6c-20.1,33.2-45.6,56.9-82.9,76.8c-0.1,0-0.1,0-0.2,0.1
	c-44.1,16.6-76.5,34.9-105,59.3c-13,11.1-27.7,23.7-44.8,30.7c-1.5,0.6-3.1,1.2-4.6,1.7c-3.3,1.1-6.7,2-10.1,2.6v-3.2
	c5-1,9.6-2.4,13.6-4c16.7-6.9,31.2-19.3,44-30.3c28.8-24.7,61.4-43.1,105.8-59.8c37.3-19.9,61.7-42.5,81.8-75.7
	c7.7-12.7,16.2-28,21.4-45.9c4.6-15.8,1.7-30.9-1.3-46.8c-3.2-16.6-11.4-31.7-19.4-46.3c-0.6-1.2-1.3-2.3-1.9-3.5
	c-12.2-22.4-23.3-39.8-34.9-54.9c-11-14.2-22.8-27.9-34.3-41.2c-13.7-15.8-27.9-32.2-40.7-49.6c-11.2-15.2-22.2-28.8-32.9-42
	c-12.7-15.6-25.7-31.7-38.8-50.3c-20-28.3-33.5-53.7-39.3-93.5c-4.9-33.2-7.5-79-6.7-119.7c0.3-15.1-1.1-30.5-4.2-45.6
	c-1.3-6.6-4.6-22.8-12.1-33.7v-4.8c9.7,11.4,13.5,30.5,15,37.9c3.1,15.4,4.5,31,4.2,46.3c-0.7,40.5,1.8,86.1,6.7,119.1
	c5.8,39.3,18.6,63.5,38.8,92.1c13,18.5,26.1,34.5,38.7,50.1c10.7,13.2,21.7,26.8,33,42.1c12.7,17.3,26.8,33.6,40.5,49.4
	c11.5,13.3,23.4,27,34.4,41.3c11.7,15.2,22.9,32.7,35.2,55.3c0.6,1.2,1.3,2.3,1.9,3.5c8.1,14.8,16.5,30.1,19.8,47.2
	C274.3,712.5,277.3,728,272.4,744.5z M336,737.2c-2.1-19.3-9.2-39.3-20.1-56.4c0-0.1-0.1-0.1-0.1-0.2c-3.9-4.8-8-9.6-11.9-14.3
	c-10.3-12.2-21-24.9-30.3-38.3c-4-5.7-7.8-11.6-11.6-17.4c-8.5-12.9-17.2-26.2-27.5-38.2c-9.1-10.6-19.1-20.6-28.8-30.3
	c-5.9-5.9-12.1-12.1-17.9-18.3c-13.2-14-25.7-29-37.8-43.6c-2.2-2.7-4.4-5.3-6.6-8c-4.5-5.4-9-10.6-13.4-15.8
	c-23.4-27.4-45.5-53.2-58.5-88.8c-18-49.4-25.1-91.6-21.5-128.8c0.6-6,1.2-12.2,1.8-18.1c3.8-37.8,7.8-77,4.7-116.1
	c-1.8-22.6-10.6-52.1-30-67.1c-7.1-5.5-15-8.5-23.5-9v3.1c7.9,0.5,15.2,3.3,21.8,8.4C43.4,54.5,51.9,83,53.6,104.9
	c3,38.8-0.9,77.8-4.7,115.5c-0.6,5.9-1.2,12.1-1.8,18.1c-3.6,37.7,3.4,80.3,21.7,130.2c13.2,36.1,35.5,62.2,59.1,89.8
	c4.4,5.1,8.9,10.4,13.3,15.7c2.2,2.7,4.4,5.3,6.6,8c12.1,14.6,24.7,29.7,37.9,43.7c5.9,6.2,12,12.4,18,18.4
	c9.6,9.6,19.6,19.6,28.6,30.1c10.1,11.8,18.8,25,27.2,37.8c3.8,5.7,7.7,11.7,11.7,17.4c9.4,13.6,20.1,26.3,30.5,38.6
	c3.9,4.6,7.9,9.4,11.9,14.2c10.6,16.7,17.6,36.2,19.6,54.9c3.2,30.2-24.3,60.3-44.5,82.2c-2.2,2.4-4.2,4.6-6.1,6.7
	c-1.8,2-3.6,4.1-5.5,6.1c-12.4,14-25.3,28.4-40.3,39.6c-16.4,12.2-35.5,19.1-56.9,26.2c-4.9,1.7-10,3.3-14.9,4.8
	c-14.3,4.5-29.1,9.2-42.9,15.5c-18.8,8.5-33.5,21.7-49.1,35.6l-2.8,2.5C56.3,969,42,981.8,24.4,986.8c-7.1,2-14.3,3.6-21.4,4.6v3.1
	c7.4-1.1,14.9-2.6,22.3-4.8c0.8-0.2,1.7-0.5,2.5-0.8c17-5.6,30.9-18,44.3-30l2.8-2.5c15.4-13.8,30-26.8,48.4-35.1
	c13.7-6.2,28.4-10.9,42.6-15.4c4.9-1.6,10-3.2,15-4.8c21.7-7.2,41-14.2,57.7-26.6c15.2-11.3,28.2-25.9,40.7-39.9
	c1.8-2,3.6-4.1,5.4-6.1c1.9-2.1,3.9-4.3,6.1-6.7C311.2,799.5,339.3,768.8,336,737.2z M217.1,669.1c-3.3-13.3-9.2-33.3-14.8-45.9
	c-10.4-23.6-24.3-42.2-39.1-61.9c-6.5-8.6-13.2-17.6-19.6-27c-20-29.5-45.4-60.5-69.9-89.6C42,406.8,18.6,379,3,331v9
	c15.7,43.7,38.4,70.7,68.7,106.8c24.4,29,49.7,59.9,69.7,89.3c6.4,9.5,13.1,18.4,19.7,27.1c14.7,19.5,28.5,38,38.7,61.2
	c5.5,12.4,11.3,32.2,14.6,45.4c3.1,12.4,3.2,28.6,0.3,43.4c-2.2,11.3-5.8,22.6-9.3,33.5c-1.5,4.6-3,9.4-4.3,14.1
	c-13.2,44.9-50.2,65.9-85.9,86.3c-17.5,10-35.6,20.3-50.7,33.2c-1.5,1.3-3.1,2.6-4.6,4c-17.9,15.4-35,30.1-56.8,37.6v3.3
	c22.8-7.5,40.3-22.6,58.7-38.5c1.5-1.3,3.1-2.6,4.6-4c14.9-12.8,32.9-23,50.3-32.9c36.3-20.6,73.8-42,87.3-88
	c1.4-4.6,2.9-9.4,4.3-14c3.5-11,7.1-22.4,9.3-33.9C220.5,698.7,220.4,681.9,217.1,669.1z M178.8,640.9
	c-6.6-25.1-20.6-47.2-35.6-69.5c-4.3-6.4-8.7-13.1-12.9-19.4c-12.8-19.4-26-39.4-40.6-57.9c-13.3-16.9-28-33.3-42.2-49.1
	C32.4,428.2,17.1,411.1,3,393v4.7c13.5,17.1,28.1,33.4,42.4,49.3c14.2,15.8,28.8,32.1,42.1,48.9c14.5,18.4,27.7,38.4,40.4,57.7
	c4.2,6.4,8.6,13,12.9,19.5c14.8,22,28.7,43.9,35.2,68.5c7.1,27,7.2,51,0.2,78c-3.7,14.1-8.3,28.6-14.6,45.3
	c-7.7,20.7-27.9,36.2-46.2,49.2c-7.4,5.2-15.1,10.3-22.5,15.3c-14.1,9.3-28.6,19-42,30c-1.7,1.4-3.4,2.8-5.1,4.2
	C32.4,874.7,18.7,886.1,3,893.5v3.4c16.5-7.5,30.7-19.3,44.6-30.9c1.7-1.4,3.4-2.8,5.1-4.2c13.3-11,27.8-20.6,41.8-29.9
	c7.4-4.9,15.1-10,22.6-15.3c18.6-13.2,39.2-29,47.2-50.5c6.3-16.9,11-31.4,14.7-45.6C186.1,693,186.1,668.4,178.8,640.9z M115.4,572
	c-24.5-44.2-53.8-84.6-89.6-123.5c-7.1-7.7-14.7-15.4-22.8-23.1v4.1c7.4,7,14.2,14.1,20.8,21.1c35.6,38.7,64.8,78.9,89.1,122.9
	c25,45.1,33.8,84.7,27.8,124.8c-3.8,25.2-12.5,46-25.9,61.9c-13.4,15.9-30.4,28.2-46.9,40.1c-2.5,1.8-4.9,3.6-7.4,5.4
	c0,0-0.1,0-0.1,0.1c-6.6,5.7-13.2,11.9-19.5,18C29,835.1,16.7,846.8,3,855.7v3.7c0.2-0.1,0.5-0.3,0.7-0.4
	c14.2-9.1,26.9-21.1,39.2-32.8c6.3-6,12.8-12.2,19.4-17.8c2.4-1.8,4.9-3.5,7.3-5.3c16.6-12,33.7-24.4,47.4-40.6
	c13.8-16.3,22.7-37.7,26.6-63.4C149.7,658.1,140.7,617.8,115.4,572z M110.5,659.1c-1.1-36.8-17-82.4-43.6-125.2
	C48.2,504,26.4,476.8,3,454.3v4.1c22.5,21.9,43.5,48.2,61.5,77.2c26.3,42.3,42.1,87.3,43.1,123.5c0.5,18.4-0.2,39.8-10.1,59
	c-9.3,18.2-24.9,31.3-39.8,43.9l-1.7,1.4c0,0-0.1,0.1-0.1,0.1c-6.5,6.7-12.9,13.9-19.2,20.9C25.9,796.4,15,808.7,3,819.1v4.1
	c12.8-10.9,24.4-23.9,35.9-36.7c6.2-6.9,12.6-14.1,19-20.7l1.6-1.4c15.2-12.8,30.9-26,40.6-44.8
	C110.3,699.8,111.1,677.9,110.5,659.1z M36.9,738.3c-2.1,2.6-4.3,5.2-6.4,7.9c-4.5,5.6-8.8,11.4-12.9,17C12.8,769.6,8,776,3,782.1
	v-4.8c4.2-5.2,8.2-10.6,12.3-16.1c4.2-5.6,8.5-11.4,13-17.1c2.1-2.7,4.3-5.3,6.4-7.9c22.1-27,41.1-50.3,36.2-89.6
	C63.1,583.2,39,528,3,488.8v-4.3c37.6,39.8,62.7,96.5,70.8,161.8C78.8,686.9,58.5,711.9,36.9,738.3z M40.9,652.6
	C35,698.7,21.6,718.3,3,741v-4.8c17.1-21.1,29.4-40.7,35-84.1c4.7-36.6-7.4-87.9-35-128.3v-5.1C32.6,560.3,45.7,614.4,40.9,652.6z
	 M3,668.1v-13.6c2.8-15.5,3.6-31.4,2.9-43.9c-0.4-7.5-1.4-14.9-2.9-22v-11.9c3.2,10.8,5.1,22.2,5.8,33.8
	C9.7,626.7,8.1,648.7,3,668.1z"/>
</svg>
