<?xml version="1.0" encoding="utf-8"?>
<!-- Generator: Adobe Illustrator 26.0.1, SVG Export Plug-In . SVG Version: 6.00 Build 0)  -->
<svg version="1.1" id="Layer_2_00000170974266327635164280000011725239186137535918_"
	 xmlns="http://www.w3.org/2000/svg" xmlns:xlink="http://www.w3.org/1999/xlink" x="0px" y="0px" viewBox="0 0 2000 1300"
	 style="enable-background:new 0 0 2000 1300;" xml:space="preserve">
<style type="text/css">
	.st0{opacity:0.1;fill:none;stroke:#000000;stroke-width:1.1741;stroke-miterlimit:10;}
	.st1{opacity:0.1;}
	.st2{fill:none;stroke:#000000;stroke-width:1.1758;stroke-miterlimit:10;}
</style>
<path class="st0" d="M216,1022.3v-0.1"/>
<g class="st1">
	<path class="st2" d="M1873.7,4.3c0.4,158.3,0.9,273,1.3,431.4c-0.4,166.6-137,303.8-303.4,304.3c-166.1,0.4-303.6-136.1-304.6-303
		c0.4-158.9,0.9-273.9,1.3-432.8"/>
	<path class="st2" d="M1273.1,1299.4c-0.4-158.3-0.9-273-1.3-431.4c0.4-166.6,137-303.8,303.4-304.3
		c166.1-0.4,303.6,136.1,304.6,303c-0.4,158.9-0.9,273.9-1.3,432.8"/>
</g>
<g class="st1">
	<path class="st2" d="M726.5,4.3c0.4,158.3,0.9,273,1.3,431.4c-0.4,166.6-137,303.8-303.4,304.3c-166.1,0.4-303.6-136.1-304.6-303
		c0.4-158.9,0.9-273.9,1.3-432.8"/>
	<path class="st2" d="M126,1299.4c-0.4-158.3-0.9-273-1.3-431.4c0.4-166.6,137-303.8,303.4-304.3c166.1-0.4,303.6,136.1,304.6,303
		c-0.4,158.9-0.9,273.9-1.3,432.8"/>
</g>
</svg>
