<?xml version="1.0" encoding="utf-8"?>
<!-- Generator: Adobe Illustrator 26.1.0, SVG Export Plug-In . SVG Version: 6.00 Build 0)  -->
<svg version="1.1" id="Layer_1" xmlns="http://www.w3.org/2000/svg" xmlns:xlink="http://www.w3.org/1999/xlink" x="0px" y="0px"
	 viewBox="0 0 578 717.2" style="enable-background:new 0 0 578 717.2;" xml:space="preserve">
<style type="text/css">
	.st0{fill:#FFFF00;}
	.st1{fill:#0000FF;}
</style>
<path class="st0" d="M262,17.6c141.6,0.3,258,116.7,258.3,258.3c-0.4,134.4-0.7,240.9-1.1,375.3L3.6,651.3
	C3.2,516.5,2.9,409.7,2.5,274.9C3.4,133.2,120.4,17.3,262,17.6"/>
<path class="st1" d="M100.3,365.8C-21.2,397.2,8,679.8,8,679.8c35.4,0,0.9-26.7,31.8-33.8c30.9-7,23.6-10.2,23.6-37.7
	S82.5,591,82.5,591c0,141.5,101.8,107.6,101.8,107.6s195.2,0,314.1,0c111.9,0,67.9-306.3,62.3-342.5c-9.1,9-23.8,14.5-38.1,15
	c-3.3,5.3-20.7,32.2-46.4,60.5c-26.4,29.1-67.2,65.7-111.6,75l-0.5-2.2l0,0l0,0l-0.5-2.2c0.3-0.1,0.6-0.1,0.9-0.2
	c3.2-15.9,19.7-109-5.9-187.1c-28.2-85.7-306-21.2-306-21.2c0-40.9-50.1-38.5-50.1-38.5s0,59.8,0,92.8
	C2.5,371.6,66.7,369.1,100.3,365.8z M132.2,661.6c0.2-14,19.4-26.9,20.2-27.4l0.1-0.1c1.1-0.7,111.9-63,185.2-63
	c69.1,0,104.8-21.8,122.6-40.1c19.2-19.8,22.2-39.8,22.2-40l4.4,0.6c-0.1,0.9-3.1,21.5-23.2,42.3c-18.3,19-55.1,41.7-126,41.7
	c-71.3,0-179.5,60.4-182.9,62.3c-1.2,0.8-18,12.4-18.2,23.7c0,3.6,1.6,6.7,5,9.6l6.9-7.1c2.6-3.2,5.2-5.4,5.4-5.6l3,3.3l-5.2,5.4
	c-2.3,3-4.6,6.9-4.5,10.6c0.1,2.1,1,4,2.8,5.7l16.7-17.4l3.4,2.9c-0.1,0.2-8.2,11.3-6.9,19.6c0.3,1.8,1,3.3,2.1,4.5l16.2-16.8
	c0.1-0.1,0.3-0.3,0.3-0.3l3.2,3.1l-0.5,0.5c-1.7,1.9-5,6.3-4.7,10.2c0.1,1.4,0.6,2.5,1.6,3.6l20.6-21.5l3.2,3.1l-23.4,24.4l-1.6-1.1
	c-3-2.2-4.6-4.9-4.9-8.1c0-0.4,0-0.7,0-1l-9.6,10l-1.6-1.1c-2.9-2.2-4.7-5.1-5.3-8.7c-0.5-3.1,0-6.3,0.9-9.4l-9.2,9.6l-1.6-1.1
	c-3.9-2.8-6-6.3-6.1-10.4c0-0.5,0-0.9,0-1.4l-0.7,0.7l-1.6-1.1C134.9,672.2,132,667.3,132.2,661.6z M217.2,365.3h-90.1v-4.5h98
	L84.4,592.1l-3.8-2.3L217.2,365.3z M520.5,366.8c-20.2,0-41.8-13.1-41.8-32.5c0-9.9,4.1-19.6,11.3-26.7c8.3-8.2,20.1-12.4,34-12.2
	c20.2,0.3,41.5,20.9,41.5,40.2C565.5,354,541.8,366.8,520.5,366.8z M523.1,290.8c-18.6,0-29.9,7.3-36.2,13.5
	c-8,7.9-12.6,18.8-12.6,29.9c0,21,21.7,35.4,43,36.8c-9.4,14.4-50,73.7-101.9,108.2c14.6-13.7,26.9-34.8,27.6-66.8
	c2.1-94.4,23.6-144.7-247.9-144.7l-34.6,0.2c0-10.3,15.4-10.8,17.6-10.8h-27.8c0-13.4,27.1-16.3,27.1-16.3h-28.5
	c0-10.1,10.7-12.7,18.5-13.3h-13c0-24.8,41.5-16.6,41.5-16.6v0.1c19.5-2.7,351.4-46.2,351.4,87.4c0,0,0.2,0.2,0.5,0.5
	c-7.3-4.8-15.6-7.9-23.8-8C523.7,290.9,523.4,290.9,523.1,290.8z"/>
</svg>
