<?xml version="1.0" encoding="utf-8"?>
<!-- Generator: Adobe Illustrator 26.1.0, SVG Export Plug-In . SVG Version: 6.00 Build 0)  -->
<svg version="1.1" id="Layer_1" xmlns="http://www.w3.org/2000/svg" xmlns:xlink="http://www.w3.org/1999/xlink" x="0px" y="0px"
	 viewBox="0 0 945 458" style="enable-background:new 0 0 945 458;" xml:space="preserve">
<style type="text/css">
	.st0{fill:#00FFFF;}
</style>
<path class="st0" d="M667.1,204h-3.2c0,0.8,0,85.4-68.9,154.7c-60.9,61.3-155.4,92.4-280.7,92.4c-0.6,0-1.2,0-1.7,0h-226
	c1.1-6.6,6.9-30.1,37.8-30.8c14.2-0.3,81.5-9.7,159.4-26.4c68.1-14.6,161.8-38.7,222-70.2c2.8-1.5,68.3-36.8,76.5-73.5l-3.1-0.7
	c-7.1,32-62.5,64.5-73.1,70.4c-3.5-4.6-5.9-10.8-7-18.3c-1.7-11.6,0.2-21.1,5.5-28.1c9-12,25.7-14.2,33.7-15.3
	c1.9-0.3,3.2-0.4,3.9-0.7c5.7-1.9,11.1-13,21.5-64.2c0.7-3.6,1.7-7.4,2.8-11.2L566,182l0.4-0.3c14.3-50,60.7-121.7,116.9-150.3
	C743.6,0.7,800.7,12,866.4,12s77.5,37.7,77.5,37.7v137.8c0,46.8-60.3,70.5-60.3,70.5c-128.2,46.3-96.9,45.2-96.9,45.2
	s85.6-19.4,118.5-29.6C938,263.4,945,286,945,286v136.4c-15.7-11.3-11.4-27.3-11.4-27.5l0.8-3l-49.8,18.6
	c-129.5,57.1-203.5,24.6-208.5,22.3c-24.9-28.7-35.9-61.6-32.6-98c9.5-104.5,133.9-204.6,135.1-205.6l-2-2.5
	c-0.3,0.3-32,25.6-64.5,63.7c-30,35.2-66.8,88.8-71.9,144.1c-3.3,36.7,7.6,70,32.3,99.1c-0.6-0.2-1.3-0.4-1.9-0.7
	c-44-16.7-49.7-67.5-48.1-102.5C667.1,268.1,667.1,204.7,667.1,204z M560.6,192.9c0.5-2.6,1.2-5.4,2-8.2l-117.7,86.6l-14.1,10.8
	c-112.5,58.8-351.5,95.8-380.7,96.4c-37.2,0.8-39.6,33.9-39.6,33.9h155.6c80.6-12,249.1-45.2,337.1-90.8c-3.7-5-6.1-11.5-7.3-19.4
	c-1.8-12.5,0.2-22.7,6.1-30.5c9.8-13,28-15.4,35.8-16.5c1.5-0.2,2.9-0.4,3.4-0.5C546.2,253,552.2,234,560.6,192.9z"/>
</svg>
