<?xml version="1.0" encoding="utf-8"?>
<!-- Generator: Adobe Illustrator 26.0.1, SVG Export Plug-In . SVG Version: 6.00 Build 0)  -->
<svg version="1.1" id="Layer_1" xmlns="http://www.w3.org/2000/svg" xmlns:xlink="http://www.w3.org/1999/xlink" x="0px" y="0px"
	 viewBox="0 0 494.8 355.9" style="enable-background:new 0 0 494.8 355.9;" xml:space="preserve">
<style type="text/css">
	.st0{fill:#FF00FF;}
	.st1{fill:none;}
	.st2{fill:#00FFFF;}
</style>
<path class="st0" d="M441.4,32.4h3.6C442.9,32.3,441.4,32.4,441.4,32.4z"/>
<path class="st1" d="M441.4,32.4h3.6C442.9,32.3,441.4,32.4,441.4,32.4z"/>
<path class="st2" d="M116,160.2c-4.3-4.4-5.3-10.4-5.5-12.9c13.5-1.4,27.9-3.5,41.6-5.7c-1,6.9-5,23.8-21.5,23.8
	C124.3,165.5,119.4,163.7,116,160.2z M205.6,272c16.3-18.1,21-18.6,23.5-16.7c5.1,3.9-4.4,19.2-6.4,22.2
	c-8.9,13.7-29.8,56.6-24.5,71.8c0.7,2.1,2,3.5,3.7,4.1h51.6c0-1.9-0.4-5.1-2.6-7.9c-2.8-3.4-7.7-5.3-14.6-5.5l-3.8-0.1l29.4-40.3
	l-1.2-0.1c65-78.5,30.6-102.1,17-107.9L50.4,249.1L50,247c-0.3-1.4-0.2-3.6,0.9-5.7l-9.6,1.9l0-2.4c0-0.1,0-5,3.6-9.4l-7.5,1.5
	l-0.4-1.9c-0.1-0.3-0.7-3.3,1.4-6.8c0.2-0.3,0.3-0.5,0.5-0.8l-0.7-0.6c-1-0.9-2.4-3.2-1.6-6.5c2.1-9.2,19.8-18.9,52.6-28.9l128-33.3
	l1,3.9L90.5,191.4c-42.2,12.8-48.9,22.3-49.8,25.8c-0.2,0.8-0.1,1.5,0,1.9l10.6-2.5c0.1,0,0.3-0.1,0.4-0.1l0.9,3.9l-0.4,0.1
	c-5.1,1.2-8.7,3.3-10.3,5.9c-0.4,0.6-0.6,1.2-0.8,1.7l14.8-3l0.8,3.9c-7.6,1.7-10.2,6.3-11,9.3l14-2.8l0.8,3.9c-4.4,1-5.9,3-6.5,4.6
	l222.8-56.3c6.1-4.1,17.3-13.7,17.3-29.9c0-22.2-39.6-35.5-89.9-25.5c0.2-0.1,0.3-0.1,0.5-0.2c-11.4,2.3-29.2,5.7-48.7,8.9
	c-0.8,6.8-5.1,28.5-25.6,28.5c-7.4,0-13.2-2.2-17.5-6.5c-5.2-5.2-6.4-12.1-6.7-15.3c-10.5,1-20.4,1.7-28.9,1.7
	c-3.6,0-6.9-0.1-9.9-0.4l0.3-4c33.4,2.7,108.1-11.4,137.1-17.2c0.2-0.2,0.4-0.4,0.8-0.5c66.8-20.9,248.2-60.8,248.2-60.8
	c0-7.1-13.8-8.4-13.8-8.4h20.4c0-10.5-18.6-12-18.6-12h19.1c0-9.5-9.6-11.4-15-11.7h-3.6c0,0,1.5-0.1,3.6,0h10.7
	c0-21.7-82.1-7.1-106.8-2.2c-4.7,0.9-9.6,1.4-14.4,1.3c-384.4-4.5-333,197.6-329.4,259c3.6,61.8,43.9,63.3,43.9,63.3s8.3,0,22.4,0
	C74,355.3,161.2,321.3,205.6,272z M194.5,350.6c-5.9-16.7,15.4-60.6,24.9-75.2c5.4-8.4,7.5-14.9,7.3-16.7c-1.1,0.3-5.6,2.2-18,16.1
	c-36.6,40.7-101.7,71-125.6,81.2c27.9,0,70.5,0,115.2-0.1C196.5,354.6,195.3,352.9,194.5,350.6z M470.3,318.6l-203.8-18.5
	l-26.4,36.1c6.3,0.8,11,3,14,6.7c4.5,5.6,3.4,12.4,3.3,12.7l0,0c49.9-0.1,95.4-0.2,118-0.4c65.9-0.5,119.4-11.2,119.4-11.2v-54.6
	C471.3,289.5,470.3,318.6,470.3,318.6z"/>
</svg>
