<?xml version="1.0" encoding="utf-8"?>
<!-- Generator: Adobe Illustrator 26.0.1, SVG Export Plug-In . SVG Version: 6.00 Build 0)  -->
<svg version="1.1" id="Layer_1" xmlns="http://www.w3.org/2000/svg" xmlns:xlink="http://www.w3.org/1999/xlink" x="0px" y="0px"
	 viewBox="0 0 658 450.6" style="enable-background:new 0 0 658 450.6;" xml:space="preserve">
<path d="M352.1,420.5l36.8-54.5l228.6,27.5c0,0,12.9-44.3,37.6-44.3V432c0,0,2.4,15.9-67.6,15.9c-28,0-114.9,0.1-209,0.3
	c0.3-3.2,0.2-10.9-5.2-17.6C368.9,425,361.7,421.6,352.1,420.5z M1.9,361.1c0,85.7,58.2,88.9,74.8,88c4.6-0.2,9.1-0.4,13.7-0.4
	c1.3,0,2.7,0,4.2,0c5.9,0,11.7-1.2,17.1-3.5c33.8-14.4,133.4-60.1,188.7-121.5c24.5-27.3,31.7-28,35.4-25.2
	c7.6,5.8-6.7,28.9-9.6,33.4c-13.3,20.7-45.1,87.4-37.1,110.2c1.1,3.2,3,5.2,5.6,6.2h77.6c0-2.9-0.3-10-3.7-14.1
	c-4.2-5.2-11.6-8-22-8.3l-5.5-0.2l41-60.8l3.4-4.2c77.9-80.8,47.5-138.2,32.4-157.8c1.3,44.2-4.3,72.2-16.2,81.3
	c-5.6,4.3-10.5,2.8-11.1,2.6l-1.8-0.6c-0.2,0.3-0.5,0.6-0.7,1c-3.8,4.7-8.4,5.4-8.9,5.4l-2.9,0.3l-1.6-11.4
	c-4.5,7.3-11.4,9.9-11.5,9.9l-3.5,1.2l-2.1-14.6c-2.4,2.6-5.4,3.9-7.6,4.2l-2.8,0.4l-7.7-40.3c0-0.3-1.2-6.8-3.2-16.9L66.8,289.1
	l-0.6-3c-0.4-2.2-0.3-5.4,1.4-8.6l-14.4,2.9l0-3.7c0-0.1,0.1-7.5,5.4-14.2l-11.2,2.3l-0.7-2.8c-0.1-0.5-1.1-5,2.1-10.2
	c0.3-0.4,0.5-0.8,0.8-1.2l-1-0.9c-1.4-1.3-3.6-4.9-2.5-9.7c3.2-13.8,29.9-28.4,79.4-43.5l190.3-49.4c-4.3-11.7-9-21.9-14-28.7
	c-12.2,2.1-83.4,14-144.8,18.9c0.2,5.3,1.6,16.6,8.8,24.1c4.8,5.1,11.5,7.6,19.9,7.6c30.6,0,33.3-35.1,33.4-36.6l6,0.4
	c0,0.4-3.2,42.3-39.4,42.3c-10.2,0-18.4-3.2-24.3-9.5c-8.4-8.9-10.1-21.5-10.4-27.8c-22.1,1.6-42.6,2.2-58.2,0.9l0.5-6
	c62.9,5,207.9-20.2,209.3-20.5l1.8-0.3l1.1,1.4c23.3,29,39.4,124.4,40.1,128.4l6.5,33.8c2.1-1.5,4.5-4.7,3.6-11.8l6-0.8l3.1,21.3
	c3.8-2.7,9.1-8.6,7.6-20.3l6-0.8l3.2,22.6c2.8-2,6.5-7,5.1-19.5l-0.1-0.6l6-0.7c0,0,0,0,0,0l1.9,16.5c1-0.2,2.4-0.7,4-1.9
	c6.1-4.9,15.9-22.4,13.3-83.4c-0.1-0.1-0.2-0.2-0.2-0.2s0.1-0.5,0.1-1.6c0-0.3,0-0.5,0-0.8l0.1,0c0.2-8.3-0.7-38.8-18.6-109.8
	C371.6-1.7,187.9,5.2,84.1,51.4C-19.7,97.5,1.9,261.2,1.9,361.1z M68.8,240.8l1.2,5.3l-0.6,0.1c-12.3,2.9-15.8,8.1-16.7,11.4
	l22.4-4.6l1.2,5.9c-11.5,2.5-15.3,9.6-16.6,14l21.1-4.3l1.3,5.9c-6.6,1.5-9,4.6-9.8,7.1l262.9-61.8c-3.8-18.4-9.8-44.7-17.4-67
	l-190.7,49.5c-63.6,19.3-73.7,33.6-75.1,38.8c-0.3,1.3-0.2,2.2,0,2.9l16-3.7C68.4,240.5,68.6,240.6,68.8,240.8z M118.9,448.7
	c38.1-0.1,100.9-0.2,168.6-0.3c-1.7-1.7-3-3.8-3.9-6.4c-8.8-25.1,23.2-91.2,37.5-113.3c8.2-12.7,11.2-22.4,10.9-25.2
	c-1.7,0.4-8.4,3.3-27.2,24.2C251.3,387.3,157,432.1,118.9,448.7z"/>
</svg>
