<?xml version="1.0" encoding="utf-8"?>
<!-- Generator: Adobe Illustrator 26.0.1, SVG Export Plug-In . SVG Version: 6.00 Build 0)  -->
<svg version="1.1" id="Layer_1" xmlns="http://www.w3.org/2000/svg" xmlns:xlink="http://www.w3.org/1999/xlink" x="0px" y="0px"
	 viewBox="0 0 485 947" style="enable-background:new 0 0 485 947;" xml:space="preserve">
<style type="text/css">
	.st0{fill:#00FFFF;}
</style>
<path class="st0" d="M268.4,669.1l0-3.2c-0.8,0-85.4,0-154.7-68.9c-61.3-60.9-92.4-155.4-92.4-280.7c0-0.6,0-1.2,0-1.7v-226
	c6.6,1.1,30.1,6.9,30.8,37.8c0.3,14.2,9.7,81.5,26.4,159.4c14.6,68.1,38.7,161.8,70.2,222c1.5,2.8,36.8,68.3,73.5,76.5l0.7-3.1
	c-32-7.1-64.5-62.5-70.4-73.1c4.6-3.5,10.8-5.9,18.3-7c11.6-1.7,21.1,0.2,28.1,5.5c12,9,14.2,25.7,15.3,33.7
	c0.3,1.9,0.4,3.2,0.7,3.9c1.9,5.7,13,11.1,64.2,21.5c3.6,0.7,7.4,1.7,11.2,2.8l0.1-0.5l0.3,0.4c50.2,14.3,121.8,60.7,150.5,116.9
	c30.7,60.3,19.4,117.4,19.4,183.1c0,65.7-37.7,77.5-37.7,77.5H284.8c-46.8,0-70.5-60.3-70.5-60.3c-46.3-128.2-45.2-96.9-45.2-96.9
	s19.4,85.6,29.6,118.5c10.2,32.8-12.4,39.8-12.4,39.8H49.9c11.3-15.7,27.3-11.4,27.5-11.4l3,0.8l-18.6-49.8
	C4.7,757.1,37.1,683.2,39.5,678.2c28.7-24.9,61.6-35.9,98-32.6C241.9,655.1,342,779.5,343,780.8l2.5-2c-0.3-0.3-25.6-32-63.7-64.5
	c-35.2-30-88.8-66.8-144.1-71.9c-36.7-3.3-70,7.6-99.1,32.3c0.2-0.6,0.4-1.3,0.7-1.9c16.7-44,67.5-49.7,102.5-48.1
	C204.2,669.1,267.6,669.1,268.4,669.1z M279.4,562.6c2.6,0.5,5.4,1.2,8.2,2l-86.6-117.7l-10.8-14.1C131.5,320.3,94.5,81.3,93.9,52.1
	C93.1,14.9,60,12.5,60,12.5v155.6c12,80.6,45.2,249.1,90.8,337.1c5-3.7,11.5-6.1,19.4-7.3c12.5-1.8,22.7,0.2,30.5,6.1
	c13,9.8,15.4,28,16.5,35.8c0.2,1.5,0.4,2.9,0.5,3.4C219.3,548.2,238.4,554.2,279.4,562.6z"/>
</svg>
