<?xml version="1.0" encoding="utf-8"?>
<!-- Generator: Adobe Illustrator 26.0.1, SVG Export Plug-In . SVG Version: 6.00 Build 0)  -->
<svg version="1.1" id="Layer_1" xmlns="http://www.w3.org/2000/svg" xmlns:xlink="http://www.w3.org/1999/xlink" x="0px" y="0px"
	 viewBox="0 0 658 453.7" style="enable-background:new 0 0 658 453.7;" xml:space="preserve">
<style type="text/css">
	.st0{fill:#FF00FF;}
</style>
<path class="st0" d="M175.5,163.9c-6.4-6.4-7.9-15.3-8.2-19.1c20-2.1,41.3-5.2,61.6-8.4c-1.4,10.2-7.4,35.3-31.8,35.3
	C187.9,171.6,180.6,169,175.5,163.9z M308.2,329.4c24.1-26.8,31.2-27.6,34.8-24.8c7.5,5.7-6.6,28.4-9.5,32.9
	c-13.1,20.3-44.1,83.8-36.3,106.3c1.1,3.1,2.9,5.1,5.5,6.1h76.4c0-2.8-0.6-7.6-3.9-11.6c-4.1-5.1-11.4-7.8-21.7-8.1l-5.6-0.2
	l43.6-59.7l-1.7-0.2c96.3-116.3,45.4-151.3,25.2-159.8L78.4,295.4l-0.6-3.1c-0.4-2.1-0.3-5.3,1.4-8.4L65,286.8l0-3.6
	c0-0.1,0.1-7.4,5.4-14l-11.1,2.3l-0.7-2.8c-0.1-0.5-1-5,2.1-10c0.3-0.4,0.5-0.8,0.8-1.2l-1-0.9c-1.4-1.3-3.5-4.8-2.4-9.6
	c3.1-13.6,29.4-28,78-42.7l189.6-49.3l1.5,5.7l-189.5,49.2c-62.5,19-72.4,33-73.7,38.2c-0.3,1.2-0.2,2.2,0,2.9l15.7-3.7
	c0.2,0,0.4-0.1,0.6-0.1l1.3,5.8l-0.5,0.1c-7.6,1.8-12.9,4.8-15.3,8.7c-0.6,0.9-0.9,1.8-1.1,2.5l22-4.5l1.2,5.8
	c-11.3,2.5-15.1,9.4-16.3,13.8l20.8-4.2l1.2,5.8c-6.5,1.5-8.8,4.5-9.6,6.9l329.9-83.4c9.1-6,25.6-20.4,25.6-44.3
	c0-32.9-58.6-52.6-133.1-37.8c0.3-0.1,0.5-0.2,0.7-0.3c-16.9,3.4-43.2,8.5-72.1,13.2c-1.2,10-7.5,42.2-37.8,42.2
	c-10.9,0-19.6-3.2-25.9-9.6c-7.7-7.8-9.4-18-9.9-22.7c-15.6,1.5-30.2,2.5-42.8,2.5c-5.3,0-10.2-0.2-14.6-0.5l0.5-5.9
	c49.5,4,160.1-16.8,203.1-25.4c0.2-0.3,0.6-0.5,1.1-0.7c98.9-31,166.4-15.1,166.4-15.1c0-10.6-20.4-12.5-20.4-12.5h30.3
	c0-15.5-27.6-17.8-27.6-17.8h28.4c0-14.1-14.3-16.9-22.3-17.4H458c0,0,2.2-0.2,5.3,0h15.9c0-37.8-148.6-32.1-148.6-32.1
	C-18.8,20.3,7.6,268.4,12.9,359.9s65,93.8,65,93.8s12.3,0,33.1,0C113.3,452.8,242.5,402.4,308.2,329.4z M291.7,445.8
	c-8.7-24.7,22.9-89.7,36.9-111.4c8.1-12.5,11.1-22,10.7-24.7c-1.7,0.4-8.2,3.3-26.7,23.8c-54.2,60.2-150.7,105.1-186,120.3
	c41.4,0,104.5,0,170.6-0.1C294.8,451.7,292.9,449.2,291.7,445.8z M621.7,398.5l-223.4-27.3l-39.1,53.5c9.3,1.1,16.3,4.5,20.7,10
	c6.7,8.3,5,18.4,4.9,18.8l0,0c74-0.1,141.3-0.3,174.8-0.5c97.6-0.8,98.3-16.6,98.3-16.6v-80.9C623.3,355.4,621.7,398.5,621.7,398.5z
	"/>
</svg>
