<?xml version="1.0" encoding="utf-8"?>
<!-- Generator: Adobe Illustrator 26.0.1, SVG Export Plug-In . SVG Version: 6.00 Build 0)  -->
<svg version="1.1" id="Layer_1" xmlns="http://www.w3.org/2000/svg" xmlns:xlink="http://www.w3.org/1999/xlink" x="0px" y="0px"
	 viewBox="0 0 658 717.2" style="enable-background:new 0 0 658 717.2;" xml:space="preserve">
<style type="text/css">
	.st0{fill:#FFFF00;}
	.st1{fill:#0000FF;}
</style>
<path class="st0" d="M343.4,17.6C485,17.3,602,133.2,602.9,274.9c-0.4,134.8-0.7,241.6-1.1,376.4l-515.6-0.1
	c-0.4-134.4-0.7-240.9-1.1-375.3C85.4,134.3,201.8,17.9,343.4,17.6"/>
<path class="st1" d="M602.9,348c0-33,0-92.8,0-92.8s-50.1-2.4-50.1,38.5c0,0-277.8-64.5-306,21.2c-25.6,78.1-9.1,171.2-5.9,187.1
	c0.3,0.1,0.6,0.1,0.9,0.2l-0.5,2.2l0,0l0,0l-0.5,2.2c-44.4-9.3-85.2-45.9-111.6-75c-25.7-28.3-43.1-55.2-46.4-60.5
	c-14.3-0.5-29-6-38.1-15c-5.6,36.2-49.6,342.5,62.3,342.5c118.9,0,314.1,0,314.1,0S522.9,732.5,522.9,591c0,0,19.1-10.2,19.1,17.3
	s-7.3,30.7,23.6,37.7c30.9,7.1-3.6,33.8,31.8,33.8c0,0,29.2-282.6-92.3-314C538.7,369.1,602.9,371.6,602.9,348z M464.9,676.3
	l-1.6,1.1l-0.7-0.7c0,0.5,0,0.9,0,1.4c-0.1,4.1-2.2,7.6-6.1,10.4l-1.6,1.1l-9.2-9.6c0.9,3.1,1.4,6.3,0.9,9.4
	c-0.6,3.6-2.4,6.5-5.3,8.7l-1.6,1.1l-9.6-10c0,0.3,0,0.6,0,1c-0.3,3.2-1.9,5.9-4.9,8.1l-1.6,1.1l-23.4-24.4l3.2-3.1l20.6,21.5
	c1-1.1,1.5-2.2,1.6-3.6c0.3-3.9-3-8.3-4.7-10.2l-0.5-0.5l3.2-3.1c0,0,0.2,0.2,0.3,0.3l16.2,16.8c1.1-1.2,1.8-2.7,2.1-4.5
	c1.3-8.3-6.8-19.4-6.9-19.6l3.4-2.9l16.7,17.4c1.8-1.7,2.7-3.6,2.8-5.7c0.1-3.7-2.2-7.6-4.5-10.6l-5.2-5.4l3-3.3
	c0.2,0.2,2.8,2.4,5.4,5.6l6.9,7.1c3.4-2.9,5-6,5-9.6c-0.2-11.3-17-22.9-18.2-23.7c-3.4-1.9-111.6-62.3-182.9-62.3
	c-70.9,0-107.7-22.7-126-41.7c-20.1-20.8-23.1-41.4-23.2-42.3l4.4-0.6c0,0.2,3,20.2,22.2,40c17.8,18.3,53.5,40.1,122.6,40.1
	c73.3,0,184.1,62.3,185.2,63l0.1,0.1c0.8,0.5,20,13.4,20.2,27.4C473.4,667.3,470.5,672.2,464.9,676.3z M524.8,589.8l-3.8,2.3
	L380.3,360.8h98v4.5h-90.1L524.8,589.8z M39.9,335.6c0-19.3,21.3-39.9,41.5-40.2c13.9-0.2,25.7,4,34,12.2
	c7.2,7.1,11.3,16.8,11.3,26.7c0,19.4-21.6,32.5-41.8,32.5C63.6,366.8,39.9,354,39.9,335.6z M81.4,290.9c-8.2,0.1-16.5,3.2-23.8,8
	c0.3-0.3,0.5-0.5,0.5-0.5c0-133.6,331.9-90.1,351.4-87.4l0-0.1c0,0,41.5-8.2,41.5,16.6h-13c7.8,0.6,18.5,3.2,18.5,13.3H428
	c0,0,27.1,2.9,27.1,16.3h-27.8c2.2,0,17.6,0.5,17.6,10.8l-34.6-0.2c-271.5,0-250,50.3-247.9,144.7c0.7,32,13,53.1,27.6,66.8
	c-51.9-34.5-92.5-93.8-101.9-108.2c21.3-1.4,43-15.8,43-36.8c0-11.1-4.6-22-12.6-29.9c-6.3-6.2-17.6-13.5-36.2-13.5
	C82,290.9,81.7,290.9,81.4,290.9z"/>
</svg>
