<?xml version="1.0" encoding="utf-8"?>
<!-- Generator: Adobe Illustrator 26.0.1, SVG Export Plug-In . SVG Version: 6.00 Build 0)  -->
<svg version="1.1" id="Layer_1" xmlns="http://www.w3.org/2000/svg" xmlns:xlink="http://www.w3.org/1999/xlink" x="0px" y="0px"
	 viewBox="0 0 563 667.2" style="enable-background:new 0 0 563 667.2;" xml:space="preserve">
<style type="text/css">
	.st0{fill:#FFFF00;}
	.st1{fill:#0000FF;}
</style>
<path class="st0" d="M282.4,16.6C424,16.3,541,132.2,541.9,273.9c-0.4,134.8-0.7,241.6-1.1,376.4l-515.6-0.1
	c-0.4-134.4-0.7-240.9-1.1-375.3C24.4,133.3,140.8,16.9,282.4,16.6"/>
<path class="st1" d="M189.1,85.4c-33,0-92.8,0-92.8,0s-2.4,50.1,38.5,50.1c0,0-64.5,277.8,21.2,306c78.1,25.6,171.2,9.1,187.1,5.9
	c0.1-0.3,0.1-0.6,0.2-0.9l2.2,0.5l0,0l0,0l2.2,0.5c-9.3,44.4-45.9,85.2-75,111.6c-28.3,25.7-55.2,43.1-60.5,46.4
	c-0.5,14.3-6,29-15,38.1c36.2,5.6,342.5,49.6,342.5-62.3c0-118.9,0-314.1,0-314.1s33.9-101.8-107.6-101.8c0,0-10.2-19.1,17.3-19.1
	s30.7,7.3,37.7-23.6c7.1-30.9,33.8,3.6,33.8-31.8c0,0-282.6-29.2-314,92.3C210.2,149.6,212.7,85.4,189.1,85.4z M517.4,223.4l1.1,1.6
	l-0.7,0.7c0.5,0,0.9,0,1.4,0c4.1,0.1,7.6,2.2,10.4,6.1l1.1,1.6l-9.6,9.2c3.1-0.9,6.3-1.4,9.4-0.9c3.6,0.6,6.5,2.4,8.7,5.3l1.1,1.6
	l-10,9.6c0.3,0,0.6,0,1,0c3.2,0.3,5.9,1.9,8.1,4.9l1.1,1.6l-24.4,23.4l-3.1-3.2l21.5-20.6c-1.1-1-2.2-1.5-3.6-1.6
	c-3.9-0.3-8.3,3-10.2,4.7l-0.5,0.5l-3.1-3.2c0,0,0.2-0.2,0.3-0.3l16.8-16.2c-1.2-1.1-2.7-1.8-4.5-2.1c-8.3-1.3-19.4,6.8-19.6,6.9
	l-2.9-3.4l17.4-16.7c-1.7-1.8-3.6-2.7-5.7-2.8c-3.7-0.1-7.6,2.2-10.6,4.5l-5.4,5.2l-3.3-3c0.2-0.2,2.4-2.8,5.6-5.4l7.1-6.9
	c-2.9-3.4-6-5-9.6-5c-11.3,0.2-22.9,17-23.7,18.2c-1.9,3.4-62.3,111.6-62.3,182.9c0,70.9-22.7,107.7-41.7,126
	c-20.8,20.1-41.4,23.1-42.3,23.2l-0.6-4.4c0.2,0,20.2-3,40-22.2c18.3-17.8,40.1-53.5,40.1-122.6c0-73.3,62.3-184.1,63-185.2l0.1-0.1
	c0.5-0.8,13.4-20,27.4-20.2C508.4,214.9,513.3,217.8,517.4,223.4z M430.9,163.5l2.3,3.8L201.9,308v-98h4.5v90.1L430.9,163.5z
	 M176.7,648.4c-19.3,0-39.9-21.3-40.2-41.5c-0.2-13.9,4-25.7,12.2-34c7.1-7.2,16.8-11.3,26.7-11.3c19.4,0,32.5,21.6,32.5,41.8
	C207.9,624.7,195.1,648.4,176.7,648.4z M132,606.9c0.1,8.2,3.2,16.5,8,23.8c-0.3-0.3-0.5-0.5-0.5-0.5
	c-133.6,0-90.1-331.9-87.4-351.4H52c0,0-8.2-41.5,16.6-41.5v13c0.6-7.8,3.2-18.5,13.3-18.5v28.5c0,0,2.9-27.1,16.3-27.1V261
	c0-2.2,0.5-17.6,10.8-17.6l-0.2,34.6c0,271.5,50.3,250,144.7,247.9c32-0.7,53.1-13,66.8-27.6c-34.5,51.9-93.8,92.5-108.2,101.9
	c-1.4-21.3-15.8-43-36.8-43c-11.1,0-22,4.6-29.9,12.6c-6.2,6.3-13.5,17.6-13.5,36.2C132,606.3,132,606.6,132,606.9z"/>
</svg>
