<?xml version="1.0" encoding="utf-8"?>
<!-- Generator: Adobe Illustrator 26.1.0, SVG Export Plug-In . SVG Version: 6.00 Build 0)  -->
<svg version="1.1" id="Layer_1" xmlns="http://www.w3.org/2000/svg" xmlns:xlink="http://www.w3.org/1999/xlink" x="0px" y="0px"
	 viewBox="0 0 1905.2 537.2" style="enable-background:new 0 0 1905.2 537.2;" xml:space="preserve">
<path d="M593.9,163c0-33,0-92.8,0-92.8s-50.1-2.4-50.1,38.5c0,0-277.8-64.5-306,21.2c-25.6,78.1-9.1,171.2-5.9,187.1
	c0.3,0.1,0.6,0.1,0.9,0.2l-0.5,2.2l0,0l0,0l-0.5,2.2c-44.4-9.3-85.2-45.9-111.6-75c-25.7-28.3-43.1-55.2-46.4-60.5
	c-14.3-0.5-29-6-38.1-15C30.1,207.3-13.9,513.6,98,513.6c118.9,0,314.1,0,314.1,0S513.9,547.5,513.9,406c0,0,19.1-10.2,19.1,17.3
	s-7.3,30.7,23.6,37.7c30.9,7.1-3.6,33.8,31.8,33.8c0,0,29.2-282.6-92.3-314C529.7,184.1,593.9,186.6,593.9,163z M455.9,491.3
	l-1.6,1.1l-0.7-0.7c0,0.5,0,0.9,0,1.4c-0.1,4.1-2.2,7.6-6.1,10.4l-1.6,1.1l-9.2-9.6c0.9,3.1,1.4,6.3,0.9,9.4
	c-0.6,3.6-2.4,6.5-5.3,8.7l-1.6,1.1l-9.6-10c0,0.3,0,0.6,0,1c-0.3,3.2-1.9,5.9-4.9,8.1l-1.6,1.1L391.2,490l3.2-3.1l20.6,21.5
	c1-1.1,1.5-2.2,1.6-3.6c0.3-3.9-3-8.3-4.7-10.2l-0.5-0.5l3.2-3.1c0,0,0.2,0.2,0.3,0.3l16.2,16.8c1.1-1.2,1.8-2.7,2.1-4.5
	c1.3-8.3-6.8-19.4-6.9-19.6l3.4-2.9l16.7,17.4c1.8-1.7,2.7-3.6,2.8-5.7c0.1-3.7-2.2-7.6-4.5-10.6l-5.2-5.4l3-3.3
	c0.2,0.2,2.8,2.4,5.4,5.6l6.9,7.1c3.4-2.9,5-6,5-9.6c-0.2-11.3-17-22.9-18.2-23.7c-3.4-1.9-111.6-62.3-182.9-62.3
	c-70.9,0-107.7-22.7-126-41.7c-20.1-20.8-23.1-41.4-23.2-42.3l4.4-0.6c0,0.2,3,20.2,22.2,40c17.8,18.3,53.5,40.1,122.6,40.1
	c73.3,0,184.1,62.3,185.2,63l0.1,0.1c0.8,0.5,20,13.4,20.2,27.4C464.4,482.3,461.5,487.2,455.9,491.3z M515.8,404.8l-3.8,2.3
	L371.3,175.8h98v4.5h-90.1L515.8,404.8z M30.9,150.6c0-19.3,21.3-39.9,41.5-40.2c13.9-0.2,25.7,4,34,12.2
	c7.2,7.1,11.3,16.8,11.3,26.7c0,19.4-21.6,32.5-41.8,32.5C54.6,181.8,30.9,169,30.9,150.6z M72.4,105.9c-8.2,0.1-16.5,3.2-23.8,8
	c0.3-0.3,0.5-0.5,0.5-0.5C49.1-20.2,381,23.3,400.5,26v-0.1c0,0,41.5-8.2,41.5,16.6h-13c7.8,0.6,18.5,3.2,18.5,13.3H419
	c0,0,27.1,2.9,27.1,16.3h-27.8c2.2,0,17.6,0.5,17.6,10.8l-34.6-0.2c-271.5,0-250,50.3-247.9,144.7c0.7,32,13,53.1,27.6,66.8
	C129.1,259.7,88.5,200.4,79.1,186c21.3-1.4,43-15.8,43-36.8c0-11.1-4.6-22-12.6-29.9c-6.3-6.2-17.6-13.5-36.2-13.5
	C73,105.9,72.7,105.9,72.4,105.9z"/>
<g>
	<path d="M710.2,212.4c0-9.3-0.1-17.4-0.3-24.4c-0.2-7-0.5-13-1-18.1c-0.4-5.1-1-9.3-1.6-12.7c-0.6-3.4-1.2-6.2-1.9-8.5V148
		c2.2,0.1,4.5,0.2,6.9,0.2c2.1,0.1,4.4,0.2,7,0.2c2.6,0,5.2,0,8,0c3.9,0,9.3-0.4,16-1.2c6.7-0.8,15.4-1.2,26-1.2
		c9.9,0,19,1.3,27.3,3.9c8.3,2.6,15.5,6.3,21.6,11.1c6.1,4.8,10.8,10.8,14.3,17.8c3.5,7.1,5.2,15.1,5.2,24.1c0,7.6-1,14.3-3.1,20.3
		c-2.1,6-5,11.2-8.8,15.6c-3.8,4.4-8.3,8.2-13.6,11.2c-5.3,3-11.1,5.4-17.5,7.1c9.3,1.4,17.8,3.8,25.5,7.1
		c7.7,3.3,14.3,7.5,19.8,12.6c5.5,5,9.8,10.9,12.8,17.7c3,6.7,4.5,14.2,4.5,22.4c0,23.1-7.6,40.5-22.8,52
		c-15.2,11.6-38,17.3-68.4,17.3c-3.3,0-7.1-0.1-11.5-0.4c-4.4-0.3-8.8-0.6-13.4-0.9c-4.5-0.3-9-0.6-13.4-0.9
		c-4.4-0.3-8.2-0.4-11.5-0.4h-10.8V383c0.7-2.3,1.3-5.1,1.9-8.5c0.6-3.4,1.1-7.6,1.6-12.7c0.4-5,0.8-11,1-18
		c0.2-7,0.3-15.1,0.3-24.4V212.4z M740.1,254.8c3.1,0.3,5.8,0.5,8.2,0.6c2.4,0.1,5,0.1,7.7,0.1c7.4,0,14.2-1.1,20.4-3.2
		c6.1-2.1,11.4-5.3,15.7-9.6c4.3-4.3,7.7-9.6,10.1-16c2.4-6.4,3.6-13.9,3.6-22.4c0-7.1-0.9-13.6-2.6-19.4
		c-1.8-5.8-4.4-10.8-7.8-14.9c-3.5-4.1-7.7-7.3-12.7-9.4c-5-2.2-10.8-3.3-17.3-3.3c-4.2,0-7.8,0.2-10.9,0.5c-3.1,0.3-5.8,0.7-8,1.2
		c-2.5,0.4-4.7,1-6.4,1.6V254.8z M770.5,267.2c-7.5,0-13.7,0.3-18.7,0.8c-5,0.5-8.9,1.1-11.7,1.6v49.8c0,12.8,0.2,23.4,0.7,31.7
		c0.4,8.3,1,15.1,1.8,20.4c4.2,0.5,8.3,1,12.5,1.5c4.2,0.4,7.5,0.7,10,0.7c20.5,0,35.5-4.6,44.9-13.7c9.5-9.1,14.2-23.2,14.2-42.2
		c0-7.4-1.1-14.3-3.4-20.5c-2.2-6.2-5.6-11.5-10-16c-4.4-4.5-10-8-16.8-10.4C787.3,268.4,779.5,267.2,770.5,267.2z"/>
	<path d="M945.2,147.9c13.5-0.1,25.9-0.2,37.2-0.4c11.3-0.2,20.9-0.4,28.9-0.7c8-0.3,13.4-0.8,16.3-1.3l-8.1,21.9
		c-3.6-1-7.8-1.9-12.7-2.6c-4.2-0.7-9.2-1.3-15.2-1.9c-6-0.6-12.8-0.9-20.6-0.9c-2.6,0-5.8,0.1-9.4,0.2c-3.7,0.2-7.2,0.4-10.6,0.6
		c-3.9,0.2-7.9,0.4-12,0.7V253c11.3-0.1,21.5-0.4,30.6-1c9.1-0.5,16.8-1.1,23.2-1.6c7.4-0.7,14-1.4,19.7-2.3l-5.1,23.8
		c-7.6-1-15.3-1.9-23.2-2.8c-6.8-0.8-14.2-1.5-22.2-2.1c-8-0.6-15.7-0.9-23-0.9v103c12.9,0,24.8-0.5,35.7-1.6
		c10.8-1.1,20.3-2.4,28.4-3.8c9.4-1.5,18-3.3,25.8-5.4l-4.8,26.6c-1.3-0.1-3.3-0.2-5.9-0.3c-2.6-0.1-5.6-0.2-8.8-0.3
		c-3.2-0.1-6.6-0.2-10.2-0.2c-3.6-0.1-6.9-0.1-10.1-0.2c-3.2-0.1-6-0.1-8.5-0.2c-2.5-0.1-4.2-0.1-5.3-0.1h-71V383
		c0.7-2.3,1.3-5.1,1.9-8.5c0.6-3.4,1.1-7.6,1.6-12.7c0.4-5,0.8-11,1-18c0.2-7,0.3-15.1,0.3-24.4v-107c0-9.3-0.1-17.4-0.3-24.4
		c-0.2-7-0.5-13-1-18.1c-0.4-5.1-1-9.3-1.6-12.7c-0.6-3.4-1.2-6.2-1.9-8.5V148C918,148,931.6,148,945.2,147.9z"/>
	<path d="M1114.1,369.2c12.9,0,24.8-0.5,35.7-1.6c10.8-1.1,20.3-2.4,28.4-3.8c9.4-1.5,18-3.3,25.8-5.4l-4.8,26.6
		c-1.3-0.1-3.3-0.2-5.9-0.3c-2.6-0.1-5.6-0.2-8.8-0.3c-3.2-0.1-6.6-0.2-10.2-0.2c-3.6-0.1-6.9-0.1-10.1-0.2c-3.2-0.1-6-0.1-8.5-0.2
		c-2.5-0.1-4.2-0.1-5.3-0.1h-71V383c0.7-2.3,1.3-5.1,1.9-8.5c0.6-3.4,1.1-7.6,1.6-12.7c0.4-5,0.8-11,1-18c0.2-7,0.3-15.1,0.3-24.4
		v-107c0-9.3-0.1-17.4-0.3-24.4c-0.2-7-0.5-13-1-18.1c-0.4-5.1-1-9.3-1.6-12.7c-0.6-3.4-1.2-6.2-1.9-8.5V148h39.4v0.7
		c-0.7,2.3-1.3,5.2-1.9,8.5c-0.6,3.4-1.1,7.6-1.5,12.7c-0.4,5.1-0.7,11.1-1,18.1c-0.3,7-0.4,15.1-0.4,24.4V369.2z"/>
	<path d="M1245.8,383c0.7-2.3,1.3-5.1,1.8-8.5c0.5-3.4,1-7.6,1.5-12.7c0.4-5,0.8-11,1-18c0.2-7,0.3-15.1,0.3-24.4v-107
		c0-9.3-0.1-17.4-0.3-24.4c-0.2-7-0.5-13-1-18.1c-0.4-5.1-0.9-9.3-1.5-12.7c-0.5-3.4-1.2-6.2-1.8-8.5V148h39.3v0.7
		c-0.7,2.3-1.3,5.2-1.9,8.5c-0.6,3.4-1.1,7.6-1.5,12.7c-0.4,5.1-0.7,11.1-1,18.1c-0.3,7-0.4,15.1-0.4,24.4v107
		c0,9.3,0.1,17.4,0.4,24.4c0.3,7,0.6,13,1,18c0.4,5,0.9,9.3,1.5,12.7c0.6,3.4,1.2,6.2,1.9,8.5v0.7h-39.3V383z"/>
	<path d="M1384.5,147.9c13.5-0.1,25.9-0.2,37.2-0.4c11.3-0.2,20.9-0.4,28.9-0.7c8-0.3,13.4-0.8,16.3-1.3l-8.1,21.9
		c-3.6-1-7.8-1.9-12.7-2.6c-4.2-0.7-9.2-1.3-15.2-1.9c-6-0.6-12.8-0.9-20.6-0.9c-2.6,0-5.8,0.1-9.4,0.2c-3.7,0.2-7.2,0.4-10.6,0.6
		c-3.9,0.2-7.9,0.4-12,0.7V253c11.3-0.1,21.5-0.4,30.6-1c9.1-0.5,16.8-1.1,23.2-1.6c7.4-0.7,14-1.4,19.7-2.3l-5.1,23.8
		c-7.6-1-15.3-1.9-23.2-2.8c-6.8-0.8-14.2-1.5-22.2-2.1c-8-0.6-15.7-0.9-23-0.9v103c12.9,0,24.8-0.5,35.7-1.6
		c10.8-1.1,20.3-2.4,28.4-3.8c9.4-1.5,18-3.3,25.8-5.4l-4.8,26.6c-1.3-0.1-3.3-0.2-5.9-0.3c-2.6-0.1-5.6-0.2-8.8-0.3
		c-3.2-0.1-6.6-0.2-10.2-0.2c-3.6-0.1-6.9-0.1-10.1-0.2c-3.2-0.1-6-0.1-8.5-0.2c-2.5-0.1-4.2-0.1-5.3-0.1h-71V383
		c0.7-2.3,1.3-5.1,1.9-8.5c0.6-3.4,1.1-7.6,1.6-12.7c0.4-5,0.8-11,1-18c0.2-7,0.3-15.1,0.3-24.4v-107c0-9.3-0.1-17.4-0.3-24.4
		c-0.2-7-0.5-13-1-18.1c-0.4-5.1-1-9.3-1.6-12.7c-0.6-3.4-1.2-6.2-1.9-8.5V148C1357.3,148,1371,148,1384.5,147.9z"/>
	<path d="M1533.5,148v0.7c-0.2,0.5-0.4,1.4-0.5,2.5c-0.1,1.1-0.2,2.1-0.2,3c0,3.4,0.5,7.1,1.4,11.3c0.9,4.1,2.7,9.2,5.3,15.4
		l72.8,164.2l70.3-162.9c1.6-4.1,3.4-8.5,5.3-13.3c1.9-4.8,2.8-9.7,2.8-14.6c0-1.3-0.1-2.4-0.3-3.4c-0.2-0.9-0.4-1.6-0.7-2.1V148
		h33.7v0.7c-2.1,2.1-4.6,5.8-7.6,11.2c-3,5.4-6.2,12-9.7,19.9l-94.2,209h-13.1l-89.2-201c-2.1-4.7-4.2-9.3-6.5-13.6
		c-2.2-4.4-4.4-8.4-6.3-11.9c-2-3.6-3.7-6.5-5.3-9c-1.5-2.4-2.6-3.9-3.1-4.6V148H1533.5z"/>
	<path d="M1791.2,147.9c13.5-0.1,25.9-0.2,37.2-0.4c11.3-0.2,20.9-0.4,28.9-0.7c8-0.3,13.4-0.8,16.3-1.3l-8.1,21.9
		c-3.6-1-7.8-1.9-12.7-2.6c-4.2-0.7-9.2-1.3-15.2-1.9c-6-0.6-12.8-0.9-20.6-0.9c-2.6,0-5.8,0.1-9.4,0.2c-3.7,0.2-7.2,0.4-10.6,0.6
		c-3.9,0.2-7.9,0.4-12,0.7V253c11.3-0.1,21.5-0.4,30.6-1c9.1-0.5,16.8-1.1,23.2-1.6c7.4-0.7,14-1.4,19.7-2.3l-5.1,23.8
		c-7.6-1-15.3-1.9-23.2-2.8c-6.8-0.8-14.2-1.5-22.2-2.1c-8-0.6-15.7-0.9-23-0.9v103c12.9,0,24.8-0.5,35.7-1.6
		c10.8-1.1,20.3-2.4,28.4-3.8c9.4-1.5,18-3.3,25.8-5.4l-4.8,26.6c-1.3-0.1-3.3-0.2-5.9-0.3c-2.6-0.1-5.6-0.2-8.8-0.3
		c-3.2-0.1-6.6-0.2-10.2-0.2c-3.6-0.1-6.9-0.1-10.1-0.2c-3.2-0.1-6-0.1-8.5-0.2c-2.5-0.1-4.2-0.1-5.3-0.1h-71V383
		c0.7-2.3,1.3-5.1,1.9-8.5c0.6-3.4,1.1-7.6,1.6-12.7c0.4-5,0.8-11,1-18c0.2-7,0.3-15.1,0.3-24.4v-107c0-9.3-0.1-17.4-0.3-24.4
		c-0.2-7-0.5-13-1-18.1c-0.4-5.1-1-9.3-1.6-12.7c-0.6-3.4-1.2-6.2-1.9-8.5V148C1764.1,148,1777.7,148,1791.2,147.9z"/>
</g>
</svg>
