<?xml version="1.0" encoding="utf-8"?>
<!-- Generator: Adobe Illustrator 26.0.1, SVG Export Plug-In . SVG Version: 6.00 Build 0)  -->
<svg version="1.1" id="Layer_1" xmlns="http://www.w3.org/2000/svg" xmlns:xlink="http://www.w3.org/1999/xlink" x="0px" y="0px"
	 viewBox="0 0 687.9 340.9" style="enable-background:new 0 0 687.9 340.9;" xml:space="preserve">
<path d="M392.9,336.8c-0.7,0-1.3-0.1-1.8-0.4s-1-0.6-1.3-1.1c-0.3-0.4-0.5-0.9-0.5-1.4c0-0.6,0.2-1,0.6-1.4s1-0.7,1.9-1l4-1.3v-1.3
	c0-0.4-0.1-0.8-0.4-1.2s-0.6-0.6-1-0.8c-0.4-0.2-0.9-0.3-1.5-0.3c-0.4,0-0.7,0.1-0.9,0.3c-0.2,0.2-0.3,0.5-0.3,1.1l-0.1,1.1
	c-0.6,0.1-1.2,0.1-1.6-0.1s-0.7-0.5-0.7-0.9c0-0.3,0.1-0.6,0.4-0.9s0.6-0.6,1-0.8c0.4-0.3,0.9-0.5,1.3-0.7c0.5-0.2,1-0.3,1.4-0.4
	c1.3,0,2.3,0.3,3.1,1c0.8,0.7,1.2,1.6,1.2,2.7l-0.1,4.4c0,0.3,0,0.6,0,1c0,0.3,0.1,0.6,0.1,0.7l1.7,0.3v0.8l-1.3,0.5
	c-0.2,0.1-0.5,0.2-0.7,0.2c-0.2,0.1-0.4,0.1-0.5,0.1c-0.5,0-0.9-0.3-1-0.9l-0.3-1h0.4c-0.6,0.6-1.1,1.1-1.7,1.4
	C394,336.6,393.4,336.8,392.9,336.8z M393.6,335.2c0.4,0,0.8-0.1,1.1-0.3c0.4-0.2,0.7-0.5,1-0.8v-2.7l-2.9,0.8
	c-0.4,0.1-0.7,0.3-0.9,0.5s-0.3,0.5-0.3,0.9s0.2,0.8,0.6,1.2S393.1,335.2,393.6,335.2z M402.8,336.6l-0.1-0.9l1.6-0.4
	c0-0.1,0-0.3,0-0.5s0-0.5,0-0.9s0-0.8,0-1.4v-2c0-0.6,0-1.1-0.1-1.7c0-0.6-0.1-1-0.1-1.3l-1.7-0.4v-0.9l3.5-1l0.4,0.4l-0.1,1.4h0.1
	c0.6-0.7,1.2-1.1,1.8-1.4c0.6-0.3,1.2-0.4,1.9-0.4c0.6,0,1.2,0.2,1.8,0.5c0.6,0.3,1,0.8,1.4,1.5s0.5,1.5,0.5,2.5v2.9
	c0,0.6,0,1.2,0,1.7s0.1,0.8,0.1,1l1.6,0.4l-0.1,0.9h-5.2l-0.1-0.9l1.5-0.4c0-0.1,0-0.3,0.1-0.5c0-0.2,0-0.5,0-0.8s0-0.7,0-1.2V330
	c0-0.8-0.1-1.4-0.4-1.9s-0.6-0.8-1-1s-0.8-0.3-1.2-0.3c-0.6,0-1.1,0.1-1.6,0.4s-0.9,0.7-1.3,1.2v3.9c0,0.8,0,1.5,0,2s0.1,0.8,0.1,1
	l1.6,0.4l-0.1,0.9L402.8,336.6L402.8,336.6z M428.2,336.9l-0.4-0.3v-1.7h-0.1c-0.5,0.7-1,1.2-1.6,1.5s-1.1,0.4-1.7,0.4
	c-1,0-1.9-0.2-2.7-0.7c-0.8-0.5-1.4-1.1-1.8-1.9s-0.7-1.7-0.7-2.8c0-0.9,0.2-1.8,0.5-2.5c0.3-0.8,0.7-1.4,1.3-2
	c0.5-0.5,1.2-1,1.9-1.3c0.7-0.3,1.4-0.4,2.2-0.4c0.5,0,1,0.1,1.5,0.2s0.9,0.3,1.3,0.6c0-0.3,0-0.7,0-1.2s0-1,0-1.6c0-0.5,0-1,0-1.5
	c0-0.4,0-0.7,0-0.9l-2-0.4l-0.1-0.9l3.8-1.1l0.5,0.4c0,1.1-0.1,2.1-0.1,3.1s0,2.1,0,3.2v6c0,0.9,0,1.6,0.1,2.3
	c0,0.6,0.1,1.1,0.1,1.3l1.7,0.4v0.9L428.2,336.9z M425.1,335c0.5,0,1-0.1,1.4-0.3s0.9-0.6,1.3-1.2V328c-0.3-0.6-0.7-1-1.3-1.3
	c-0.5-0.2-1-0.4-1.5-0.4c-1.1,0-1.9,0.4-2.6,1.2c-0.6,0.8-0.9,1.9-0.9,3.1c0,1.4,0.3,2.5,1,3.2C423.3,334.7,424.1,335,425.1,335z
	 M452.9,334.7l1.6,0.4v0.9l-3.4,0.8l-0.4-0.3v-1.6h-0.1c-0.5,0.7-1,1.2-1.5,1.5s-1.1,0.4-1.7,0.4c-1.2,0-2.1-0.4-2.9-1.1
	s-1.2-1.8-1.2-3.2v-2.2c0-0.5,0-0.9,0-1.4s-0.1-0.9-0.1-1.4l-1.8-0.4v-0.9l3.5-1l0.5,0.4c0,0.5-0.1,1.1-0.1,1.7s0,1.2,0,1.9v2.9
	c0,1.1,0.3,1.8,0.8,2.3s1.1,0.7,1.9,0.7c0.5,0,0.9-0.1,1.4-0.4c0.5-0.2,0.9-0.7,1.3-1.3v-3c0-0.4,0-0.8,0-1.1c0-0.4,0-0.7,0-1.1
	c0-0.3,0-0.6-0.1-0.9l-1.9-0.4V326l3.7-1l0.4,0.4c0,0.5,0,0.9,0,1.3s0,0.7,0,1.1s0,0.8,0,1.3v1.8c0,1,0,1.7,0.1,2.3
	C452.8,334,452.9,334.5,452.9,334.7z M457.9,336.6l-0.1-0.9l1.6-0.4c0-0.1,0-0.3,0-0.5s0-0.5,0-0.9s0-0.8,0-1.4v-2
	c0-0.6,0-1.1-0.1-1.7c0-0.6-0.1-1-0.1-1.3l-1.7-0.4v-0.9l3.5-1l0.4,0.4l-0.1,1.4h0.1c0.6-0.7,1.2-1.1,1.8-1.4
	c0.6-0.3,1.2-0.4,1.9-0.4c0.6,0,1.2,0.2,1.8,0.5c0.6,0.3,1,0.8,1.4,1.5s0.5,1.5,0.5,2.5v2.9c0,0.6,0,1.2,0,1.7s0.1,0.8,0.1,1
	l1.6,0.4l-0.1,0.9h-5.2l-0.1-0.9l1.5-0.4c0-0.1,0-0.3,0.1-0.5c0-0.2,0-0.5,0-0.8s0-0.7,0-1.2V330c0-0.8-0.1-1.4-0.4-1.9
	s-0.6-0.8-1-1s-0.8-0.3-1.2-0.3c-0.6,0-1.1,0.1-1.6,0.4s-0.9,0.7-1.3,1.2v3.9c0,0.8,0,1.5,0,2s0.1,0.8,0.1,1l1.6,0.4l-0.1,0.9
	L457.9,336.6L457.9,336.6z M478.4,336.8c-0.7,0-1.3-0.1-1.8-0.4s-1-0.6-1.3-1.1c-0.3-0.4-0.5-0.9-0.5-1.4c0-0.6,0.2-1,0.6-1.4
	s1-0.7,1.9-1l4-1.3v-1.3c0-0.4-0.1-0.8-0.4-1.2s-0.6-0.6-1-0.8c-0.4-0.2-0.9-0.3-1.5-0.3c-0.4,0-0.7,0.1-0.9,0.3
	c-0.2,0.2-0.3,0.5-0.3,1.1l-0.1,1.1c-0.6,0.1-1.2,0.1-1.6-0.1s-0.7-0.5-0.7-0.9c0-0.3,0.1-0.6,0.4-0.9s0.6-0.6,1-0.8
	c0.4-0.3,0.9-0.5,1.3-0.7c0.5-0.2,1-0.3,1.4-0.4c1.3,0,2.3,0.3,3.1,1c0.8,0.7,1.2,1.6,1.2,2.7l-0.1,4.4c0,0.3,0,0.6,0,1
	c0,0.3,0.1,0.6,0.1,0.7l1.7,0.3v0.8l-1.3,0.5c-0.2,0.1-0.5,0.2-0.7,0.2c-0.2,0.1-0.4,0.1-0.5,0.1c-0.5,0-0.9-0.3-1-0.9l-0.3-1h0.4
	c-0.6,0.6-1.1,1.1-1.7,1.4C479.5,336.6,479,336.8,478.4,336.8z M479.1,335.2c0.4,0,0.8-0.1,1.1-0.3c0.4-0.2,0.7-0.5,1-0.8v-2.7
	l-2.9,0.8c-0.4,0.1-0.7,0.3-0.9,0.5s-0.3,0.5-0.3,0.9s0.2,0.8,0.6,1.2S478.6,335.2,479.1,335.2z M488.4,336.6l-0.1-0.9l1.6-0.4
	c0-0.1,0-0.3,0-0.5s0-0.5,0-0.8c0-0.4,0-0.9,0-1.5v-2c0-0.4,0-0.7,0-1.1s0-0.7-0.1-1.1c0-0.3-0.1-0.6-0.1-0.8l-1.7-0.4v-0.9l3.5-1
	l0.4,0.4l0.1,1.4h0.1c0.5-0.7,1.1-1.2,1.7-1.5s1.2-0.4,1.8-0.4c0.6,0,1.2,0.2,1.8,0.5c0.6,0.3,1,0.8,1.4,1.5s0.6,1.5,0.6,2.6v2.8
	c0,0.6,0,1.2,0,1.7s0.1,0.8,0.1,1l1.6,0.4l-0.1,0.9h-5.1l-0.1-0.9l1.4-0.4c0-0.1,0-0.3,0.1-0.5c0-0.2,0-0.5,0-0.8s0-0.7,0-1.2v-2.9
	c0-0.7-0.1-1.3-0.4-1.8c-0.2-0.5-0.5-0.8-0.9-1s-0.8-0.3-1.2-0.3c-0.5,0-1,0.1-1.5,0.4s-0.9,0.7-1.3,1.2v3.9c0,0.8,0,1.4,0,1.9
	s0.1,0.8,0.1,1l1.5,0.4l-0.1,0.9h-5.1V336.6z M503.1,336.6l-0.1-0.9l1.5-0.4c0-0.1,0-0.3,0-0.5s0-0.5,0-0.8s0-0.7,0-1.2V330
	c0-0.8-0.1-1.4-0.4-1.8s-0.6-0.8-1-1s-0.8-0.3-1.2-0.3c-0.6,0-1.2,0.1-1.7,0.4s-0.9,0.7-1.3,1.4l-0.5-1c0.6-0.8,1.3-1.4,1.9-1.8
	c0.7-0.4,1.4-0.6,2.2-0.6c0.7,0,1.4,0.2,2,0.5s1.1,0.9,1.4,1.5c0.3,0.7,0.5,1.5,0.5,2.4v2.9c0,0.6,0,1.2,0,1.7s0.1,0.8,0.1,1
	l1.6,0.4l-0.1,0.9L503.1,336.6L503.1,336.6z M512.9,335.9c0-0.6,0.1-1.1,0.1-1.6s0-0.9,0-1.3s0-0.9,0-1.4v-4.5c0-0.6,0-1.3,0-1.9
	c0-0.7,0-1.3,0-2c0-0.6,0-1.2,0-1.6c0-0.5,0-0.8,0-1l-1.9-0.2l-0.1-0.8l3.7-1.1l0.5,0.4c0,0.7,0,1.5-0.1,2.2c0,0.7,0,1.6-0.1,2.5
	c0,1,0,2.1-0.1,3.5h0.1c0.4-0.6,0.9-1.1,1.6-1.4c0.6-0.4,1.3-0.5,2.1-0.5c0.9,0,1.7,0.2,2.4,0.6s1.3,1,1.8,1.8s0.7,1.8,0.7,2.9
	c0,1.2-0.3,2.3-0.9,3.3c-0.6,0.9-1.4,1.7-2.3,2.2c-1,0.5-2,0.8-3.2,0.8c-0.7,0-1.5-0.1-2.2-0.3C514.1,336.3,513.5,336.1,512.9,335.9
	z M517.7,335.5c1,0,1.9-0.4,2.5-1.2c0.7-0.8,1-1.9,1-3.3s-0.3-2.4-1-3.1s-1.5-1-2.5-1c-0.5,0-1,0.1-1.5,0.4
	c-0.5,0.2-0.9,0.6-1.3,1.1v6.3c0.4,0.2,0.8,0.4,1.2,0.6C516.6,335.4,517.1,335.5,517.7,335.5z M527.2,336.6l-0.1-1l1.7-0.4
	c0-0.1,0-0.2,0-0.4c0-0.2,0-0.5,0-0.8c0-0.4,0-0.9,0-1.6v-1.7c0-0.7,0-1.4-0.1-2c0-0.6-0.1-1-0.1-1.4l-1.7-0.4V326l3.7-1l0.4,0.4
	c-0.1,0.5-0.1,1.1-0.1,1.6s0,1.1,0,1.8v3.3c0,0.8,0,1.5,0,2s0.1,0.9,0.1,1l1.7,0.4l-0.1,1h-5.4V336.6z M530,322.3
	c-0.5,0-0.8-0.1-1.1-0.4s-0.5-0.7-0.5-1.1s0.2-0.8,0.5-1.1c0.3-0.3,0.7-0.5,1.1-0.5c0.5,0,0.8,0.2,1.1,0.5s0.4,0.7,0.4,1.1
	s-0.1,0.8-0.4,1.1C530.8,322.1,530.5,322.3,530,322.3z M544.3,335c-0.3,0.6-0.8,1-1.4,1.3c-0.6,0.3-1.2,0.5-1.8,0.5
	c-1,0-1.9-0.3-2.6-1c-0.7-0.6-1-1.6-1-2.9l0.1-6.2h-1.8v-0.5l3.4-3h0.5l-0.1,3v6.4c0,0.9,0.2,1.6,0.6,2s0.9,0.7,1.7,0.7
	c0.4,0,0.8-0.1,1.1-0.2c0.3-0.2,0.6-0.4,0.9-0.6L544.3,335z M538.7,326.7v-1.3h4.9v1.3H538.7z M546.8,336.6l-0.1-1l1.7-0.4
	c0-0.1,0-0.2,0-0.4c0-0.2,0-0.5,0-0.8c0-0.4,0-0.9,0-1.6v-1.7c0-0.7,0-1.4-0.1-2c0-0.6-0.1-1-0.1-1.4l-1.7-0.4V326l3.7-1l0.4,0.4
	c-0.1,0.5-0.1,1.1-0.1,1.6s0,1.1,0,1.8v3.3c0,0.8,0,1.5,0,2s0.1,0.9,0.1,1l1.7,0.4l-0.1,1h-5.4V336.6z M549.6,322.3
	c-0.5,0-0.8-0.1-1.1-0.4s-0.5-0.7-0.5-1.1s0.2-0.8,0.5-1.1c0.3-0.3,0.7-0.5,1.1-0.5c0.5,0,0.8,0.2,1.1,0.5s0.4,0.7,0.4,1.1
	s-0.1,0.8-0.4,1.1C550.4,322.1,550.1,322.3,549.6,322.3z M561.7,336.8c-1.1,0-2.1-0.2-3-0.7c-0.8-0.5-1.5-1.2-2-2s-0.7-1.9-0.7-3
	c0-1.2,0.3-2.2,0.8-3.1s1.2-1.5,2.1-2c0.9-0.5,1.8-0.7,2.9-0.7c1.1,0,2,0.2,2.8,0.7s1.4,1.1,1.9,2s0.7,1.9,0.7,3s-0.2,2.1-0.7,3
	s-1.1,1.6-2,2.1C563.6,336.5,562.7,336.8,561.7,336.8z M561.9,335.6c0.6,0,1.1-0.2,1.5-0.5c0.4-0.4,0.8-0.9,1-1.5s0.4-1.4,0.4-2.2
	c0-1.5-0.3-2.7-0.9-3.6c-0.6-0.9-1.4-1.4-2.4-1.4c-0.9,0-1.7,0.4-2.3,1.2c-0.6,0.8-0.8,1.8-0.8,3.1c0,1,0.2,1.8,0.5,2.6
	c0.3,0.7,0.7,1.3,1.3,1.7C560.6,335.3,561.2,335.6,561.9,335.6z M581.9,334.7l1.6,0.4v0.9l-3.4,0.8l-0.4-0.3v-1.6h-0.1
	c-0.5,0.7-1,1.2-1.5,1.5s-1.1,0.4-1.7,0.4c-1.2,0-2.1-0.4-2.9-1.1c-0.8-0.7-1.2-1.8-1.2-3.2v-2.2c0-0.5,0-0.9,0-1.4
	s-0.1-0.9-0.1-1.4l-1.8-0.4v-0.9l3.5-1l0.5,0.4c0,0.5-0.1,1.1-0.1,1.7s0,1.2,0,1.9v2.9c0,1.1,0.3,1.8,0.8,2.3s1.1,0.7,1.9,0.7
	c0.5,0,0.9-0.1,1.4-0.4c0.5-0.2,0.9-0.7,1.3-1.3v-3c0-0.4,0-0.8,0-1.1c0-0.4,0-0.7,0-1.1c0-0.3,0-0.6-0.1-0.9l-1.9-0.4V326l3.7-1
	l0.4,0.4c0,0.5,0,0.9,0,1.3s0,0.7,0,1.1s0,0.8,0,1.3v1.8c0,1,0,1.7,0.1,2.3C581.9,334,581.9,334.5,581.9,334.7z M591.2,336.8
	c-0.6,0-1.3-0.1-1.9-0.2c-0.6-0.1-1.2-0.3-1.6-0.6l-0.1-2.8h1.3l0.5,1.9c0.6,0.4,1.3,0.6,2.1,0.6c0.6,0,1-0.1,1.4-0.4
	s0.6-0.7,0.6-1.2s-0.2-0.9-0.5-1.2c-0.3-0.3-1-0.7-1.9-1.1c-1.2-0.5-2.1-1.1-2.6-1.6s-0.8-1.1-0.8-1.9c0-0.6,0.2-1.2,0.6-1.7
	c0.4-0.5,0.9-0.9,1.5-1.1c0.7-0.3,1.4-0.4,2.3-0.4c0.5,0,1,0,1.5,0.1s0.9,0.2,1.3,0.4l0.3,2.7H594l-0.6-1.8
	c-0.2-0.1-0.4-0.2-0.6-0.2c-0.2-0.1-0.5-0.1-0.8-0.1c-0.6,0-1.1,0.1-1.5,0.4s-0.5,0.7-0.5,1.1c0,0.5,0.2,0.9,0.6,1.3
	c0.4,0.3,1.1,0.7,2.1,1.2c1.1,0.5,1.9,1,2.4,1.5s0.7,1.1,0.7,1.8c0,0.9-0.4,1.7-1.2,2.3C593.5,336.5,592.5,336.8,591.2,336.8z"/>
<path d="M66.1,2.7l0.6,4.2L65.5,7l-1.1-2.9C64.3,4.1,64.1,4,64,4c-0.2,0-0.3,0-0.5,0h-0.9c-0.2,0-0.4,0-0.7,0s-0.6,0-0.8,0
	c0,0.1,0,0.5,0,1s0,1.1,0,1.8s0,1.3,0,2v3.5c0,1.1,0,2,0,2.9c0,0.8,0,1.3,0,1.6l2.2,0.3l-0.1,1h-6.6l-0.1-1l2.2-0.3
	c0-0.3,0-0.8,0-1.6c0-0.8,0-1.8,0-2.9V8.8c0-0.6,0-1.3,0-2s0-1.3,0-1.8s0-0.8,0-1c-0.2,0-0.5,0-0.8,0s-0.5,0-0.7,0h-1
	c-0.1,0-0.3,0-0.5,0s-0.3,0-0.5,0.1l-1.1,3L53,6.9l0.6-4.2c0.2,0,0.4,0,0.6,0c0.2,0,0.4,0,0.7,0c0.2,0,0.4,0,0.6,0s0.4,0,0.6,0h7.5
	c0.2,0,0.4,0,0.6,0c0.2,0,0.4,0,0.6,0s0.4,0,0.6,0C65.7,2.7,65.9,2.7,66.1,2.7z M69.8,18.1l-0.1-0.9l1.6-0.4c0-0.2,0.1-0.5,0.1-0.9
	s0-0.9,0-1.6c0-0.7,0-1.5,0-2.4V8.6c0-0.6,0-1.2,0-1.9s0-1.3,0-2c0-0.6,0-1.2,0-1.7s0-0.8,0-0.9l-1.9-0.3L69.4,1l3.7-1l0.5,0.4
	c0,0.5,0,1.1-0.1,1.6c0,0.5,0,1.1,0,1.7s0,1.3,0,2.1s0,1.7,0,2.7h0.1c0.6-0.7,1.2-1.1,1.8-1.4c0.6-0.3,1.2-0.4,1.9-0.4
	c0.6,0,1.2,0.2,1.8,0.5c0.6,0.3,1,0.8,1.4,1.5s0.5,1.5,0.5,2.6V14c0,0.6,0,1.2,0.1,1.7c0,0.5,0.1,0.8,0.1,1l1.6,0.4L82.7,18h-5.2
	l-0.1-0.9l1.5-0.4c0-0.1,0-0.3,0.1-0.5c0-0.2,0-0.5,0-0.8s0-0.7,0-1.2v-2.8c0-0.7-0.1-1.3-0.4-1.8s-0.6-0.8-1-1s-0.8-0.3-1.3-0.3
	c-0.6,0-1.1,0.1-1.6,0.4c-0.5,0.3-0.9,0.7-1.3,1.2v3.9c0,0.8,0,1.5,0,2s0.1,0.9,0.1,1l1.6,0.4L75,18.1C75,18.1,69.8,18.1,69.8,18.1z
	 M91.7,18.3c-1,0-1.9-0.2-2.7-0.7c-0.8-0.5-1.5-1.1-1.9-1.9c-0.5-0.8-0.7-1.8-0.7-3s0.3-2.3,0.8-3.2s1.2-1.6,2-2.1s1.7-0.7,2.6-0.7
	c1.4,0,2.4,0.5,3.2,1.3c0.8,0.9,1.1,2.1,1.1,3.8v0.5h-8v-1.1h6.3L94,11.4v-0.5c0-1-0.2-1.8-0.7-2.3c-0.4-0.5-1.1-0.8-1.9-0.8
	c-0.5,0-1,0.1-1.4,0.4c-0.5,0.3-0.8,0.7-1.1,1.3c-0.3,0.6-0.4,1.3-0.4,2.2V12c0,1.4,0.4,2.5,1.1,3.3s1.6,1.2,2.7,1.2
	c0.6,0,1.2-0.1,1.7-0.4c0.5-0.2,0.9-0.6,1.4-1.2l0.7,0.6c-0.5,0.9-1.1,1.6-1.8,2C93.4,18.1,92.6,18.3,91.7,18.3z"/>
<path d="M304.2,52c0,0-0.8,1.3-1.3,1.7c-1.7,3.4-3.8,6.4-5.9,9.8c-0.8,0.9-1.7,2.1-3,3c-3,1.7-3.4,3.8-3,6.4
	c-2.1-0.8-2.5,0.9-3.8,2.1c0,0.4,0.8,0.8,1.3,1.3c0.4-0.8,1.3-1.7,2.1-3c-3.8,5.9-6.8,11.9-12.3,16.5c-2.1,1.7-3,4.7-4.2,7.2
	c-0.4,0.9-0.8,1.7-1.3,2.5c-1.3,3.4-3,6.8-4.7,10.2c-1.7,3-4.2,6.4-6.4,9.8c0-1.3,0-2.1,0.4-3.4c-0.4,0-0.8,0-0.8,0
	c-1.3,2.1-2.1,4.7-3.4,7.2c-0.4,0.8-1.3,1.3-1.7,2.1c-3,4.7-5.5,9.3-8.1,14c2.5-4.7,5.1-9.3,8.1-14c0.4-0.8,1.3-1.3,1.7-2.1
	c1.3-1.3,2.1-2.1,3-3c-2.1,4.7-4.7,9.3-7.2,14c-18.2,33.9-36.9,68.3-54.7,102.2c-5.5,10.2-9.3,20.8-15.3,30.5
	c4.2-9.3,8.1-19.1,12.3-28.4c3.4-7.6,7.2-15.3,11-22.9c-2.5,3.8-4.7,7.6-6.8,11.9c-9.3,18.2-18.7,36.9-25.4,56
	c-0.8,1.7-0.8,3.8-1.7,5.5c-1.3,3-2.5,5.5-4.2,8.1c-7.2-0.4-14,1.7-19.9,6.8c-3.8,3.4-5.9,3.4-9.3,1.3c-0.4-0.8-1.7-2.1-3-1.7
	c-5.1,1.7-6.4-1.7-6.8-5.1c-1.3-4.2-1.7-8.5-2.1-13.1c-1.7-30.5-2.1-61.1-0.4-92.4c0.4-3.4,0.4-6.4,0.4-9.3c-0.4,0-0.8,0-1.7-0.4
	c-1.3,2.5-3.4,4.7-4.2,7.2c-6.8,11.5-14,22.9-20.8,33.9c-12.7,21.6-25.9,42.8-38.6,64c-4.2,8.1-7.6,16.1-11.4,23.7
	c-0.9,1.7-1.7,3-3.4,4.2c1.7-4.2,3.8-8.9,5.5-13.1c-0.4-0.4-0.8-0.4-0.8-0.4c-3,5.9-5.9,11.9-9.3,18.2c1.7,0,2.5,0,4.7,0
	c-3.4,3.8-6.4,7.2-10.2,11c-1.3-1.3-2.1-2.1-3-3c-2.5,2.1-5.1,4.2-7.6,6.8c-2.1-1.3-3.8-1.7-5.5-2.5c-2.1,3.4-3.4,8.5-8.5,7.6
	c-5.5-0.9-1.3-6.4-3.4-9.8c-1.7,2.5-3,5.1-4.7,7.6c-4.2-1.3-5.1-4.2-4.7-8.1c1.3-15.7,2.5-31,3.8-46.6
	c4.2-44.1,11.9-88.6,21.6-133.6C32,120.7,40.4,91,50.2,61.3c1.3-3.8,3-8.1,5.1-11.9c1.7-3.4,4.2-6.4,8.1-7.2c4.2,3.4-1.3,9.3,0,13.1
	c3.4,0,4.2-2.1,5.1-4.2c0.8-2.1,0.8-4.2,2.5-6.4c0.4-1.3,2.1-3,3-3.4c1.7-0.4,3.4,0.4,3,2.5c0,0.9,0,1.7,0,3c2.1-1.7,3.4-3,4.7-4.2
	c3.4-1.3,6.4,1.3,9.3,5.5c0.9-0.4,1.3-0.9,2.1-1.3c0.4,0.9,0.4,1.7,0.4,2.1c-3,14-5.5,28-8.9,42C74.3,129.2,65,167.4,58.2,205.5
	c-1.3,6.8-2.5,13.1-4.2,20.4c3.4-3.8,3.8-3.8,4.2-8.1c3-14.8,5.5-30.1,9.3-44.9c6.4-26.7,13.1-53.4,19.1-80.2
	c2.1-9.3,4.7-18.2,6.8-27.6c0.8-2.5,1.3-5.1,3.4-7.6c-2.1,8.9-4.2,17.8-5.9,26.7c-8.9,37.7-17.4,75.9-26.3,114.1
	c-1.3,5.5-2.1,11-3,17.4c3-1.3,3.8-3.8,5.1-5.5c16.5-22.5,33.9-45,50.9-67.4c3.8-5.1,8.1-10.2,12.7-15.3c3-3.4,4.2-6.4,4.2-10.2
	c2.1-15.3,4.7-31,8.9-46.2c0.8-3,2.1-5.9,3.8-8.5c1.3-2.1,3.8-3.8,5.5-5.9c4.7,3.8,3,8.5,0,14.8c2.5-1.7,3.8-2.1,4.2-3
	c1.7-3,2.5-5.9,3.4-8.5c0.8-2.1,1.3-4.2,4.2-4.2c2.5-0.4,2.1,1.7,2.5,3.4c-0.4,0.4,0,0.9,0,2.1c1.7-1.7,3-3.4,4.7-5.1
	c4.7-0.8,5.9,4.7,10.2,4.2c0.4,3.8,1.7,7.6,1.3,11.9c0,6.4-0.4,13.1-0.8,19.9c0,1.3-0.4,3.4,0,4.2c4.2,3.4,2.1,8.9,0.8,14
	c-0.4,1.3,0,2.1-0.4,3.4c0,0,0,0,0-0.4c-1.3,14.4-2.5,28.4-3.8,42.8c-0.8,11.9-1.7,23.7-3,36.9c1.7-1.3,2.5-2.1,3.4-2.5
	c19.9-39.4,47.1-75.9,72.9-112.8c7.2-10.2,14.8-20.4,22.1-30.5c1.7-2.1,3.8-3.8,5.5-5.9c0.8,0,1.3,0,1.7,0.4c-0.9,3-1.7,5.9-2.5,8.9
	c0.4,0.4,0.8,0.4,1.3,0.4c3-3.8,5.9-7.6,8.9-11.5c0.4,0,0.8,0,1.7,0.4c0,1.3,0,3,0,5.5c1.7-1.7,3-3.4,4.2-4.7
	c4.2,0.4,4.2,0.4,5.5,4.2c0.8-0.9,1.7-1.3,3-1.7C305,46.5,300.3,50.3,304.2,52z M19.2,248.8c0.8-5.1,1.7-10.2,3-15.3
	c-0.4,0-0.8,0-1.7,0c-0.8,5.1-1.7,10.2-2.1,15.3C18.8,248.8,18.8,248.8,19.2,248.8z M21.7,225.1c0.4,0,0.8,0.4,1.7,0.4
	c6.4-43.7,17-87.8,27.6-131.9c-1.3,0.9-1.7,1.3-1.7,1.7c-1.7,5.9-3,12.3-4.7,18.2c-1.3,5.5-2.5,10.6-4.2,15.7
	c-1.3,5.1-2.1,10.2-4.2,15.3c-2.5,5.1-0.8,9.3-2.1,14c-1.3,5.5-1.7,10.6-2.5,15.7C28.1,191.1,25.1,208.1,21.7,225.1z M30.6,262.8
	c8.9-53.4,19.9-106.9,32.2-160.3C47.6,156.4,38.3,209.4,30.6,262.8z M48.9,236.5C57.3,186,68.8,135.6,80.7,85.1
	c-14.8,49.2-24.6,98.8-33.5,148c-0.4,0.8-0.4,2.1,0,3l0.4,0.4C48,236.5,48,236.5,48.9,236.5z M53.1,81.3c1.3-1.3,1.7-1.7,1.7-2.5
	c0.4-0.4,0-0.8,0-1.7c-0.4,0.4-0.9,0.4-0.9,0.4C54,78.3,53.5,79.2,53.1,81.3z M173.1,199.2c0.4-4.7,0.8-9.3,1.3-14
	c1.3-19.5,3.4-39,5.5-58.5c0.4-4.2,1.7-8.5,3-13.1c-0.4-0.8-0.8-1.7-1.7-2.5C177.8,119.9,171.4,190.3,173.1,199.2z M177.4,264.9
	c0,0,0,0-0.4,0c-0.9,2.5-2.1,5.1-2.5,8.1c0.4,0,0.4,0,0.8,0C175.7,270,176.5,267.5,177.4,264.9z M228.7,126.2
	c-0.8,0.4-1.7,0.8-2.5,1.7c-18.2,26.7-33.9,54.7-48.3,83.5c-0.8,2.5-1.7,5.1-2.1,7.6c0.4,0,1.3,0,1.7,0
	C192.2,187.7,209.6,156.4,228.7,126.2z M180.3,276.4c0,0,0.4,0,0.8,0c-1.3,3.8-2.5,7.6-4.2,11.5c-0.4,0-0.9,0-0.9-0.4
	C177.4,284,179.1,280.2,180.3,276.4z M184.2,89.8c0.4-0.8,0.4-1.7,0.8-2.5c0-0.4,0.4-0.4,0.8-0.4c0,0.9,0,2.1-0.4,3
	C185,89.8,184.6,89.8,184.2,89.8z M235.9,161.9c-1.3,1.7-3.4,3.8-4.2,5.5c-5.9,11.5-11.9,22.5-17.8,33.5c-2.5,5.1-4.7,10.2-6.8,14.8
	c0.4-0.9,1.3-1.7,1.7-2.5c8.5-15.7,17-31.4,25.4-47.1c0.8-1.3,1.3-3,1.7-4.7L235.9,161.9l0-0.4L235.9,161.9
	c4.2-7.6,8.1-14.8,12.3-22.5C243.9,147,240.1,154.2,235.9,161.9z M261.8,119.5c0,0,0,0-0.4,0.4c0,0,0,0-0.4,0.4
	C261.3,119.9,261.3,119.9,261.8,119.5z M272.8,99.5c0.4-0.9,0.8-1.7,1.3-2.5c0.4-0.4,0.9-0.8,1.7-1.7c0.4,0.4,0.8,0.4,0.8,0.9
	C275.8,97.4,274.1,98.7,272.8,99.5z M335.5,248.8c0.4,0.4,0.4,0.4,0.9,0.4c-1.7,2.1-2.5,4.7-4.2,6.8c-0.4,0.8-1.7,2.1-2.1,3
	c0,3.8-3.4,5.1-5.5,6.8c-2.5,2.1-5.1,1.7-7.6,1.7c-2.1,0-4.7,0-6.8,0.4c-4.2,0.8-6.8,0-9.3-1.7c-5.5-4.2-8.1-10.6-9.3-17.8
	c-2.1-19.5,0.8-39.4,8.9-59.8c4.7-11.9,10.2-23.7,15.7-35.6c3.8-7.2,9.3-14.4,14-21.6c2.1-3.4,5.5-7.2,9.8-8.1
	c2.1,2.1,0.4,4.7,0.4,7.2c-0.4,0.9-0.9,1.7-1.7,1.7c-4.2,0.8-4.7,4.2-5.9,6.8c4.2-3,8.1-6.4,11-10.6c1.3-2.1,3-4.2,5.9-3
	c-0.4,1.3-0.8,3-1.3,5.1c1.7-1.3,3.4-2.1,5.1-3.4c2.5,1.3,2.1,4.2,3,6.8c0.4,0,1.3,0,2.1,0c0,0.4,0,0.8,0,1.3
	c-3,6.4-5.9,12.3-8.9,18.7c-5.5,11-11.4,22.5-15.7,33.5c-5.1,11.9-8.1,24.2-10.6,36.5c0.4-1.3,0.4-2.1,1.3-3c0.4,0,0.4,0,0.8,0
	c-0.8,2.5-1.7,5.5-3,8.1c-1.7,4.7-3.4,8.9-1.3,13.1c0.4,1.7,0,4.2-0.4,7.2c2.1-2.1,3.8-3.8,5.9-5.5c0.4,0,0.8,0,1.3,0.4
	c-0.8,2.1-1.7,4.2-2.5,6.4c0.4,0,0.4,0,0.8,0.4c1.3-2.1,3-3.8,4.7-5.5c2.5,1.3,2.5,1.3-0.4,8.9C333,252.2,334.3,250.5,335.5,248.8z
	 M327.9,207.7c0.4,0,0.8,0,1.3,0c0,2.5-1.7,4.7-3.4,7.2C326.6,212.3,327.1,210.2,327.9,207.7z M331.7,142.4c0.4-0.8,0.4-1.7,0.8-2.5
	c-0.8,0.8-1.3,1.7-2.1,2.5C330.9,142.4,331.3,142.4,331.7,142.4z M331.3,201.3c-0.4,0-0.4,0-0.8,0c0-0.4,0.4-1.3,0.4-1.7
	c0.4,0,0.4,0,0.8,0C331.7,200,331.3,200.9,331.3,201.3z M390.7,61.8c-1.7,3.4-3.8,6.8-5.9,10.6c-3,5.9-6.4,11.4-9.8,17.4
	c-1.7,4.2-3,8.5-2.5,12.3c0,3-0.8,5.1-3.8,6.8c-0.4,0-0.8,0.9-0.8,1.3c-3.8-0.4-7.6-0.9-11.4-1.3c-0.4,0.4-0.8,0.4-0.8,0.4
	c-5.1,4.7-6.4,4.7-8.5,0.4c-0.9-0.9-0.9-1.7-1.3-2.1c-6.4-1.7-4.7-7.2-4.7-11.9c0-3.8,1.3-7.2,2.1-10.6c3-8.1,5.9-16.1,9.3-24.2
	c1.7-4.7,4.7-8.9,8.9-11.9c1.7-0.8,3-1.3,4.2-2.1c0,3.4,0.4,5.5-0.4,8.1c-0.8,2.5-2.5,5.1-4.2,8.1c5.1-0.4,5.5-4.2,7.2-6.4
	c2.1-2.5,3.8-5.5,5.5-8.1c3,0,4.2,0.9,4.2,3.8c-0.8,5.1-3.8,9.8-6.4,14.4c-1.7,2.5-4.2,5.5-4.2,8.5c5.5-7.6,9.3-16.5,15.3-24.2
	c4.7,2.1,5.9,4.7,3.8,9.3c-0.4,0.9-0.4,1.7-1.3,2.5c1.7-1.7,3.8-3.8,5.9-5.5C392.4,58.4,391.5,60.1,390.7,61.8z M341.5,174.6
	c3.4-9.3,8.1-18.2,13.6-28.4C354.6,150,346.1,168.7,341.5,174.6z M345.7,136.8c-0.4-0.4-0.8-0.4-0.8-0.4c-0.8,0.9-0.8,1.3-1.3,2.1
	c0.4,0,0,0.4,0.4,0.4C344.4,138.1,344.9,137.3,345.7,136.8z M358.9,103.3c-0.4-0.4,0-1.3-0.4-1.7c-0.8,0.4-1.7,0.9-1.7,0.9
	c0,0.4,0.4,1.3,0.8,1.3C357.6,104.2,358.9,103.3,358.9,103.3z M357.2,143.2c0,0,0,0-0.4-0.4c0.4-0.9,1.3-1.7,1.3-2.5
	c0.4,0,0.4,0,0.8,0c-0.4,0.8-0.8,2.1-1.3,3C357.6,143.2,357.6,143.2,357.2,143.2z M385.2,63.5c-2.5,4.2-5.5,8.9-7.2,13.1
	c-2.5,4.7-5.9,8.9-6.4,13.6c1.3-0.9,1.7-1.7,2.5-2.5c3-6.4,6.4-12.7,9.8-19.1C384.3,66.9,384.7,65.2,385.2,63.5z M391.9,67.7
	c-1.3,1.7-2.5,3.8-4.2,5.9C388.6,71.1,388.6,68.1,391.9,67.7z M394.5,63.1c-0.9,1.7-1.7,3-2.5,4.7c0.4-1.7,0.8-3.4,1.7-4.7
	C393.6,63.1,394.1,63.1,394.5,63.1z M432.6,204.3c-0.4,2.5-0.8,5.1-1.3,7.2c-2.5,8.5-5.5,17.4-7.6,25.9c-3.4,12.7-5.9,25.4-9.3,38.2
	c0.4,0.8-0.4,1.7-0.4,2.5c-2.5-1.3-1.3-4.2-1.7-6.4c-2.1,3.4-3.4,8.1-8.1,8.5c-0.8-1.7-1.3-3.4-2.5-5.5c-0.4,3.4-0.8,6.4-1.3,8.9
	c-0.4,2.1-2.1,3.4-3.8,3.8c-2.1,0.4-3.8-0.4-3.8-2.5c-0.4-2.5,0-5.1,0.4-7.6c3.8-19.9,8.1-39.4,12.3-58.9
	c10.6-49.2,25.9-98.4,40.3-147.6c2.1-5.9,4.2-12.3,6.4-18.2c0.8-2.5,2.1-5.5-0.8-8.1c-2.1,5.5-3.8,10.2-5.5,14.8
	c-4.7,17.8-10.6,35.2-15.7,52.6c-9.8,33.9-18.7,67.4-26.7,101.8c-3.4,14.8-6.8,29.7-10.2,44.5c-0.4,5.9-1.3,12.7-1.7,19.1
	c0,1.3-0.4,3-0.4,4.2c0,1.7-0.8,3.4-3,3.8c-1.3,0.4-3-0.4-3.4-1.3c-0.8-3-1.3-6.4-0.8-10.2c1.7-9.3,3-18.2,4.7-28
	c5.1-25,11-50.5,17-75.9c9.8-38.6,20.8-77.2,33.5-116.2c1.7-5.1,3.4-10.6,6.4-15.7c1.7-3,4.2-5.9,6.8-8.9c2.1-2.5,4.2-2.1,5.1,0.9
	c0.4,1.3,0.8,3,0.8,4.2h0.4c2.1-2.5,3.8-5.5,6.4-8.1c0.4-0.4,1.7,0,3,0c1.7,5.9-0.8,12.3-2.5,18.7c0.8-2.1,2.1-4.7,3.4-6.8
	c1.7-3.8,2.5-8.1,3.8-11.4c5.5-1.3,6.4,2.5,8.1,5.1c0.8-0.4,2.1-0.9,3-1.7c0.4,0.4,0.8,0.8,0.8,0.8c0,3,0,5.5-1.3,8.5
	c-10.6,34.4-21.2,69.1-32.2,104.3C444.5,164,439,184.3,432.6,204.3z M488.6,35.9c-1.7,5.9-2.5,11.9-4.2,17.4
	c-7.6,22.5-14.4,44.1-22.1,66.2c-14.4,44.1-28.4,88.2-39.4,132.3c-2.1,6.8-3.4,14-5.9,20.8c1.3-5.1,2.1-11,3.4-16.5
	c3.4-13.1,6.8-26.7,10.6-39.9c0-1.7,0-3.4,0.4-4.7c2.1-6.4,4.2-12.3,6.4-18.7c8.5-26.3,16.1-51.7,24.6-78
	c6.8-21.6,14.4-44.1,21.6-66.6C485.2,44,486.5,39.7,488.6,35.9z M453,82.6c4.7-10.6,8.1-21.6,11.9-32.7c0.4-1.7,0.4-3,0.4-5.1
	c-0.4,1.7-0.8,3.4-1.3,4.7c-3.4,8.5-8.1,16.5-9.3,25.4c0.4,0.8-0.4,2.1-0.4,3.4C453.4,80,453.9,81.3,453,82.6z M457.7,107.2
	c0,0-0.4-0.4-0.9-0.4c-0.4,1.3-0.4,2.5-0.8,3.4c0,0,0.4,0,0.8,0C457.2,108.9,457.2,108,457.7,107.2z M461.9,93.6
	c6.8-15.3,11.4-30.5,15.3-45.8C470.8,62.6,466.2,77.9,461.9,93.6z M611.2,217.8c-0.8,2.1-0.8,4.2-0.8,6.4
	c6.8-16.1,12.3-31.8,19.1-47.9c6.8-15.7,14.4-31.8,21.6-47.9c7.2-15.7,16.1-31.4,24.2-46.6c0,0,0.4,0,0.8,0
	c-2.5,5.5-5.1,10.6-7.6,15.7c-11.9,24.6-25,49.6-36,74.2c-7.6,16.1-12.7,32.2-18.7,48.3c-1.3,3-0.8,6.4-2.5,9.8
	c-2.1,4.7-2.1,9.8-6.8,14c-1.3,1.3-3,3-3.4,4.2c-2.1,8.5-4.7,17.4-6.8,25.9c-0.4,2.1,0,4.7,0,6.8c0.4,5.1-1.3,6.8-6.8,6.4
	c-1.7-0.4-3.4-0.8-5.1-1.3c-1.7,1.7-3.8,3.8-5.5,5.9c-4.7-3-10.2-5.1-8.9-12.3c0-3.4,0.4-6.8,0.8-10.6c0-1.7,0.9-3.8,0.9-6.4
	c-3,0.4-5.9,0.8-8.5,1.3c-11.9,3-23.3,3-34.8,2.1c-3.4-0.4-5.9-0.8-9.3-1.3c-19.5-2.1-29.3-17-28.8-31.4c0-8.5,3.4-17,7.2-25.9
	c5.9-12.7,14.4-24.2,25-34.8c15.7-16.1,33.1-29.7,52.6-39.9c10.2-5.1,19.9-8.5,29.7-7.2c3.8,0.4,7.2,1.7,11.5,3.4
	c0.8-2.1,1.7-4.2,3-6.4c8.1-16.5,16.5-33.1,25-49.6c3.8-7.2,8.1-14,12.3-20.8c2.1-3,5.1-5.9,8.1-8.9c1.7-1.3,3.4-2.1,5.5-3
	c0.4,0,0,0.4,0.4,0.4c-3,5.5-6.4,11-9.3,16.5c0.4,0.4,0.8,0.4,0.8,0.8c3.8-3.8,8.1-6.8,11.5-11.4c1.3-2.1,3-4.7,5.5-4.2
	c0,3.4-3,9.8-8.5,18.2c5.9-5.1,8.5-11,13.1-15.7c3.4,2.1,3.8,3,1.7,9.3c0.8-0.9,1.7-1.7,2.1-2.1c0.4-0.4,1.3-0.8,2.5-1.3
	c-0.8,2.1-1.7,4.2-2.5,5.9c-8.5,16.5-17,33.1-25.4,49.6c-12.7,24.6-25,49.2-34.8,74.2C620.5,192.8,615.9,205.5,611.2,217.8z
	 M509,199.2c16.5-19.5,35.2-37.3,55.6-53c-6.8,3-13.1,7.2-18.7,11.9c-7.2,6.4-14,13.6-21.6,19.9C516.6,183.9,512,190.7,509,199.2z
	 M517.9,204.7c5.1-6.8,10.6-13.6,15.7-19.9c-1.7,0-2.5,0-3,0.9c-4.7,5.9-9.3,12.3-14,19.1C517,204.7,517.5,204.7,517.9,204.7z
	 M604,155.5c0.4-1.3,0.4-2.5,1.3-4.7c-1.7,0.4-3.4,0.9-4.2,1.3c-2.5,1.3-4.7,2.1-7.2,3.4c-21.6,11.9-39.4,27.6-54.7,46.6
	c-2.1,2.1-4.2,4.7-5.9,6.8c1.7-2.5,3-5.9,5.1-8.1c7.2-8.1,14.8-15.7,22.5-23.3c3.8-3.8,8.1-7.2,13.1-11.5
	c-17,8.1-46.6,40.7-48.3,52.2c0.8,0,1.3-0.4,1.7-0.4c1.7-3.4,2.1-6.4,5.9-8.9c-2.1,3-3.8,5.9-5.9,8.9c-1.3,3.8-2.5,8.1-4.7,11.5
	c-3,5.5-2.5,9.8-1.7,14.4c0.8,2.1,2.1,3.4,4.7,3.4c14.8,0.8,30.5-1.7,46.2-9.3c3.8-1.7,5.5-3.8,7.2-7.6
	C586.6,205.1,595.5,180.5,604,155.5z M525.5,209.8c7.2-9.3,15.3-18.7,22.9-28.4C538.7,189,527.6,202.6,525.5,209.8z M553.5,175.4
	c-0.4,0.9-1.3,1.3-1.7,2.1c0.4,0,0.4,0.4,0.8,0.4c0.4-0.4,0.8-1.3,2.1-1.7C554.4,175.9,553.9,175.9,553.5,175.4z M576.4,265.3
	c0-0.4-0.4-0.9-0.9-1.7c-0.8,0.8-1.3,1.3-1.3,1.7c0,0.4,0.8,0.8,1.3,1.3C575.6,266.2,576.4,265.8,576.4,265.3z M586.6,259.4
	c0-0.4,0-0.9,0-1.3c-0.4,0-0.4,0-0.4,0c0,0.4-0.4,1.3-0.4,1.7C586.2,259.8,586.2,259.8,586.6,259.4z M597.2,192.8h-0.4
	c-0.4,1.3-0.4,2.1-0.9,3.4h0.4C596.8,194.9,596.8,194.1,597.2,192.8z M601,184.3h-0.4c-0.4,0.9-0.4,1.7-1.3,3.4
	C599.7,186.5,600.6,185.2,601,184.3z M602.3,251.8c0.4-1.3,0.8-3,1.3-4.2c0,0,0,0,0.4,0c-0.4,1.3-0.8,3-1.3,4.2
	C602.3,251.8,602.3,251.8,602.3,251.8z M609.5,214c-0.4,0-0.4,0-0.4,0c-0.4,1.3-0.8,3-1.3,4.7c0,0,0,0,0.4-0.4
	C608.6,217,609.1,215.3,609.5,214z M608.6,191.1c0,0,0.4-0.4,0-0.4c-0.4,0.4-0.4,0.9-0.4,1.7C608.6,191.6,608.6,191.6,608.6,191.1z
	 M615.4,200c-3,1.7-3,4.2-3.4,6.8C613.3,204.7,614.2,202.2,615.4,200z M612.9,180.1c-0.4,0.4-0.4,0.4-0.4,0.4c0,0.4-0.4,0.8,0,1.3
	C612.5,181.4,612.9,180.5,612.9,180.1z M616.3,170.3c0,0.4,0,0.8,0,1.3C616.3,171.2,616.3,170.8,616.3,170.3z M620.5,185.2
	c9.3-20.8,18.2-41.6,27.6-62.3c1.3-2.5,2.5-5.1,3.4-7.6c-0.4,0-0.4-0.4-0.4-0.4c-6.8,13.1-12.7,25.9-18.7,38.6
	c-5.1,11.4-9.3,22.9-14,34.3C619.2,186.9,620.1,186.5,620.5,185.2z M620.5,160.2h-0.4c-0.4,0.9-0.4,1.7-0.8,2.5h0.4
	C620.1,161.9,620.1,161,620.5,160.2z M629,140.2c1.3-1.7,1.7-3,2.5-4.7c-0.4,0-0.8,0-1.3,0c0,1.3-0.8,3-1.7,4.7H629z M634.1,128.4
	h0.4c0.8-1.3,1.7-2.5,1.7-3.8h-0.4C635.4,125.8,634.5,127.1,634.1,128.4z"/>
</svg>
