<?xml version="1.0" encoding="utf-8"?>
<!-- Generator: Adobe Illustrator 26.1.0, SVG Export Plug-In . SVG Version: 6.00 Build 0)  -->
<svg version="1.1" id="Layer_1" xmlns="http://www.w3.org/2000/svg" xmlns:xlink="http://www.w3.org/1999/xlink" x="0px" y="0px"
	 viewBox="0 0 42.5 50" style="enable-background:new 0 0 42.5 50;" xml:space="preserve">
<style type="text/css">
	.st0{fill:#D8D1C3;}
	.st1{fill:#424E78;}
</style>
<path class="st0" d="M23.3,0.7c10.2,0,18.5,8.3,18.6,18.4c0,9.7-0.1,17.3-0.1,27l-37,0c0-9.6-0.1-17.3-0.1-26.9
	C4.8,9,13.1,0.7,23.3,0.7"/>
<path class="st1" d="M41.9,24.4c0-2.4,0-6.7,0-6.7s-3.6-0.2-3.6,2.8c0,0-19.9-4.6-21.9,1.5c-1.8,5.6-0.7,12.3-0.4,13.4
	c0,0,0,0,0.1,0l0,0.2l0,0l0,0l0,0.2c-3.2-0.7-6.1-3.3-8-5.4c-1.8-2-3.1-4-3.3-4.3c-1,0-2.1-0.4-2.7-1.1c-0.4,2.6-3.6,24.6,4.5,24.6
	c8.5,0,22.5,0,22.5,0s7.3,2.4,7.3-7.7c0,0,1.4-0.7,1.4,1.2s-0.5,2.2,1.7,2.7c2.2,0.5-0.3,2.4,2.3,2.4c0,0,2.1-20.3-6.6-22.5
	C37.3,25.9,41.9,26.1,41.9,24.4z M32,47.9L31.9,48l-0.1-0.1c0,0,0,0.1,0,0.1c0,0.3-0.2,0.5-0.4,0.7l-0.1,0.1l-0.7-0.7
	c0.1,0.2,0.1,0.5,0.1,0.7c0,0.3-0.2,0.5-0.4,0.6l-0.1,0.1l-0.7-0.7c0,0,0,0,0,0.1c0,0.2-0.1,0.4-0.4,0.6L29,49.6l-1.7-1.7l0.2-0.2
	l1.5,1.5c0.1-0.1,0.1-0.2,0.1-0.3c0-0.3-0.2-0.6-0.3-0.7l0,0l0.2-0.2c0,0,0,0,0,0l1.2,1.2c0.1-0.1,0.1-0.2,0.2-0.3
	c0.1-0.6-0.5-1.4-0.5-1.4l0.2-0.2l1.2,1.2c0.1-0.1,0.2-0.3,0.2-0.4c0-0.3-0.2-0.5-0.3-0.8l-0.4-0.4l0.2-0.2c0,0,0.2,0.2,0.4,0.4
	l0.5,0.5c0.2-0.2,0.4-0.4,0.4-0.7c0-0.8-1.2-1.6-1.3-1.7c-0.2-0.1-8-4.5-13.1-4.5c-5.1,0-7.7-1.6-9-3c-1.4-1.5-1.7-3-1.7-3l0.3,0
	c0,0,0.2,1.4,1.6,2.9c1.3,1.3,3.8,2.9,8.8,2.9c5.3,0,13.2,4.5,13.3,4.5l0,0c0.1,0,1.4,1,1.4,2C32.6,47.2,32.4,47.6,32,47.9z
	 M36.3,41.7L36,41.9L25.9,25.3h7v0.3h-6.5L36.3,41.7z M1.5,23.5c0-1.4,1.5-2.9,3-2.9c1,0,1.8,0.3,2.4,0.9c0.5,0.5,0.8,1.2,0.8,1.9
	c0,1.4-1.5,2.3-3,2.3C3.2,25.7,1.5,24.8,1.5,23.5z M4.5,20.3c-0.6,0-1.2,0.2-1.7,0.6c0,0,0,0,0,0c0-9.6,23.8-6.5,25.2-6.3v0
	c0,0,3-0.6,3,1.2H30c0.6,0,1.3,0.2,1.3,1h-2c0,0,1.9,0.2,1.9,1.2h-2c0.2,0,1.3,0,1.3,0.8l-2.5,0c-19.5,0-17.9,3.6-17.8,10.4
	c0.1,2.3,0.9,3.8,2,4.8C8.5,31.3,5.6,27,5,26C6.5,25.9,8,24.9,8,23.4c0-0.8-0.3-1.6-0.9-2.1C6.7,20.8,5.9,20.3,4.5,20.3
	C4.5,20.3,4.5,20.3,4.5,20.3z"/>
</svg>
