<svg width="1044" height="352" viewBox="0 0 1044 352" fill="none" xmlns="http://www.w3.org/2000/svg">
<path d="M1006.51 1H991.057H49.7203C22.803 1 1 22.8125 1 49.7415V243.63V265.673V351H49.7203H71.754H994.325C1021.24 351 1043.05 329.187 1043.05 302.258V65.2064V49.7415V1H1006.51Z" fill="#EB690B" stroke="#EB690B" stroke-miterlimit="10"/>
<path d="M223.068 92.3278L199.996 105.985C195.689 98.4829 191.575 93.5973 187.652 91.3275C183.576 88.7116 178.347 87.4036 171.925 87.4036C164.042 87.4036 157.466 89.6349 152.275 94.1359C147.084 98.5215 144.469 104.061 144.469 110.755C144.469 119.949 151.314 127.374 164.965 132.991L183.769 140.685C199.073 146.878 210.263 154.418 217.338 163.343C224.414 172.268 227.951 183.194 227.951 196.158C227.951 213.508 222.183 227.858 210.609 239.168C198.958 250.555 184.538 256.287 167.272 256.287C150.929 256.287 137.394 251.44 126.742 241.707C116.245 231.974 109.708 218.317 107.093 200.736L135.894 194.389C137.202 205.468 139.47 213.123 142.739 217.355C148.584 225.511 157.159 229.55 168.387 229.55C177.27 229.55 184.614 226.588 190.459 220.625C196.304 214.701 199.265 207.161 199.265 198.043C199.265 194.389 198.765 191.042 197.727 187.964C196.689 184.887 195.112 182.117 192.959 179.539C190.805 176.962 187.998 174.577 184.614 172.345C181.231 170.114 177.116 167.96 172.425 165.921L154.236 158.342C128.434 147.455 115.552 131.49 115.552 110.524C115.552 96.3671 120.974 84.5568 131.78 75.0163C142.585 65.3988 156.082 60.6285 172.194 60.6285C193.882 60.7054 210.878 71.2462 223.068 92.3278Z" fill="white"/>
<path d="M282.94 317.608H255.484V133.991H282.94V146.917C293.745 136.107 306.05 130.682 319.778 130.682C336.121 130.682 349.579 136.722 360.192 148.763C370.921 160.727 376.304 175.846 376.304 194.042C376.304 211.854 370.959 226.742 360.308 238.591C349.733 250.401 336.39 256.287 320.278 256.287C306.358 256.287 293.899 250.709 282.94 239.553V317.608ZM348.233 194.158C348.233 182.771 345.157 173.5 338.966 166.306C332.698 159.073 324.815 155.419 315.279 155.419C305.204 155.419 297.014 158.919 290.746 165.921C284.478 172.922 281.363 182.117 281.363 193.504C281.363 204.66 284.478 213.854 290.746 221.087C296.937 228.165 305.05 231.705 315.163 231.705C324.7 231.705 332.544 228.127 338.735 220.971C345.08 213.854 348.233 204.93 348.233 194.158Z" fill="white"/>
<path d="M395.992 192.581C395.992 175.423 402.145 160.804 414.411 148.763C426.678 136.722 441.675 130.682 459.325 130.682C477.052 130.682 492.125 136.761 504.469 148.879C516.659 160.997 522.773 175.923 522.773 193.581C522.773 211.392 516.62 226.357 504.354 238.398C491.972 250.363 476.821 256.364 458.825 256.364C441.021 256.364 426.063 250.247 414.027 238.052C402.029 225.973 395.992 210.815 395.992 192.581ZM424.063 193.081C424.063 204.968 427.255 214.355 433.6 221.279C440.098 228.281 448.673 231.781 459.363 231.781C470.092 231.781 478.667 228.319 485.127 221.395C491.549 214.47 494.779 205.237 494.779 193.696C494.779 182.155 491.549 172.884 485.127 165.959C478.628 158.958 470.015 155.457 459.363 155.457C448.865 155.457 440.367 158.958 433.869 165.959C427.332 172.961 424.063 182.001 424.063 193.081Z" fill="white"/>
<path d="M576.607 159.612V252.902H549.152V159.612H537.423V133.952H549.152V90.3657H576.607V133.952H597.949V159.612H576.607Z" fill="white"/>
<path d="M653.552 227.011H724.229V252.902H599.141L676.163 159.612H615.484V133.952H730.459L653.552 227.011Z" fill="white"/>
<path d="M852.625 199.89H767.451C768.182 209.661 771.373 217.432 776.949 223.203C782.563 228.896 789.754 231.743 798.56 231.743C805.404 231.743 811.057 230.127 815.518 226.857C819.901 223.587 824.9 217.586 830.514 208.776L853.702 221.702C850.126 227.819 846.319 233.051 842.358 237.398C838.359 241.745 834.091 245.323 829.553 248.131C824.977 250.94 820.094 252.978 814.787 254.286C809.48 255.594 803.751 256.248 797.56 256.248C779.833 256.248 765.567 250.555 754.838 239.168C744.11 227.704 738.726 212.47 738.726 193.504C738.726 174.692 743.918 159.496 754.338 147.84C764.836 136.376 778.756 130.644 796.06 130.644C813.556 130.644 827.4 136.222 837.551 147.378C847.626 158.458 852.702 173.807 852.702 193.427L852.625 199.89ZM824.439 177.423C820.593 162.766 811.365 155.457 796.752 155.457C793.407 155.457 790.292 155.957 787.37 156.996C784.447 158.035 781.756 159.496 779.372 161.381C776.987 163.305 774.911 165.613 773.219 168.268C771.527 170.922 770.22 174 769.297 177.423H824.439Z" fill="white"/>
<path d="M879.504 133.991H906.959V144.609C911.997 139.3 916.457 135.683 920.38 133.722C924.379 131.683 929.07 130.682 934.53 130.682C941.76 130.682 949.335 133.029 957.218 137.761L944.644 162.92C939.452 159.189 934.338 157.304 929.378 157.304C914.419 157.304 906.921 168.614 906.921 191.234V252.902H879.465V133.991H879.504Z" fill="white"/>
<path fill-rule="evenodd" clip-rule="evenodd" d="M56.3343 53.8578C65.294 37.0849 79.7139 25.1591 96.2104 19.0039L98.8637 27.7366C84.5591 33.1994 72.1002 43.5478 64.3326 58.128C56.5651 72.6696 54.9116 88.827 58.3339 103.753L49.605 106.408C45.529 89.2501 47.4132 70.6307 56.3343 53.8578Z" fill="white"/>
<path fill-rule="evenodd" clip-rule="evenodd" d="M78.3296 65.5911C84.0207 54.8965 93.0956 47.1256 103.516 42.8939L106.17 51.6266C97.9792 55.1658 90.8653 61.3594 86.3278 69.8613C81.7904 78.3632 80.5983 87.7114 82.2518 96.4826L73.5229 99.137C71.2157 88.0961 72.6 76.2858 78.3296 65.5911Z" fill="white"/>
<path fill-rule="evenodd" clip-rule="evenodd" d="M988.096 292.333C979.136 309.106 964.716 321.032 948.22 327.187L945.566 318.454C959.871 312.992 972.33 302.643 980.097 288.063C987.865 273.521 989.518 257.364 986.096 242.438L994.825 239.783C998.94 256.941 997.017 275.599 988.096 292.333Z" fill="white"/>
<path fill-rule="evenodd" clip-rule="evenodd" d="M966.139 280.638C960.448 291.333 951.373 299.104 940.952 303.336L938.299 294.603C946.489 291.064 953.603 284.87 958.141 276.368C962.678 267.866 963.87 258.518 962.217 249.747L970.946 247.092C973.214 258.095 971.83 269.944 966.139 280.638Z" fill="white"/>
</svg>
