<svg width="1000" height="241" viewBox="0 0 1000 241" fill="none" xmlns="http://www.w3.org/2000/svg">
<path d="M133.242 95.9906C128.006 91.8748 121.595 88.4359 114.035 85.674C106.476 82.912 98.0766 80.3397 88.8373 77.9297C81.7258 76.2238 75.4543 74.5721 70.0227 73.0287C64.5911 71.4852 60.1115 69.7523 56.5557 67.8568C53 65.9614 50.2842 63.7681 48.4083 61.2769C46.5325 58.7858 45.6085 55.6448 45.6085 51.8539C45.6085 45.3281 48.1004 40.2375 53.084 36.6362C58.0676 33.0348 65.627 31.2206 75.7623 31.2206C81.4458 31.2206 87.0454 31.8976 92.561 33.2785C98.0766 34.6595 103.2 36.3383 107.904 38.315C112.607 40.2917 116.611 42.3225 119.915 44.3804C123.191 46.4383 125.458 48.0901 126.718 49.2815L142.985 20.3895C134.614 14.8928 124.843 10.1271 113.643 6.06541C102.444 2.03083 90.1812 0 76.8262 0C67.2229 0 58.2356 1.24558 49.8922 3.73673C41.5209 6.22788 34.1854 9.88338 27.8859 14.7032C21.5584 19.5231 16.6307 25.5343 13.075 32.7641C9.51928 39.9938 7.72742 48.2525 7.72742 57.5402C7.72742 64.6075 8.84733 70.6458 11.0592 75.7364C13.271 80.8 16.6027 85.2949 21.0544 89.1399C25.5061 93.012 31.0496 96.3697 37.7411 99.2128C44.4046 102.056 52.272 104.683 61.3434 107.092C68.8188 109.15 75.5663 111.046 81.6138 112.779C87.6614 114.512 92.813 116.38 97.0966 118.465C101.352 120.523 104.656 122.933 106.98 125.695C109.276 128.457 110.452 131.814 110.452 135.768C110.452 148.332 100.316 154.614 80.0459 154.614C72.7385 154.614 65.627 153.747 58.7116 152.042C51.7681 150.336 45.4686 148.224 39.785 145.732C34.1014 143.241 29.1458 140.75 24.9741 138.259C20.8024 135.768 17.9186 133.737 16.2948 132.194L0 162.791C11.0312 170.373 23.4622 176.195 37.3492 180.338C51.2081 184.454 65.2631 186.539 79.486 186.539C88.7253 186.539 97.5726 185.537 106.028 183.56C114.483 181.583 121.931 178.442 128.426 174.137C134.922 169.832 140.073 164.199 143.909 157.24C147.745 150.281 149.649 141.887 149.649 132.085C149.649 123.664 148.221 116.57 145.393 110.802C142.537 105.062 138.506 100.106 133.242 95.9906Z" fill="url(#paint0_linear)"/>
<path d="M301.565 63.9031C295.602 57.4315 288.518 52.3138 280.259 48.4958C272.028 44.6779 263.04 42.7824 253.325 42.7824C242.322 42.7824 232.635 45.1382 224.207 49.8227C215.78 54.5071 208.92 60.9516 203.601 69.0749V45.1653H171.459V205.384C171.459 225.043 187.95 240.992 208.276 240.992V159.975C213.036 168.315 219.644 174.895 228.071 179.769C236.498 184.643 246.382 187.08 257.749 187.08C266.904 187.08 275.331 185.211 283.031 181.502C290.73 177.792 297.366 172.647 302.937 166.094C308.509 159.542 312.877 151.825 315.984 142.97C319.092 134.116 320.66 124.638 320.66 114.538C320.66 104.79 318.952 95.5299 315.564 86.7838C312.177 77.9835 307.501 70.3747 301.565 63.9031ZM280.259 130.46C278.439 135.605 275.863 140.127 272.56 143.999C269.256 147.898 265.28 151.012 260.604 153.287C255.929 155.588 250.861 156.753 245.346 156.753C237.478 156.753 230.143 154.153 223.367 148.9C216.592 143.674 211.552 137.067 208.248 129.106V96.4505C209.536 93.0929 211.412 89.9789 213.876 87.1629C216.34 84.3197 219.14 81.8556 222.247 79.7165C225.355 77.6044 228.743 75.9527 232.411 74.7883C236.078 73.6511 239.634 73.0554 243.134 73.0554C248.817 73.0554 254.081 74.1114 258.925 76.2505C263.768 78.3626 267.996 81.287 271.552 85.0237C275.135 88.7334 277.907 93.12 279.923 98.1835C281.939 103.22 282.947 108.69 282.947 114.538C283.003 120.008 282.107 125.342 280.259 130.46Z" fill="url(#paint1_linear)"/>
<path d="M467.229 64.4446C460.733 57.8106 452.838 52.5304 443.598 48.6312C434.359 44.732 423.86 42.7824 412.129 42.7824C400.398 42.7824 389.87 44.732 380.519 48.6312C371.168 52.5304 363.244 57.8106 356.749 64.4446C350.253 71.0787 345.242 78.7417 341.77 87.4336C338.298 96.1256 336.562 105.332 336.562 115.08C336.562 124.638 338.298 133.764 341.77 142.456C345.242 151.148 350.253 158.811 356.749 165.445C363.244 172.079 371.168 177.359 380.519 181.258C389.87 185.157 400.398 187.107 412.129 187.107C423.86 187.107 434.387 185.157 443.738 181.258C453.09 177.359 460.957 172.079 467.369 165.445C473.78 158.811 478.736 151.148 482.207 142.456C485.679 133.791 487.415 124.666 487.415 115.08C487.415 105.332 485.679 96.1256 482.207 87.4336C478.736 78.7417 473.724 71.0787 467.229 64.4446ZM446.902 131.787C444.97 136.932 442.311 141.345 438.923 145.082C435.535 148.792 431.559 151.689 426.968 153.72C422.376 155.751 417.448 156.78 412.129 156.78C406.809 156.78 401.882 155.751 397.29 153.72C392.698 151.689 388.723 148.792 385.335 145.082C381.947 141.372 379.287 136.986 377.355 131.922C375.424 126.886 374.472 121.254 374.472 115.053C374.472 109.042 375.424 103.464 377.355 98.3189C379.287 93.1741 381.919 88.7604 385.335 85.0237C388.723 81.3141 392.698 78.3897 397.29 76.2505C401.854 74.1385 406.809 73.0553 412.129 73.0553C417.448 73.0553 422.376 74.0843 426.968 76.1151C431.531 78.146 435.535 81.0433 438.923 84.7529C442.311 88.4626 444.97 92.9033 446.902 98.0481C448.834 103.193 449.786 108.771 449.786 114.782C449.786 120.983 448.834 126.669 446.902 131.787Z" fill="url(#paint2_linear)"/>
<path d="M711.986 87.2445C721.533 76.1697 726.797 62.1164 726.797 47.711V45.0574H607.694V74.9242H680.096L619.313 144.947C609.737 155.995 604.446 170.021 604.446 184.454V187.107H728.14V157.268H651.65L711.986 87.2445Z" fill="url(#paint3_linear)"/>
<path d="M871.91 63.5516C865.387 56.9717 857.38 51.6645 848.112 47.7653C838.845 43.8661 828.178 41.8894 816.475 41.8894C804.771 41.8894 794.02 43.8661 784.557 47.7653C775.094 51.6645 766.974 57.0259 760.339 63.687C753.731 70.3481 748.608 78.2006 745.108 86.9738C741.636 95.747 739.844 105.224 739.844 115.162C739.844 124.747 741.664 134.008 745.248 142.7C748.832 151.392 753.983 159.136 760.619 165.716C767.226 172.296 775.318 177.549 784.697 181.367C794.048 185.185 804.659 187.107 816.195 187.107C832.321 187.107 846.404 183.641 858.051 176.818C869.727 169.994 878.322 161.113 883.669 150.417L884.145 149.442L850.856 140.479L850.548 141.211C848.28 146.626 843.968 151.04 837.725 154.37C831.425 157.728 824.65 159.407 817.539 159.407C812.947 159.407 808.439 158.622 804.212 157.078C799.956 155.535 796.12 153.287 792.76 150.39C789.401 147.493 786.629 143.945 784.501 139.83C782.513 135.985 781.197 131.517 780.609 126.589H890.921L891.089 125.912C891.453 124.477 891.705 122.635 891.789 120.442C891.873 118.33 891.929 116.082 891.929 113.808C891.929 104.412 890.221 95.2325 886.805 86.5406C883.445 77.8757 878.434 70.1315 871.91 63.5516ZM780.049 101.84C780.497 97.2363 781.673 92.958 783.577 89.113C785.593 85.0242 788.253 81.4771 791.445 78.5527C794.608 75.6553 798.332 73.3537 802.504 71.7291C806.647 70.1044 811.183 69.2921 815.943 69.2921C825.658 69.2921 834.057 72.3789 840.861 78.4444C847.44 84.3202 851.304 92.1728 852.34 101.84H780.049Z" fill="url(#paint4_linear)"/>
<path d="M997.088 42.4577C996.08 42.4577 994.54 42.4577 992.524 42.4577C988.66 42.4577 984.657 43.2159 980.513 44.7322C976.369 46.2486 972.254 48.4419 968.222 51.285C964.162 54.1282 960.383 57.4858 956.883 61.3038C953.383 65.1488 950.331 69.4542 947.756 74.274V45.0301H913.766V151.283C913.766 171.077 930.341 187.107 950.807 187.107V99.6459C954.671 91.6309 961.027 85.6196 969.874 81.6121C978.721 77.6046 988.745 75.5196 1000 75.3301V42.7285C999.048 42.5389 998.096 42.4577 997.088 42.4577Z" fill="url(#paint5_linear)"/>
<path d="M555.281 0H518.464V45.1657H499.51V72.5413H518.464V152.529C518.464 158.73 519.472 164.01 521.488 168.342C523.504 172.675 526.192 176.222 529.579 178.984C532.967 181.719 536.915 183.722 541.394 184.968C545.706 186.159 550.354 186.755 555.281 186.809V140.561V126.697V72.5413H585.491V45.1657H555.281V0Z" fill="url(#paint6_linear)"/>
<defs>
<linearGradient id="paint0_linear" x1="-33.5415" y1="93.2677" x2="1027.62" y2="93.2677" gradientUnits="userSpaceOnUse">
<stop stop-color="#ED9821"/>
<stop offset="1" stop-color="#D04E27"/>
</linearGradient>
<linearGradient id="paint1_linear" x1="-42.2116" y1="141.895" x2="1050.69" y2="141.895" gradientUnits="userSpaceOnUse">
<stop stop-color="#ED9821"/>
<stop offset="1" stop-color="#D04E27"/>
</linearGradient>
<linearGradient id="paint2_linear" x1="-42.2118" y1="114.923" x2="1050.69" y2="114.923" gradientUnits="userSpaceOnUse">
<stop stop-color="#ED9821"/>
<stop offset="1" stop-color="#D04E27"/>
</linearGradient>
<linearGradient id="paint3_linear" x1="-29.5572" y1="116.082" x2="1043.83" y2="116.082" gradientUnits="userSpaceOnUse">
<stop stop-color="#ED9821"/>
<stop offset="1" stop-color="#D04E27"/>
</linearGradient>
<linearGradient id="paint4_linear" x1="-35.1452" y1="114.5" x2="1051.41" y2="114.5" gradientUnits="userSpaceOnUse">
<stop stop-color="#ED9821"/>
<stop offset="1" stop-color="#D04E27"/>
</linearGradient>
<linearGradient id="paint5_linear" x1="-46.0462" y1="114.79" x2="1053.36" y2="114.79" gradientUnits="userSpaceOnUse">
<stop stop-color="#ED9821"/>
<stop offset="1" stop-color="#D04E27"/>
</linearGradient>
<linearGradient id="paint6_linear" x1="-42.2126" y1="93.3922" x2="1050.69" y2="93.3922" gradientUnits="userSpaceOnUse">
<stop stop-color="#ED9821"/>
<stop offset="1" stop-color="#D04E27"/>
</linearGradient>
</defs>
</svg>
