<svg width="352" height="64" viewBox="0 0 352 64" fill="none" xmlns="http://www.w3.org/2000/svg">
<path fill-rule="evenodd" clip-rule="evenodd" d="M91.0938 11.5579H97.5338V19.7676H102.843V24.6837H97.5829V34.5157V37.0229V45.4293C96.6981 45.4293 95.8623 45.2819 95.1249 45.0852C94.3384 44.8886 93.6501 44.4953 93.0602 44.0037C92.4703 43.5121 91.9787 42.873 91.6345 42.0864C91.2904 41.2999 91.0938 40.3658 91.0938 39.2351V24.7328H87.7509V19.7676H91.0938V11.5579ZM23.4495 28.961C22.5154 28.2236 21.3848 27.5845 20.0574 27.0929C18.7301 26.6013 17.2553 26.1097 15.633 25.6673C14.404 25.3723 13.2733 25.0774 12.3393 24.7824C11.4052 24.4874 10.6186 24.1925 9.97956 23.8484C9.34047 23.5042 8.89803 23.111 8.5539 22.6685C8.20978 22.2261 8.0623 21.6361 8.0623 20.9479C8.0623 19.768 8.50474 18.834 9.38963 18.1949C10.2745 17.5558 11.6018 17.2117 13.3716 17.2117C14.3548 17.2117 15.338 17.3592 16.3212 17.605C17.3044 17.8508 18.1893 18.1458 19.0251 18.539C19.8608 18.8832 20.549 19.2764 21.139 19.6206C21.7289 20.0138 22.1222 20.3088 22.3188 20.5055L25.1701 15.2453C23.6953 14.2621 21.9747 13.3772 20.0083 12.6398C18.0419 11.9024 15.8788 11.5583 13.5683 11.5583C11.8968 11.5583 10.3237 11.8041 8.84887 12.2465C7.37405 12.689 6.09589 13.3772 4.9652 14.2129C3.83451 15.0978 2.99878 16.1793 2.3597 17.5067C1.72061 18.834 1.42565 20.3088 1.42565 21.9803C1.42565 23.2584 1.62229 24.34 2.01558 25.274C2.40886 26.2081 2.99878 26.9946 3.78535 27.732C4.57191 28.4203 5.55512 29.0594 6.73497 29.551C7.91482 30.0426 9.29131 30.5342 10.8644 30.9766C12.1918 31.3699 13.3716 31.714 14.404 32.009C15.4855 32.3039 16.3704 32.6481 17.1078 33.0413C17.8452 33.4346 18.4351 33.8771 18.8284 34.3687C19.2217 34.8603 19.4183 35.4994 19.4183 36.1876C19.4183 38.449 17.6486 39.6288 14.0599 39.6288C12.7817 39.6288 11.5527 39.4813 10.3237 39.1372C9.09467 38.8423 8.01314 38.449 6.98077 38.0065C5.99756 37.5641 5.11268 37.1217 4.37527 36.6301C3.63787 36.1876 3.14626 35.7943 2.8513 35.5485L0 41.1036C1.91725 42.4801 4.12947 43.5617 6.53833 44.2991C8.99635 45.0365 11.4544 45.4298 13.9615 45.4298C15.5838 45.4298 17.157 45.2331 18.6318 44.889C20.1066 44.5449 21.4339 43.9549 22.5646 43.1684C23.6953 42.3818 24.6293 41.3494 25.2684 40.1204C25.9567 38.8423 26.2516 37.3183 26.2516 35.5485C26.2516 34.0246 26.0058 32.7464 25.5142 31.6649C25.0718 30.6325 24.3344 29.7476 23.4495 28.961ZM52.995 23.1597C51.9626 21.9799 50.6844 21.0458 49.2588 20.3576C47.8331 19.6694 46.2108 19.3252 44.5394 19.3252C42.6221 19.3252 40.9015 19.7677 39.4267 20.6034C37.9519 21.4391 36.7229 22.619 35.7888 24.0938V19.7677H30.1354V48.8706C30.1354 52.4593 33.0359 55.3106 36.5754 55.3106V40.6117C37.4111 42.1356 38.591 43.3155 40.0658 44.2004C41.5406 45.0853 43.2612 45.5277 45.2768 45.5277C46.8991 45.5277 48.3739 45.1836 49.7012 44.4953C51.0286 43.8071 52.2084 42.8731 53.1916 41.6932C54.1748 40.5134 54.9122 39.0877 55.5022 37.5146C56.0429 35.8923 56.3379 34.1717 56.3379 32.3527C56.3379 30.583 56.0429 28.9115 55.453 27.2892C54.8631 25.7161 54.0273 24.3396 52.995 23.1597ZM49.2588 35.2532C48.9147 36.1872 48.4722 37.023 47.9315 37.7112C47.3415 38.3995 46.6533 38.9894 45.8176 39.3827C44.9818 39.8251 44.0969 40.0218 43.1629 40.0218C41.7864 40.0218 40.5082 39.5301 39.2792 38.5961C38.0994 37.6621 37.2145 36.433 36.6246 35.0074V29.059C36.8704 28.4691 37.1653 27.8791 37.6078 27.3875C38.0502 26.8959 38.5418 26.4043 39.0826 26.0602C39.6234 25.6669 40.2133 25.372 40.8524 25.1753C41.4915 24.9787 42.1305 24.8804 42.7205 24.8804C43.7037 24.8804 44.6377 25.077 45.4734 25.4703C46.3092 25.8636 47.0466 26.4043 47.6857 27.0434C48.3247 27.7317 48.8163 28.5182 49.1605 29.4523C49.5046 30.3863 49.7012 31.3695 49.7012 32.4019C49.7504 33.3359 49.5537 34.3192 49.2588 35.2532ZM77.969 20.4068C79.5913 21.095 80.9678 22.0291 82.0985 23.2581C83.2292 24.4379 84.114 25.8636 84.7531 27.4367C85.3922 29.0098 85.6872 30.6813 85.6872 32.4511C85.6872 34.1717 85.3431 35.8431 84.7531 37.4162C84.1632 38.9894 83.2783 40.3659 82.1476 41.5949C81.0169 42.7747 79.6405 43.7579 78.0182 44.4462C76.3467 45.1836 74.5278 45.5277 72.463 45.5277C70.3983 45.5277 68.5302 45.1344 66.9079 44.4462C65.2856 43.7579 63.86 42.8239 62.7293 41.5949C61.5986 40.3659 60.7137 38.9894 60.1238 37.4162C59.4847 35.8431 59.1897 34.1717 59.1897 32.4511C59.1897 30.6813 59.5339 29.0098 60.1238 27.4367C60.7137 25.8636 61.5986 24.4871 62.7293 23.2581C63.86 22.0782 65.2856 21.095 66.9079 20.4068C68.5794 19.6694 70.3983 19.3252 72.463 19.3252C74.4786 19.3252 76.3467 19.7185 77.969 20.4068ZM77.1333 37.9079C77.7232 37.2196 78.1656 36.433 78.5098 35.499C78.8539 34.565 79.0014 33.5326 79.0014 32.4019C79.0014 31.3204 78.8539 30.288 78.5098 29.354C78.2148 28.4199 77.7232 27.6333 77.1333 26.9451C76.5434 26.2569 75.8059 25.7652 75.0194 25.372C74.2328 25.0278 73.3479 24.8312 72.4139 24.8312C71.4798 24.8312 70.5949 25.0278 69.8084 25.4211C68.9727 25.7652 68.2844 26.306 67.6945 26.9943C67.1046 27.6825 66.6621 28.4691 66.318 29.4031C65.9739 30.3372 65.8264 31.3695 65.8264 32.4511C65.8264 33.5817 65.9739 34.565 66.318 35.499C66.613 36.433 67.1046 37.2196 67.6945 37.9079C68.2844 38.5961 69.0218 39.0877 69.8084 39.481C70.5949 39.8251 71.4798 40.0218 72.4139 40.0218C73.3479 40.0218 74.2328 39.8743 75.0194 39.481C75.8551 39.0877 76.5434 38.5961 77.1333 37.9079ZM125.064 27.3876C126.735 25.372 127.669 22.8157 127.669 20.2102V19.7186H106.776V25.1262H119.509L108.841 37.8588C107.169 39.8744 106.235 42.4307 106.235 45.0362V45.5278H127.915V40.1201H114.494L125.064 27.3876ZM148.956 20.2594C150.578 20.9476 152.004 21.9308 153.135 23.1107C154.265 24.2905 155.15 25.7162 155.888 27.2893C156.478 28.8624 156.773 30.5339 156.773 32.2545V33.4835C156.723 33.8768 156.674 34.2209 156.625 34.4667L156.576 34.6142H137.207C137.305 35.4991 137.551 36.3348 137.895 37.0231C138.239 37.7605 138.731 38.3996 139.321 38.9403C139.911 39.4811 140.599 39.8744 141.336 40.1693C142.123 40.4643 142.909 40.6118 143.696 40.6118C144.925 40.6118 146.154 40.2677 147.235 39.6777C148.317 39.0386 149.104 38.2521 149.497 37.2689L149.546 37.1214L155.396 38.7437L155.298 38.9403C154.315 40.8576 152.84 42.4799 150.775 43.7089C148.71 44.9379 146.252 45.577 143.401 45.577C141.336 45.577 139.468 45.2328 137.846 44.5446C136.224 43.8564 134.798 42.8732 133.618 41.6933C132.438 40.5135 131.553 39.0878 130.914 37.5147C130.275 35.9415 129.98 34.2209 129.98 32.5003C129.98 30.6814 130.324 28.9608 130.914 27.3876C131.504 25.8145 132.389 24.3889 133.569 23.1598C134.7 21.9308 136.125 20.9476 137.797 20.2594C139.468 19.522 141.336 19.1779 143.401 19.1779C145.466 19.1779 147.334 19.5711 148.956 20.2594ZM137.649 27.7318C137.305 28.42 137.108 29.2066 137.01 30.0423H149.693C149.497 28.3217 148.809 26.896 147.678 25.8145C146.498 24.6838 145.023 24.1431 143.303 24.1431C142.467 24.1431 141.68 24.2905 140.943 24.5855C140.255 24.8805 139.566 25.2737 139.026 25.8145C138.485 26.3553 137.993 26.9944 137.649 27.7318ZM175.109 19.2761H174.322C173.634 19.2761 172.946 19.4236 172.209 19.6694C171.471 19.9643 170.783 20.3576 170.045 20.8492C169.357 21.39 168.669 21.9799 168.079 22.6682C167.44 23.3564 166.948 24.143 166.457 25.0279V19.7185H160.508V38.9894C160.508 42.5781 163.409 45.4786 166.998 45.4786V29.5998C167.686 28.125 168.816 27.0434 170.34 26.306C171.914 25.5686 173.634 25.1753 175.65 25.1753V19.2761H175.109Z" fill="url(#paint0_linear)"/>
<path d="M183.77 10.2736C183.77 4.59966 188.369 0 194.043 0H341.727C347.4 0 352 4.59966 352 10.2736V52.9092C352 58.5831 347.4 63.1828 341.727 63.1828H194.043C188.369 63.1828 183.77 58.5831 183.77 52.9092V10.2736Z" fill="url(#paint1_linear)"/>
<path fill-rule="evenodd" clip-rule="evenodd" d="M294.363 11.6863H287.946V19.8673H284.615V24.8151H287.946V39.2666C287.946 40.3933 288.142 41.3241 288.485 42.1079C288.828 42.8917 289.318 43.5286 289.905 44.0184C290.493 44.5083 291.179 44.9002 291.963 45.0962C292.698 45.2921 293.531 45.4391 294.412 45.4391V37.0621V34.5637V24.7661H299.703V19.8183H294.363V11.6863ZM321.502 20.5529V20.8958V24.227C320.669 22.8064 319.494 21.6307 318.024 20.6999C316.554 19.8181 314.84 19.3282 312.978 19.3282C311.362 19.3282 309.843 19.6711 308.471 20.357C307.1 21.0428 305.924 21.9736 304.895 23.1493C303.915 24.325 303.132 25.6967 302.544 27.3133C302.005 28.8809 301.711 30.5955 301.711 32.4081C301.711 34.2206 302.005 35.9352 302.593 37.5518C303.181 39.1194 304.013 40.5401 305.091 41.7158C306.169 42.8915 307.442 43.8223 308.912 44.5081C310.382 45.194 311.998 45.5369 313.713 45.5369C315.428 45.5369 317.093 45.145 318.71 44.3122C319.788 43.7243 320.767 42.9895 321.551 42.0587L321.502 45.5369H324.833H327.969L328.018 37.6498V21.0918V20.9448V20.6019V19.8181H321.551V20.5529H321.502ZM321.502 35.7393C321.257 36.3271 320.963 36.915 320.522 37.4048C320.081 37.8947 319.592 38.3846 319.053 38.7765C318.514 39.1684 317.926 39.4624 317.289 39.6583C316.652 39.8543 316.015 39.9522 315.428 39.9522C314.399 39.9522 313.468 39.7563 312.635 39.3644C311.802 38.9725 311.068 38.4336 310.431 37.7968C309.843 37.1109 309.353 36.3271 309.01 35.4453C308.667 34.5635 308.471 33.5838 308.471 32.506C308.471 31.5263 308.618 30.5465 308.961 29.6157C309.304 28.685 309.745 27.8522 310.333 27.1173C310.921 26.3825 311.606 25.8436 312.439 25.4028C313.272 24.9619 314.154 24.7659 315.134 24.7659C315.77 24.7659 316.407 24.9129 317.093 25.1578C317.73 25.4028 318.367 25.7457 318.955 26.1866C319.543 26.6275 320.081 27.1173 320.522 27.7052C320.963 28.2931 321.355 28.9299 321.6 29.6647V35.7393H321.502ZM340.314 11.6863V36.3763V45.4391H333.848V17.9078C333.848 15.8993 334.387 14.3806 335.513 13.3029C336.64 12.2251 338.208 11.6863 340.216 11.6863H340.314ZM260.708 24.2761C259.728 22.7575 258.504 21.5818 256.985 20.7C255.466 19.8182 253.752 19.3773 251.743 19.3773C249.98 19.3773 248.363 19.7202 246.894 20.4061C245.424 21.0919 244.199 22.0227 243.121 23.2474C242.093 24.4721 241.26 25.8438 240.672 27.4604C240.084 29.077 239.79 30.7916 239.79 32.6531C239.79 34.4167 240.084 36.0823 240.623 37.6499C241.162 39.2175 241.946 40.5892 242.974 41.7649C244.003 42.9406 245.228 43.8714 246.6 44.5572C248.02 45.2431 249.539 45.586 251.302 45.586C253.066 45.586 254.683 45.1941 256.25 44.4103C257.769 43.6264 258.945 42.4997 259.826 41.0301V43.2835C259.826 44.5082 259.63 45.586 259.239 46.5168C258.847 47.4475 258.259 48.1824 257.573 48.7702C256.838 49.3581 256.054 49.799 255.124 50.0439C254.291 50.2888 253.409 50.4358 252.527 50.4358C249.98 50.3378 247.383 49.3091 245.669 47.8884L245.522 48.1823L245.13 48.9172L244.052 50.8767L243.219 52.3953C243.464 52.5913 243.758 52.7872 244.052 52.9832C245.326 53.816 246.894 54.4038 248.608 54.7957C249.784 55.0897 251.058 55.2856 252.478 55.3346H252.625C254.536 55.2856 256.299 55.0407 257.916 54.5018C259.63 53.963 261.149 53.1301 262.423 52.1014C263.696 51.0726 264.676 49.799 265.362 48.2803C266.097 46.7617 266.44 45.0961 266.44 43.1856V19.8182H260.757V24.2761H260.708ZM259.875 35.9843C259.63 36.5722 259.337 37.111 258.896 37.6499C258.455 38.1888 257.965 38.6297 257.426 39.0216C256.887 39.4135 256.25 39.7074 255.613 39.9523C254.977 40.1973 254.291 40.2953 253.556 40.2953C252.527 40.2953 251.645 40.0993 250.764 39.7074C249.931 39.3155 249.196 38.7766 248.559 38.0908C247.922 37.405 247.432 36.6211 247.089 35.6904C246.747 34.7596 246.551 33.8288 246.551 32.7511C246.551 31.7223 246.698 30.7916 246.991 29.8118C247.285 28.881 247.726 28.0482 248.314 27.3134C248.902 26.5786 249.588 25.9907 250.421 25.5498C251.253 25.1089 252.135 24.913 253.164 24.913C254.536 24.913 255.858 25.3539 257.083 26.2846C258.357 27.2154 259.239 28.3911 259.826 29.9098V35.9843H259.875ZM215.247 20.5528V18.1523C215.247 14.5762 218.138 11.6859 221.763 11.7349V20.6017V21.0916V37.6496L221.714 45.5367H218.578H215.247L215.296 42.0586C214.512 42.9893 213.533 43.7242 212.455 44.312C210.838 45.1448 209.173 45.5367 207.458 45.5367C205.744 45.5367 204.127 45.1938 202.657 44.508C201.188 43.8221 199.914 42.8914 198.836 41.7156C197.758 40.5399 196.926 39.1193 196.338 37.5516C195.75 35.935 195.456 34.2205 195.456 32.4079C195.456 30.5953 195.75 28.8807 196.289 27.3131C196.877 25.6965 197.661 24.3249 198.64 23.1491C199.669 21.9734 200.845 21.0426 202.216 20.3568C203.588 19.671 205.107 19.3281 206.723 19.3281C208.585 19.3281 210.299 19.8179 211.769 20.6997C213.239 21.6305 214.414 22.8062 215.247 24.2269V20.5528ZM214.267 37.4047C214.708 36.9148 215.002 36.3269 215.247 35.7391H215.345V29.6646C215.1 28.9297 214.708 28.2929 214.267 27.705C213.827 27.1172 213.288 26.6273 212.7 26.1864C212.112 25.7455 211.475 25.4026 210.838 25.1576C210.152 24.9127 209.516 24.7657 208.879 24.7657C207.899 24.7657 207.017 24.9617 206.184 25.4026C205.352 25.8435 204.666 26.3823 204.078 27.1172C203.49 27.852 203.049 28.6848 202.706 29.6156C202.363 30.5463 202.216 31.5261 202.216 32.5059C202.216 33.5836 202.412 34.5634 202.755 35.4452C203.098 36.3269 203.588 37.1108 204.176 37.7966C204.813 38.4334 205.548 38.9723 206.38 39.3642C207.213 39.7561 208.144 39.9521 209.173 39.9521C209.761 39.9521 210.397 39.8541 211.034 39.6581C211.671 39.4622 212.259 39.1683 212.798 38.7763C213.337 38.3844 213.827 37.8946 214.267 37.4047ZM227.543 26.1867V45.488H234.01V19.7693C230.433 19.7203 227.543 22.6106 227.543 26.1867ZM227.543 14.8705C227.543 13.1069 228.964 11.6863 230.776 11.6863C232.54 11.6863 233.961 13.1069 233.961 14.8705C233.961 16.6341 232.54 18.0547 230.776 18.0547H230.727C228.964 18.0547 227.543 16.6341 227.543 14.8705ZM272.269 26.1867V45.488H278.687V19.7693C275.159 19.7203 272.269 22.6106 272.269 26.1867ZM272.269 14.8705C272.269 13.1069 273.69 11.6863 275.502 11.6863C277.266 11.6863 278.687 13.1069 278.687 14.8705C278.687 16.6341 277.266 18.0547 275.502 18.0547H275.453C273.69 18.0547 272.269 16.6341 272.269 14.8705Z" fill="white"/>
<defs>
<linearGradient id="paint0_linear" x1="0" y1="33.4851" x2="175.65" y2="33.4851" gradientUnits="userSpaceOnUse">
<stop stop-color="#EE9401"/>
<stop offset="1" stop-color="#D64F01"/>
</linearGradient>
<linearGradient id="paint1_linear" x1="183.77" y1="31.6648" x2="352" y2="31.6648" gradientUnits="userSpaceOnUse">
<stop stop-color="#EE9401"/>
<stop offset="1" stop-color="#D64F01"/>
</linearGradient>
</defs>
</svg>
