<svg xmlns="http://www.w3.org/2000/svg" width="749" height="134" viewBox="0 0 749 134" fill="none"><path d="M193.865 24.5381H207.527V41.9407H218.838V52.3822H207.614V96.4108C205.699 96.4108 203.959 96.0628 202.393 95.7147C200.74 95.2796 199.26 94.4965 198.042 93.4524C196.824 92.4082 195.78 91.016 194.997 89.3628C194.301 87.7095 193.865 85.7082 193.865 83.3589V52.6433H186.73V42.1147H193.865V24.5381V24.5381Z" fill="url(#paint0_linear_1332_104)"></path><path d="M50.0325 61.4317C48.0312 59.8655 45.6818 58.4732 42.8104 57.4291C40.026 56.3849 36.8935 55.3408 33.413 54.3836C30.8026 53.7745 28.3663 53.1655 26.452 52.4694C24.4507 51.8603 22.7974 51.2512 21.4052 50.4681C20.013 49.772 19.1429 48.9018 18.3598 47.9447C17.6637 46.9875 17.3156 45.7694 17.3156 44.2901C17.3156 41.7668 18.2728 39.7655 20.1 38.4603C22.0143 37.0681 24.7987 36.372 28.5402 36.372C30.6286 36.372 32.7169 36.72 34.8052 37.2421C36.8935 37.7642 38.8078 38.3732 40.5481 39.2434C42.2883 39.9395 43.7675 40.8096 45.0727 41.5057C46.2909 42.3758 47.161 42.9849 47.5961 43.42L53.687 32.2823C50.5546 30.194 46.9 28.2797 42.7234 26.7135C38.5468 25.1473 33.9351 24.4512 29.0624 24.4512C25.4948 24.4512 22.1883 24.9733 19.0559 25.9304C15.9234 26.8875 13.226 28.3668 10.7896 30.107C8.35327 32.0213 6.61299 34.2836 5.22078 37.0681C3.82857 39.8525 3.21949 42.9849 3.21949 46.5525C3.21949 49.2499 3.65458 51.5992 4.43769 53.5135C5.30782 55.5148 6.52599 57.1681 8.17924 58.7343C9.83249 60.2135 11.9208 61.5187 14.4442 62.5629C16.9676 63.607 19.839 64.6512 23.2325 65.6083C26.0169 66.4784 28.5402 67.1745 30.7156 67.7836C32.9779 68.3927 34.8922 69.1758 36.4585 69.959C38.0247 70.8291 39.2429 71.6992 40.113 72.7434C40.9831 73.7875 41.3312 75.1797 41.3312 76.5719C41.3312 81.3577 37.5896 83.881 29.9325 83.881C27.2351 83.881 24.6247 83.533 22.0143 82.8369C19.4039 82.2278 17.1416 81.3577 14.8793 80.4005C12.7909 79.4434 10.8766 78.4862 9.3104 77.4421C7.74417 76.4849 6.7 75.7018 6.09091 75.1797L0 86.9265C4.08961 89.8849 8.78831 92.1473 13.9221 93.7135C19.1429 95.2797 24.3637 96.1499 29.6715 96.1499C33.152 96.1499 36.4584 95.7148 39.5909 95.0187C42.7234 94.3226 45.5078 93.0174 47.9442 91.3642C50.3805 89.7109 52.2948 87.5356 53.687 84.9252C55.1662 82.2278 55.7754 79.0083 55.7754 75.2668C55.7754 72.0473 55.2532 69.3499 54.2091 67.0005C53.513 64.9992 51.9468 63.0849 50.0325 61.4317Z" fill="url(#paint1_linear_1332_104)"></path><path fill-rule="evenodd" clip-rule="evenodd" d="M112.857 49.0754C110.682 46.552 107.984 44.5507 104.939 43.1585C101.893 41.6793 98.4998 40.9832 94.9323 40.9832C90.8427 40.9832 87.1881 41.9403 84.0557 43.6806C80.9232 45.4208 78.3128 47.9442 76.3115 51.0767V41.9403H64.3037V103.633C64.3037 111.203 70.4816 117.294 77.9648 117.294V86.1429C79.705 89.3624 82.2284 91.8858 85.3609 93.713C88.4933 95.6273 92.1478 96.4974 96.4115 96.4974C99.892 96.4974 103.025 95.8013 105.809 94.3221C108.593 92.8429 111.117 90.8416 113.205 88.4052C115.293 85.8819 116.86 82.8364 118.078 79.5299C119.209 76.0494 119.818 72.4819 119.818 68.5663C119.818 64.8247 119.209 61.2572 117.904 57.8637C116.773 54.5572 115.032 51.5987 112.857 49.0754ZM104.852 74.7442C104.156 76.7455 103.198 78.4857 102.067 79.965C100.849 81.4442 99.37 82.6624 97.5427 83.5325C95.8024 84.4896 93.8881 84.9247 91.8868 84.9247C88.9284 84.9247 86.231 83.8806 83.6206 81.8793C81.0972 79.878 79.27 77.2676 77.9648 74.3091V61.6922C78.4868 60.4741 79.0959 59.1689 80.053 58.1247C81.0102 57.0806 82.0544 56.0364 83.1855 55.3403C84.3167 54.4702 85.6219 53.8611 86.9271 53.426C88.3193 52.9909 89.6245 52.8169 90.9297 52.8169C93.018 52.8169 95.0193 53.252 96.7595 54.0351C98.4998 54.9052 100.066 56.0364 101.458 57.3416C102.85 58.8208 103.895 60.4741 104.591 62.4754C105.287 64.4767 105.722 66.565 105.722 68.7403C105.896 70.7416 105.548 72.7429 104.852 74.7442Z" fill="url(#paint2_linear_1332_104)"></path><path fill-rule="evenodd" clip-rule="evenodd" d="M165.934 43.2455C169.415 44.7247 172.286 46.726 174.722 49.2494C177.159 51.7728 178.986 54.8182 180.378 58.1247C181.771 61.4312 182.38 64.9987 182.38 68.7403C182.38 72.3948 181.684 75.9624 180.378 79.2689C179.16 82.5754 177.246 85.5338 174.81 88.1442C172.373 90.6676 169.502 92.7559 166.021 94.1481C162.454 95.7143 158.625 96.4104 154.187 96.4104C149.837 96.4104 145.834 95.5403 142.354 94.1481C138.873 92.6689 135.915 90.6676 133.478 88.1442C131.042 85.5338 129.215 82.5754 127.909 79.2689C126.517 75.9624 125.908 72.3948 125.908 68.7403C125.908 64.9987 126.604 61.4312 127.909 58.1247C129.128 54.8182 131.042 51.8598 133.478 49.2494C135.915 46.726 138.873 44.6377 142.354 43.2455C145.921 41.6793 149.75 40.9832 154.187 40.9832C158.538 40.9832 162.454 41.8533 165.934 43.2455ZM164.194 80.4C165.412 78.9208 166.369 77.2676 167.152 75.2663C167.848 73.265 168.196 71.0896 168.196 68.7403C168.196 66.478 167.848 64.2156 167.152 62.3013C166.543 60.3 165.499 58.6468 164.194 57.1676C162.976 55.6883 161.409 54.6442 159.669 53.8611C158.016 53.165 156.102 52.7299 154.1 52.7299C152.099 52.7299 150.272 53.165 148.532 53.9481C146.791 54.6442 145.312 55.8624 144.007 57.2546C142.789 58.7338 141.832 60.387 141.048 62.3883C140.352 64.3896 140.004 66.565 140.004 68.8273C140.004 71.2637 140.352 73.352 141.048 75.2663C141.658 77.2676 142.702 78.9208 144.007 80.4C145.225 81.8793 146.791 82.9234 148.532 83.7065C150.185 84.4026 152.099 84.8377 154.1 84.8377C156.102 84.8377 157.929 84.4896 159.669 83.7065C161.409 82.9234 162.889 81.8793 164.194 80.4Z" fill="url(#paint3_linear_1332_104)"></path><path d="M266.087 58.1247C269.654 53.8611 271.655 48.4663 271.655 42.8974V41.8533H227.279V53.339H254.34L231.629 80.313C228.062 84.5766 226.061 89.9715 226.061 95.5403V96.5844H272.177V85.0987H243.637L266.087 58.1247Z" fill="url(#paint4_linear_1332_104)"></path><path fill-rule="evenodd" clip-rule="evenodd" d="M316.815 42.9846C320.296 44.4638 323.254 46.5521 325.691 48.9885C328.127 51.5119 329.954 54.5573 331.521 57.8638C332.739 61.1703 333.435 64.7379 333.435 68.3924V71.0028C333.348 71.8729 333.261 72.569 333.087 73.0911L333 73.4391H291.843C292.017 75.3534 292.539 77.0937 293.322 78.5729C294.018 80.1392 295.062 81.5314 296.367 82.6625C297.586 83.7937 299.065 84.6638 300.631 85.2729C302.284 85.882 303.937 86.2301 305.678 86.2301C308.288 86.2301 310.899 85.534 313.161 84.2288C315.51 82.8366 317.163 81.1833 317.947 79.095L318.034 78.7469L330.476 82.2275L330.302 82.6625C328.214 86.7521 325.082 90.1456 320.644 92.756C316.293 95.3664 310.986 96.7586 304.982 96.7586C300.631 96.7586 296.628 96.0625 293.148 94.5833C289.667 93.1041 286.709 91.0158 284.186 88.4924C281.662 85.969 279.835 82.9236 278.443 79.6171C277.051 76.3106 276.441 72.656 276.441 69.0015C276.441 65.1729 277.138 61.5184 278.443 58.1249C279.661 54.8184 281.575 51.7729 284.099 49.1625C286.535 46.5521 289.493 44.4638 293.061 42.9846C296.628 41.4184 300.631 40.7223 304.982 40.7223C309.419 40.6353 313.422 41.5054 316.815 42.9846ZM292.8 58.821C292.104 60.3002 291.669 61.9534 291.408 63.6937H318.382C317.947 60.0392 316.467 56.9937 314.118 54.7314C311.595 52.295 308.462 51.1638 304.808 51.1638C302.98 51.1638 301.327 51.5119 299.761 52.121C298.282 52.7301 296.802 53.6002 295.671 54.7314C294.54 55.8625 293.496 57.2547 292.8 58.821Z" fill="url(#paint5_linear_1332_104)"></path><path d="M370.763 40.8962C369.284 40.8962 367.804 41.2443 366.238 41.7664C364.672 42.3755 363.193 43.2456 361.627 44.2897C360.147 45.4209 358.668 46.7261 357.45 48.1183C356.058 49.5975 355.014 51.2508 353.969 53.1651V41.9404H341.353V82.8365C341.353 90.4066 347.531 96.5845 355.101 96.5845V62.9105C356.58 59.7781 358.929 57.5157 362.236 55.9495C365.542 54.3833 369.197 53.5131 373.547 53.5131V40.8962H370.763Z" fill="url(#paint6_linear_1332_104)"></path><path d="M552.534 76.3105V63.4326C551.316 60.2131 549.401 57.6898 546.704 55.7755C544.094 53.7742 541.309 52.9041 538.351 52.9041C537.829 52.9041 537.307 52.9041 536.785 52.9911C535.218 53.1651 533.826 53.6002 532.521 54.2963C530.781 55.2534 529.301 56.4716 528.083 58.0378C527.735 58.3859 527.474 58.8209 527.213 59.256C526.43 60.4742 525.734 61.8664 525.299 63.3456C524.864 64.9118 524.516 66.3911 524.429 67.9573C524.429 68.4794 524.342 69.0014 524.342 69.5235C524.342 71.7859 524.777 73.7872 525.473 75.7885C525.647 76.3105 525.821 76.7456 526.082 77.1807C526.778 78.5729 527.561 79.7911 528.605 80.8352C529.911 82.3144 531.477 83.4456 533.304 84.2287C535.218 85.0989 537.046 85.4469 539.221 85.4469C540.787 85.4469 542.266 85.2729 543.572 84.7508C544.964 84.2287 546.269 83.6196 547.4 82.7495C548.531 81.8794 549.576 81.0092 550.533 79.8781C551.49 78.7469 552.099 77.6157 552.621 76.3105H552.534V76.3105Z" fill="url(#paint7_linear_1332_104)"></path><path d="M678.268 55.5144C677.049 54.5573 675.657 53.8612 674.265 53.3391C672.786 52.817 671.481 52.469 670.088 52.469C668 52.469 666.086 52.9041 664.346 53.8612C662.605 54.8183 661.126 55.9495 659.821 57.5158C658.603 59.082 657.646 60.8222 656.949 62.8235C656.253 64.8248 655.905 66.9131 655.905 68.9144C655.905 71.1768 656.34 73.2651 657.036 75.1794C657.733 77.0066 658.777 78.7469 660.082 80.1391C661.474 81.5313 663.04 82.6625 664.781 83.4456C666.521 84.3157 668.522 84.6638 670.697 84.6638C671.916 84.6638 673.308 84.4898 674.613 84.0547C676.005 83.6196 677.223 83.0106 678.355 82.2274C679.486 81.3573 680.53 80.4002 681.487 79.356C682.444 78.3118 683.053 77.0937 683.575 75.7885H683.749V62.9106C683.227 61.3443 682.357 60.0391 681.487 58.7339C680.617 57.5157 679.486 56.4716 678.268 55.5144Z" fill="url(#paint8_linear_1332_104)"></path><path d="M455.689 58.7339C454.993 57.7768 454.123 56.9937 453.253 56.2105C452.992 55.9495 452.644 55.6885 452.383 55.5144C451.165 54.5573 449.772 53.8612 448.38 53.3391C446.901 52.817 445.596 52.469 444.204 52.469C442.115 52.469 440.288 52.9041 438.461 53.8612C436.72 54.8183 435.241 55.9495 433.936 57.5158C432.718 59.082 431.761 60.8222 431.065 62.8235C430.369 64.8248 430.021 66.9131 430.021 68.9144C430.021 71.1768 430.456 73.2651 431.152 75.1794C431.848 77.0937 432.892 78.7469 434.197 80.1391C435.589 81.5313 437.069 82.6625 438.896 83.4456C440.636 84.3157 442.637 84.6638 444.813 84.6638C446.031 84.6638 447.423 84.4898 448.728 84.0547C450.121 83.6196 451.339 83.0105 452.47 82.1404C453.601 81.2703 454.645 80.3132 455.602 79.269C456.559 78.2248 457.169 77.0067 457.691 75.7015H457.865V62.8235C457.691 62.4755 457.604 62.0404 457.43 61.6924C456.995 60.6482 456.385 59.6911 455.689 58.7339Z" fill="url(#paint9_linear_1332_104)"></path><path d="M726.647 0H412.704C400.61 0 390.864 9.74545 390.864 21.7532V112.247C390.864 124.255 400.61 134 412.704 134H726.647C738.742 134 748.488 124.255 748.488 112.247V21.7532C748.488 9.74545 738.742 0 726.647 0ZM483.968 30.8026C484.142 28.7143 485.273 26.974 486.927 25.9299C488.058 25.2338 489.363 24.7987 490.755 24.7987C492.147 24.7987 493.453 25.2338 494.584 25.9299C496.237 27.061 497.281 28.8013 497.542 30.8026C497.542 31.0636 497.542 31.2377 497.542 31.4987C497.542 34.8052 495.193 37.5026 492.147 38.1117C491.712 38.1987 491.277 38.2857 490.755 38.2857H490.668C490.233 38.2857 489.711 38.1987 489.276 38.1117C486.143 37.5026 483.881 34.8052 483.881 31.4987C483.881 31.3247 483.881 31.0636 483.968 30.8026ZM471.612 43.6805V44.7247V79.8779L471.525 96.5844H464.825H457.777L457.864 89.1883C456.211 91.1896 454.123 92.7558 451.86 93.974C448.467 95.7143 444.899 96.5844 441.245 96.5844C439.853 96.5844 438.547 96.4974 437.242 96.2364C435.067 95.8883 432.978 95.2792 431.064 94.3221C428.715 93.1909 426.627 91.8857 424.712 90.1455C424.103 89.6234 423.494 89.0143 422.885 88.4052C420.623 85.8818 418.795 82.9234 417.577 79.5299C416.359 76.1364 415.75 72.4818 415.75 68.6532C415.75 64.8247 416.359 61.1701 417.49 57.8636C418.708 54.4701 420.449 51.5117 422.537 49.0753C424.712 46.552 427.236 44.6377 430.107 43.1584C432.979 41.6792 436.285 40.9831 439.679 40.9831C443.159 40.9831 446.379 41.7662 449.163 43.2455C449.598 43.4195 449.946 43.6805 450.381 43.9416C453.514 45.9429 456.037 48.3792 457.777 51.4247V43.5935V38.4597C457.777 37.5026 457.864 36.5455 458.038 35.6753C458.56 32.9779 459.953 30.6286 461.78 28.7143C462.128 28.3662 462.389 28.1052 462.737 27.8442C463.433 27.3221 464.129 26.8 464.912 26.3649C466.914 25.3208 469.089 24.7117 471.525 24.7987V43.6805H471.612ZM497.629 96.4974H483.881V55.6013C483.881 48.4662 489.276 42.6364 496.237 42.0273C496.672 42.0273 497.194 41.9403 497.629 41.9403V96.4974ZM566.63 91.6247C566.63 95.7143 565.934 99.1948 564.368 102.414C562.889 105.634 560.801 108.331 558.103 110.506C555.406 112.682 552.186 114.422 548.532 115.64C545.051 116.771 541.31 117.294 537.307 117.381H536.959C533.914 117.294 531.216 116.858 528.78 116.249C525.125 115.379 521.819 114.161 519.121 112.421C518.512 111.986 517.903 111.551 517.381 111.203L519.121 107.983L521.384 103.806L522.254 102.24L522.602 101.631C526.256 104.677 531.738 106.852 537.22 107.026C539.134 107.026 540.962 106.678 542.702 106.156C544.703 105.634 546.356 104.677 547.923 103.458C549.402 102.24 550.62 100.674 551.49 98.6727C552.36 96.6714 552.708 94.4091 552.708 91.7987V87.013C550.794 90.1455 548.358 92.4948 545.138 94.1481C541.832 95.8013 538.351 96.6714 534.61 96.6714C530.868 96.6714 527.649 95.9753 524.603 94.4961C521.732 93.0169 519.121 91.1026 516.859 88.5792C514.684 86.0558 513.03 83.1844 511.899 79.8779C510.768 76.5714 510.159 73.0039 510.159 69.2623C510.159 65.3468 510.768 61.6922 512.073 58.2117C513.292 54.8182 515.119 51.8597 517.294 49.2494C519.557 46.639 522.167 44.6377 525.299 43.2455C528.432 41.7662 531.825 41.0701 535.654 41.0701C539.918 41.0701 543.572 42.0273 546.791 43.8545C550.011 45.6818 552.621 48.2052 554.71 51.4247H554.797V41.9403H566.892V91.6247H566.63ZM592.647 96.4974H578.986V55.6013C578.986 48.0312 585.164 41.8533 592.647 42.0273V96.4974ZM585.86 38.2857H585.773C585.338 38.2857 584.816 38.1987 584.381 38.1117C581.249 37.5026 578.986 34.8052 578.986 31.4987C578.986 31.2377 578.986 31.0636 578.986 30.8026C579.16 28.7143 580.291 26.974 581.945 25.9299C583.076 25.2338 584.381 24.7987 585.773 24.7987C589.515 24.7987 592.56 27.8442 592.56 31.5857C592.647 35.2403 589.602 38.2857 585.86 38.2857ZM637.285 52.5558H626.06V73.352V78.6597V96.4104C624.146 96.4104 622.406 96.0623 620.84 95.7143C619.186 95.2792 617.707 94.4961 616.489 93.4519C615.271 92.4078 614.227 91.1026 613.444 89.3623C612.747 87.7091 612.312 85.7078 612.312 83.3584V52.7299H605.264V42.2013H612.312V24.7987H625.973V42.0273H637.285V52.5558ZM697.498 43.6805V44.3766V44.7247V79.8779L697.411 96.5844H690.711H683.663L683.75 89.1883C682.097 91.1896 680.008 92.7558 677.746 93.974C674.265 95.7143 670.785 96.5844 667.13 96.5844C663.476 96.5844 660.082 95.8883 656.95 94.4091C653.818 92.9299 651.12 91.0156 648.858 88.4922C646.595 85.9688 644.768 83.0104 643.55 79.7039C642.332 76.3104 641.636 72.6559 641.636 68.8273C641.636 64.9987 642.245 61.3442 643.376 58.0377C644.594 54.6442 646.247 51.6857 648.423 49.2494C650.598 46.726 653.121 44.8117 655.993 43.3325C658.864 41.8533 662.171 41.1571 665.564 41.1571C669.045 41.1571 672.264 41.9403 675.049 43.4195C675.484 43.5935 675.832 43.8545 676.267 44.1156C679.399 46.1169 681.923 48.5533 683.663 51.5987V44.5506V43.8545H683.75V42.2883H697.498V43.6805ZM723.602 77.1805V96.4104H709.854V67.174V37.9377C709.854 37.4156 709.854 36.8935 709.941 36.3714C710.202 32.8909 711.333 30.1935 713.421 28.1922C714.64 27.061 716.032 26.1909 717.685 25.5818C719.338 24.9727 721.253 24.7117 723.341 24.7117H723.515V77.1805H723.602Z" fill="url(#paint10_linear_1332_104)"></path><defs><linearGradient id="paint0_linear_1332_104" x1="189.57" y1="24.5381" x2="236.337" y2="58.693" gradientUnits="userSpaceOnUse"><stop stop-color="#1D1D1B"></stop><stop offset="0.473958" stop-color="#182140"></stop><stop offset="1" stop-color="#213889"></stop></linearGradient><linearGradient id="paint1_linear_1332_104" x1="4.93251" y1="24.4512" x2="52.5275" y2="84.9796" gradientUnits="userSpaceOnUse"><stop stop-color="#1D1D1B"></stop><stop offset="0.473958" stop-color="#182140"></stop><stop offset="1" stop-color="#213889"></stop></linearGradient><linearGradient id="paint2_linear_1332_104" x1="69.2131" y1="40.9832" x2="120.567" y2="102.057" gradientUnits="userSpaceOnUse"><stop stop-color="#1D1D1B"></stop><stop offset="0.473958" stop-color="#182140"></stop><stop offset="1" stop-color="#213889"></stop></linearGradient><linearGradient id="paint3_linear_1332_104" x1="130.902" y1="40.9832" x2="164.32" y2="96.6437" gradientUnits="userSpaceOnUse"><stop stop-color="#1D1D1B"></stop><stop offset="0.473958" stop-color="#182140"></stop><stop offset="1" stop-color="#213889"></stop></linearGradient><linearGradient id="paint4_linear_1332_104" x1="230.139" y1="41.8533" x2="265.687" y2="90.8202" gradientUnits="userSpaceOnUse"><stop stop-color="#1D1D1B"></stop><stop offset="0.473958" stop-color="#182140"></stop><stop offset="1" stop-color="#213889"></stop></linearGradient><linearGradient id="paint5_linear_1332_104" x1="281.482" y1="40.7163" x2="315.299" y2="96.9398" gradientUnits="userSpaceOnUse"><stop stop-color="#1D1D1B"></stop><stop offset="0.473958" stop-color="#182140"></stop><stop offset="1" stop-color="#213889"></stop></linearGradient><linearGradient id="paint6_linear_1332_104" x1="344.2" y1="40.8962" x2="382.179" y2="76.7918" gradientUnits="userSpaceOnUse"><stop stop-color="#1D1D1B"></stop><stop offset="0.473958" stop-color="#182140"></stop><stop offset="1" stop-color="#213889"></stop></linearGradient><linearGradient id="paint7_linear_1332_104" x1="526.843" y1="52.9041" x2="547.769" y2="82.6329" gradientUnits="userSpaceOnUse"><stop stop-color="#1D1D1B"></stop><stop offset="0.473958" stop-color="#182140"></stop><stop offset="1" stop-color="#213889"></stop></linearGradient><linearGradient id="paint8_linear_1332_104" x1="658.368" y1="52.469" x2="679.104" y2="81.7872" gradientUnits="userSpaceOnUse"><stop stop-color="#1D1D1B"></stop><stop offset="0.473958" stop-color="#182140"></stop><stop offset="1" stop-color="#213889"></stop></linearGradient><linearGradient id="paint9_linear_1332_104" x1="432.483" y1="52.469" x2="453.219" y2="81.7872" gradientUnits="userSpaceOnUse"><stop stop-color="#1D1D1B"></stop><stop offset="0.473958" stop-color="#182140"></stop><stop offset="1" stop-color="#213889"></stop></linearGradient><linearGradient id="paint10_linear_1332_104" x1="422.491" y1="7.50041e-06" x2="462.356" y2="173.932" gradientUnits="userSpaceOnUse"><stop stop-color="#1D1D1B"></stop><stop offset="0.473958" stop-color="#182140"></stop><stop offset="1" stop-color="#213889"></stop></linearGradient></defs></svg>