<?xml version="1.0" encoding="utf-8"?>
<!-- Generator: Adobe Illustrator 26.1.0, SVG Export Plug-In . SVG Version: 6.00 Build 0)  -->
<svg version="1.1" id="Layer_1" xmlns="http://www.w3.org/2000/svg" xmlns:xlink="http://www.w3.org/1999/xlink" x="0px" y="0px"
	 viewBox="0 0 500 500" style="enable-background:new 0 0 500 500;" xml:space="preserve">
<path id="textcircle" d="M50.1,251.6c0-110.5,89.5-200,200-200s200,89.5,200,200s-89.5,200-200,200S50.1,362.1,50.1,251.6"/>
<g>
	<path d="M266.8,178.2c0-14.7-5.7-22.1-17-22.1c-11.3,0-16.9,7.4-16.9,22.1c0,2.7,0.4,5.7,1,8.7l8.2,39c0.7,3.4,1,6,1,7.7
		c0,2-0.9,3.1-2.6,3.1c-1,0-3.6-1.9-7.7-5.7l-29.8-28.1c-6.2-5.9-13-8.8-20.5-8.8c-11.3,0-16.9,5-16.9,14.9c0,9.6,6.7,17,20.2,22.2
		l38.3,14.4c5.9,2.1,8.8,4.1,8.8,6.2c0,1.4-2.9,3.3-8.8,5.7L185.8,272c-13.4,5.2-20.2,12.7-20.2,22.7c0,9.9,5.5,14.9,16.4,14.9
		c7.5,0,14.5-3.1,21-9.3l29.8-27.7c4.1-3.8,6.7-5.7,7.7-5.7c1.7,0,2.6,1,2.6,3.1c0,1.7-0.4,4.3-1,7.7l-8.2,39c-0.7,3.1-1,6-1,8.7
		c0,14.4,5.7,21.6,16.9,21.6c11.3,0,17-7.2,17-21.6c0-2.4-0.4-5.3-1.1-8.7l-7.7-39l-1.1-6.2v-2c0-1.7,0.9-2.6,2.6-2.6
		c1,0,3.6,1.9,7.7,5.7l29.8,27.7c6.5,6.2,13.3,9.3,20.5,9.3c11.3,0,17-5.1,17-15.4c0-9.6-6.7-17-20.2-22.1l-38.8-14.4
		c-5.8-2.4-8.8-4.3-8.8-5.7c0-1.7,2.9-3.8,8.8-6.2l38.8-14.4c13.4-5.1,20.2-12.7,20.2-22.6s-5.7-14.9-17-14.9
		c-7.2,0-14,3.1-20.5,9.2l-29.8,27.7c-4.1,3.8-6.7,5.7-7.7,5.7c-1.7,0-2.6-0.9-2.6-2.6l8.7-47.2
		C266.4,183.5,266.8,180.6,266.8,178.2L266.8,178.2z"/>
</g>
</svg>
